<svg width="705" height="622" viewBox="0 0 705 622" fill="none" xmlns="http://www.w3.org/2000/svg">
<rect width="191.486" height="191.486" rx="60" transform="matrix(0.86601 0.500028 3.18351e-05 1 165.841 129)" fill="#6E6E6E"/>
<rect width="191.486" height="191.486" rx="60" transform="matrix(0.86601 -0.500028 -3.18351e-05 1 0.00585938 224.748)" fill="#5A5A5A"/>
<rect width="191.486" height="191.486" rx="60" transform="matrix(0.866041 0.499972 -0.866041 0.499972 165.841 320.475)" fill="#AAAAAA"/>
<rect width="191.486" height="191.486" rx="60" transform="matrix(0.86601 0.500028 3.18351e-05 1 0.000488281 224.717)" fill="#BEBEBE"/>
<rect width="191.486" height="191.486" rx="60" transform="matrix(0.86601 -0.500028 -3.18351e-05 1 165.841 320.466)" fill="#969696"/>
<rect width="191.486" height="191.486" rx="60" transform="matrix(0.866041 -0.499972 0.866041 0.499972 0.000488281 224.738)" fill="#828282"/>
<rect width="191.486" height="191.486" rx="60" transform="matrix(0.86601 0.500028 3.18351e-05 1 538.252 134)" fill="#6E6E6E"/>
<rect width="191.486" height="191.486" rx="60" transform="matrix(0.86601 -0.500028 -3.18351e-05 1 372.393 229.748)" fill="#5A5A5A"/>
<rect width="191.486" height="191.486" rx="60" transform="matrix(0.866041 0.499972 -0.866041 0.499972 538.252 325.475)" fill="#AAAAAA"/>
<rect width="191.486" height="191.486" rx="60" transform="matrix(0.86601 0.500028 3.18351e-05 1 372.387 229.717)" fill="#BEBEBE"/>
<rect width="191.486" height="191.486" rx="60" transform="matrix(0.86601 -0.500028 -3.18351e-05 1 538.252 325.466)" fill="#969696"/>
<rect width="191.486" height="191.486" rx="60" transform="matrix(0.866041 -0.499972 0.866041 0.499972 372.387 229.738)" fill="#828282"/>
<rect width="191.486" height="191.486" rx="60" transform="matrix(0.86601 0.500028 3.18351e-05 1 356.375 239)" fill="#6E6E6E"/>
<rect width="191.486" height="191.486" rx="60" transform="matrix(0.86601 -0.500028 -3.18351e-05 1 190.529 334.748)" fill="#5A5A5A"/>
<rect width="191.486" height="191.486" rx="60" transform="matrix(0.866041 0.499972 -0.866041 0.499972 356.375 430.475)" fill="#AAAAAA"/>
<rect width="191.486" height="191.486" rx="60" transform="matrix(0.86601 0.500028 3.18351e-05 1 190.524 334.717)" fill="#BEBEBE"/>
<rect width="191.486" height="191.486" rx="60" transform="matrix(0.86601 -0.500028 -3.18351e-05 1 356.375 430.466)" fill="#969696"/>
<rect width="191.486" height="191.486" rx="60" transform="matrix(0.866041 -0.499972 0.866041 0.499972 190.524 334.738)" fill="#828282"/>
<rect width="191.486" height="191.486" rx="60" transform="matrix(0.86601 0.500028 3.18351e-05 1 356.208 0)" fill="#6E6E6E"/>
<rect width="191.486" height="191.486" rx="60" transform="matrix(0.86601 -0.500028 -3.18351e-05 1 190.346 95.7483)" fill="#5A5A5A"/>
<rect width="191.486" height="191.486" rx="60" transform="matrix(0.866041 0.499972 -0.866041 0.499972 356.208 191.475)" fill="#AAAAAA"/>
<rect width="191.486" height="191.486" rx="60" transform="matrix(0.86601 0.500028 3.18351e-05 1 190.34 95.7166)" fill="#BEBEBE"/>
<rect width="191.486" height="191.486" rx="60" transform="matrix(0.86601 -0.500028 -3.18351e-05 1 356.208 191.466)" fill="#969696"/>
<rect width="191.486" height="191.486" rx="60" transform="matrix(0.866041 -0.499972 0.866041 0.499972 190.34 95.738)" fill="#828282"/>
</svg>
