<svg width="24" height="30" viewBox="0 0 24 30" fill="none" xmlns="http://www.w3.org/2000/svg">
<style>
  path { fill: #0d0d0b; }
  @media (prefers-color-scheme: dark) {
    path { fill: #f5f5f2; }
  }
</style>
<path d="M18.8724 2H13.2762C11.1628 5.6631 9.05369 9.32621 6.94031 12.9893V2H2.05842V11.4762C1.23421 12.9594 0.824215 13.7031 0 15.1863C0.824215 16.6695 1.23421 17.4133 2.05842 18.8964V29.8302H6.94454V21.5166C7.45175 20.6019 7.70958 20.1446 8.21679 19.2341C10.2794 23.4743 11.3065 25.5943 13.3692 29.8345H19.35C16.6872 24.8762 14.0201 19.9137 11.3573 14.9555C13.8637 10.6384 16.3702 6.32135 18.8766 2.00427L18.8724 2Z"/>
<path d="M23.6798 7.30484C23.7897 4.38547 23.8488 2.92365 23.9587 0H21C21.1183 2.92365 21.1817 4.38547 21.3001 7.30484H23.6798Z"/>
</svg>
