<svg width="3281" height="1894" viewBox="0 0 3281 1894" fill="none" xmlns="http://www.w3.org/2000/svg">
<g clip-path="url(#clip0_775_3219)">
<path d="M-2191.24 784.866L1920.72 3158.73" stroke="#9A9A94" stroke-width="1.5" stroke-dasharray="10 10"/>
<path d="M-2104.64 734.869L2007.33 3108.74" stroke="#9A9A94" stroke-width="1.5" stroke-dasharray="10 10"/>
<path d="M-2018.03 684.871L2093.93 3058.74" stroke="#9A9A94" stroke-width="1.5" stroke-dasharray="10 10"/>
<path d="M-1931.43 634.874L2180.53 3008.74" stroke="#9A9A94" stroke-width="1.5" stroke-dasharray="10 10"/>
<path d="M-1844.83 584.877L2267.14 2958.75" stroke="#9A9A94" stroke-width="1.5" stroke-dasharray="10 10"/>
<path d="M-1758.22 534.879L2353.74 2908.75" stroke="#9A9A94" stroke-width="1.5" stroke-dasharray="10 10"/>
<path d="M-1671.62 484.882L2440.35 2858.75" stroke="#9A9A94" stroke-width="1.5" stroke-dasharray="10 10"/>
<path d="M-1585.01 434.885L2526.95 2808.75" stroke="#9A9A94" stroke-width="1.5" stroke-dasharray="10 10"/>
<path d="M-1498.41 384.888L2613.56 2758.76" stroke="#9A9A94" stroke-width="1.5" stroke-dasharray="10 10"/>
<path d="M-1411.8 334.891L2700.16 2708.76" stroke="#9A9A94" stroke-width="1.5" stroke-dasharray="10 10"/>
<path d="M-1325.2 284.893L2786.76 2658.76" stroke="#9A9A94" stroke-width="1.5" stroke-dasharray="10 10"/>
<path d="M-1238.6 234.896L2873.37 2608.77" stroke="#9A9A94" stroke-width="1.5" stroke-dasharray="10 10"/>
<path d="M-1151.99 184.899L2959.97 2558.77" stroke="#9A9A94" stroke-width="1.5" stroke-dasharray="10 10"/>
<path d="M-1065.39 134.901L3046.58 2508.77" stroke="#9A9A94" stroke-width="1.5" stroke-dasharray="10 10"/>
<path d="M-978.785 84.9044L3133.18 2458.77" stroke="#9A9A94" stroke-width="1.5" stroke-dasharray="10 10"/>
<path d="M-892.18 34.9073L3219.78 2408.78" stroke="#9A9A94" stroke-width="1.5" stroke-dasharray="10 10"/>
<path d="M-805.576 -15.0902L3306.39 2358.78" stroke="#9A9A94" stroke-width="1.5" stroke-dasharray="10 10"/>
<path d="M-718.973 -65.0873L3392.99 2308.78" stroke="#9A9A94" stroke-width="1.5" stroke-dasharray="10 10"/>
<path d="M-632.367 -115.084L3479.6 2258.78" stroke="#9A9A94" stroke-width="1.5" stroke-dasharray="10 10"/>
<path d="M-545.764 -165.082L3566.2 2208.79" stroke="#9A9A94" stroke-width="1.5" stroke-dasharray="10 10"/>
<path d="M-459.16 -215.079L3652.8 2158.79" stroke="#9A9A94" stroke-width="1.5" stroke-dasharray="10 10"/>
<path d="M-372.555 -265.076L3739.41 2108.79" stroke="#9A9A94" stroke-width="1.5" stroke-dasharray="10 10"/>
<path d="M-285.951 -315.074L3826.01 2058.8" stroke="#9A9A94" stroke-width="1.5" stroke-dasharray="10 10"/>
<path d="M-199.348 -365.071L3912.62 2008.8" stroke="#9A9A94" stroke-width="1.5" stroke-dasharray="10 10"/>
<path d="M-112.742 -415.068L3999.22 1958.8" stroke="#9A9A94" stroke-width="1.5" stroke-dasharray="10 10"/>
<path d="M-26.1387 -465.065L4085.83 1908.8" stroke="#9A9A94" stroke-width="1.5" stroke-dasharray="10 10"/>
<path d="M60.4648 -515.062L4172.43 1858.81" stroke="#9A9A94" stroke-width="1.5" stroke-dasharray="10 10"/>
<path d="M147.07 -565.06L4259.03 1808.81" stroke="#9A9A94" stroke-width="1.5" stroke-dasharray="10 10"/>
<path d="M233.674 -615.057L4345.64 1758.81" stroke="#9A9A94" stroke-width="1.5" stroke-dasharray="10 10"/>
<path d="M320.277 -665.054L4432.24 1708.81" stroke="#9A9A94" stroke-width="1.5" stroke-dasharray="10 10"/>
<path d="M406.883 -715.051L4518.85 1658.82" stroke="#9A9A94" stroke-width="1.5" stroke-dasharray="10 10"/>
<path d="M493.486 -765.049L4605.45 1608.82" stroke="#9A9A94" stroke-width="1.5" stroke-dasharray="10 10"/>
<path d="M580.09 -815.046L4692.05 1558.82" stroke="#9A9A94" stroke-width="1.5" stroke-dasharray="10 10"/>
<path d="M666.695 -865.043L4778.66 1508.83" stroke="#9A9A94" stroke-width="1.5" stroke-dasharray="10 10"/>
<path d="M753.299 -915.04L4865.26 1458.83" stroke="#9A9A94" stroke-width="1.5" stroke-dasharray="10 10"/>
<path d="M839.902 -965.038L4951.87 1408.83" stroke="#9A9A94" stroke-width="1.5" stroke-dasharray="10 10"/>
<path d="M926.508 -1015.04L5038.47 1358.83" stroke="#9A9A94" stroke-width="1.5" stroke-dasharray="10 10"/>
<path d="M1013.11 -1065.03L5125.08 1308.84" stroke="#9A9A94" stroke-width="1.5" stroke-dasharray="10 10"/>
<path d="M1099.71 -1115.03L5211.68 1258.84" stroke="#9A9A94" stroke-width="1.5" stroke-dasharray="10 10"/>
<path d="M1186.32 -1165.03L5298.28 1208.84" stroke="#9A9A94" stroke-width="1.5" stroke-dasharray="10 10"/>
<path d="M1272.92 -1215.02L5384.89 1158.85" stroke="#9A9A94" stroke-width="1.5" stroke-dasharray="10 10"/>
<path d="M1359.53 -1265.02L5471.49 1108.85" stroke="#9A9A94" stroke-width="1.5" stroke-dasharray="10 10"/>
<path d="M1920.72 -1265.02L-2191.24 1108.85" stroke="#9A9A94" stroke-width="1.5" stroke-dasharray="10 10"/>
<path d="M2007.33 -1215.02L-2104.64 1158.85" stroke="#9A9A94" stroke-width="1.5" stroke-dasharray="10 10"/>
<path d="M2093.93 -1165.03L-2018.03 1208.84" stroke="#9A9A94" stroke-width="1.5" stroke-dasharray="10 10"/>
<path d="M2180.54 -1115.03L-1931.43 1258.84" stroke="#9A9A94" stroke-width="1.5" stroke-dasharray="10 10"/>
<path d="M2267.14 -1065.03L-1844.83 1308.84" stroke="#9A9A94" stroke-width="1.5" stroke-dasharray="10 10"/>
<path d="M2353.74 -1015.03L-1758.22 1358.83" stroke="#9A9A94" stroke-width="1.5" stroke-dasharray="10 10"/>
<path d="M2440.35 -965.037L-1671.62 1408.83" stroke="#9A9A94" stroke-width="1.5" stroke-dasharray="10 10"/>
<path d="M2526.95 -915.04L-1585.01 1458.83" stroke="#9A9A94" stroke-width="1.5" stroke-dasharray="10 10"/>
<path d="M2613.56 -865.043L-1498.41 1508.83" stroke="#9A9A94" stroke-width="1.5" stroke-dasharray="10 10"/>
<path d="M2700.16 -815.046L-1411.8 1558.82" stroke="#9A9A94" stroke-width="1.5" stroke-dasharray="10 10"/>
<path d="M2786.76 -765.048L-1325.2 1608.82" stroke="#9A9A94" stroke-width="1.5" stroke-dasharray="10 10"/>
<path d="M2873.37 -715.051L-1238.6 1658.82" stroke="#9A9A94" stroke-width="1.5" stroke-dasharray="10 10"/>
<path d="M2959.97 -665.054L-1151.99 1708.82" stroke="#9A9A94" stroke-width="1.5" stroke-dasharray="10 10"/>
<path d="M3046.58 -615.057L-1065.39 1758.81" stroke="#9A9A94" stroke-width="1.5" stroke-dasharray="10 10"/>
<path d="M3133.18 -565.059L-978.785 1808.81" stroke="#9A9A94" stroke-width="1.5" stroke-dasharray="10 10"/>
<path d="M3219.79 -515.062L-892.18 1858.81" stroke="#9A9A94" stroke-width="1.5" stroke-dasharray="10 10"/>
<path d="M3306.39 -465.065L-805.576 1908.8" stroke="#9A9A94" stroke-width="1.5" stroke-dasharray="10 10"/>
<path d="M3392.99 -415.068L-718.973 1958.8" stroke="#9A9A94" stroke-width="1.5" stroke-dasharray="10 10"/>
<path d="M3479.6 -365.07L-632.367 2008.8" stroke="#9A9A94" stroke-width="1.5" stroke-dasharray="10 10"/>
<path d="M3566.2 -315.073L-545.764 2058.8" stroke="#9A9A94" stroke-width="1.5" stroke-dasharray="10 10"/>
<path d="M3652.8 -265.076L-459.16 2108.79" stroke="#9A9A94" stroke-width="1.5" stroke-dasharray="10 10"/>
<path d="M3739.41 -215.079L-372.555 2158.79" stroke="#9A9A94" stroke-width="1.5" stroke-dasharray="10 10"/>
<path d="M3826.01 -165.081L-285.951 2208.79" stroke="#9A9A94" stroke-width="1.5" stroke-dasharray="10 10"/>
<path d="M3912.62 -115.084L-199.348 2258.78" stroke="#9A9A94" stroke-width="1.5" stroke-dasharray="10 10"/>
<path d="M3999.22 -65.0868L-112.742 2308.78" stroke="#9A9A94" stroke-width="1.5" stroke-dasharray="10 10"/>
<path d="M4085.83 -15.0897L-26.1388 2358.78" stroke="#9A9A94" stroke-width="1.5" stroke-dasharray="10 10"/>
<path d="M4172.43 34.9073L60.4647 2408.78" stroke="#9A9A94" stroke-width="1.5" stroke-dasharray="10 10"/>
<path d="M4259.04 84.9049L147.07 2458.77" stroke="#9A9A94" stroke-width="1.5" stroke-dasharray="10 10"/>
<path d="M4345.64 134.902L233.674 2508.77" stroke="#9A9A94" stroke-width="1.5" stroke-dasharray="10 10"/>
<path d="M4432.24 184.899L320.277 2558.77" stroke="#9A9A94" stroke-width="1.5" stroke-dasharray="10 10"/>
<path d="M4518.85 234.897L406.883 2608.77" stroke="#9A9A94" stroke-width="1.5" stroke-dasharray="10 10"/>
<path d="M4605.45 284.894L493.486 2658.76" stroke="#9A9A94" stroke-width="1.5" stroke-dasharray="10 10"/>
<path d="M4692.05 334.891L580.09 2708.76" stroke="#9A9A94" stroke-width="1.5" stroke-dasharray="10 10"/>
<path d="M4778.66 384.888L666.693 2758.76" stroke="#9A9A94" stroke-width="1.5" stroke-dasharray="10 10"/>
<path d="M4865.26 434.885L753.299 2808.75" stroke="#9A9A94" stroke-width="1.5" stroke-dasharray="10 10"/>
<path d="M4951.87 484.883L839.902 2858.75" stroke="#9A9A94" stroke-width="1.5" stroke-dasharray="10 10"/>
<path d="M5038.47 534.88L926.506 2908.75" stroke="#9A9A94" stroke-width="1.5" stroke-dasharray="10 10"/>
<path d="M5125.08 584.877L1013.11 2958.75" stroke="#9A9A94" stroke-width="1.5" stroke-dasharray="10 10"/>
<path d="M5211.68 634.875L1099.71 3008.74" stroke="#9A9A94" stroke-width="1.5" stroke-dasharray="10 10"/>
<path d="M5298.28 684.872L1186.32 3058.74" stroke="#9A9A94" stroke-width="1.5" stroke-dasharray="10 10"/>
<path d="M5384.89 734.869L1272.92 3108.74" stroke="#9A9A94" stroke-width="1.5" stroke-dasharray="10 10"/>
<path d="M5471.49 784.866L1359.53 3158.74" stroke="#9A9A94" stroke-width="1.5" stroke-dasharray="10 10"/>
</g>
<defs>
<clipPath id="clip0_775_3219">
<rect width="1893.82" height="1893.82" fill="white" transform="matrix(0.866041 -0.499972 0.866041 0.499972 0 946.857)"/>
</clipPath>
</defs>
</svg>
