<?xml version="1.0" encoding="UTF-8"?><svg id="Capa_1" xmlns="http://www.w3.org/2000/svg" width="23.56in" height="10.94in" xmlns:xlink="http://www.w3.org/1999/xlink" viewBox="0 0 1696.32 787.68"><defs><style>.cls-1,.cls-2,.cls-3,.cls-4{stroke:#2075ff;}.cls-1,.cls-5{fill:#71adfc;}.cls-6{fill:#f5f5f2;}.cls-6,.cls-2,.cls-3,.cls-7,.cls-8{stroke-width:1.5px;}.cls-6,.cls-7,.cls-8{stroke:#9a9a94;}.cls-9,.cls-8{fill:#fff;}.cls-10{mask:url(#mask);}.cls-2,.cls-11,.cls-7{fill:none;}.cls-12{fill:#2075ff;}.cls-13{opacity:.1;}.cls-13,.cls-14{fill:#9a9a94;}.cls-3,.cls-15,.cls-4{fill:#e8f1fd;}.cls-16{clip-path:url(#clippath);}.cls-17{fill:#d9d9d9;}</style><clipPath id="clippath"><path class="cls-11" d="M534.98,583.12l133.04,76.81c1.72.99,1.72,2.6,0,3.59l-132.27,76.36c-1.72.99-4.51.99-6.22,0l-133.04-76.81c-1.72-.99-1.72-2.6,0-3.59l132.27-76.36c1.72-.99,4.51-.99,6.22,0Z"/></clipPath><mask id="mask" x="503.08" y="581.32" width="168.06" height="97.02" maskUnits="userSpaceOnUse"><g id="path-34-inside-1_768_3001"><path class="cls-9" d="M531.87,581.32l139.27,80.4-28.01,16.17-139.27-80.4,28.01-16.17Z"/></g></mask></defs><polygon class="cls-13" points="1526.1 452.74 1498.14 469.12 1258.93 330.33 1289.11 315.12 1526.1 452.74"/><polygon class="cls-13" points="66.61 671.57 95.19 686.67 338.97 545.59 310.93 533.39 66.61 671.57"/><path class="cls-13" d="M1464.81,517.15l-232.23,147.75,165.57,91.64c6.91,3.82,15.33,3.68,22.11-.37l220.88-132.02-176.33-107Z"/><path class="cls-13" d="M386.11,695.14l143.8,83.52c3.7,2.15,8.26,2.14,11.96-.01l139.11-81.12-151.05-85.88-143.82,83.5Z"/><path class="cls-13" d="M565.87,482.09l302.85,175.89c17.13,9.95,38.35,9.71,55.25-.63l299.63-183.27-345.84-255.52-311.88,263.53Z"/><path class="cls-3" d="M1205.08,463.32l-281.34,169.35c-17.34,10.44-39,10.58-56.48.37l-283.97-165.92v-72.95s317.81,125.87,317.81,125.87l.26.1.26-.11,303.46-126.32v69.61Z"/><path class="cls-8" d="M1205.08,436.42l-284.06,171.66c-15.65,9.46-35.23,9.59-51,.33l-286.72-168.18v-73.24s317.8,126.36,317.8,126.36l.26.1.26-.11,303.46-126.81v69.89Z"/><path class="cls-3" d="M585.34,362.64l302.97-174.91c3.19-1.84,8.35-1.84,11.54,0l302.97,174.91c3.19,1.84,3.19,4.82,0,6.66l-302.97,174.91c-3.19,1.84-8.35,1.84-11.54,0l-302.97-174.91c-3.19-1.84-3.19-4.82,0-6.66Z"/><path class="cls-2" d="M1205.08,436.42l-284.06,171.66c-15.65,9.46-35.23,9.59-51,.33l-286.72-168.18"/><line class="cls-8" x1="879.13" y1="538.96" x2="879.13" y2="612.5"/><line class="cls-8" x1="912.89" y1="536.69" x2="912.89" y2="612.02"/><line id="connector3" class="cls-7" x1="527.02" y1="663.36" x2="771.38" y2="513.43"/><path class="cls-6" d="M668.76,690.22l-131.66,76.74c-1.81,1.05-4.04,1.06-5.85.02l-135.62-78.11v-26.97l131.04,42.93.13.04.13-.04,141.82-42.95v28.33Z"/><g class="cls-16"><path class="cls-9" d="M534.98,583.12l133.04,76.81c1.72.99,1.72,2.6,0,3.59l-132.27,76.36c-1.72.99-4.51.99-6.22,0l-133.04-76.81c-1.72-.99-1.72-2.6,0-3.59l132.27-76.36c1.72-.99,4.51-.99,6.22,0Z"/><g class="cls-10"><path class="cls-14" d="M643.13,677.89l.78-.45-139.27-80.4-.78.45-.77.45,139.26,80.4.78-.45Z"/></g><path class="cls-7" d="M535.96,595.14c2.26,1.3,2.26,3.41,0,4.72s-5.91,1.3-8.17,0-2.26-3.41,0-4.72,5.91-1.3,8.17,0Z"/><path class="cls-7" d="M555.41,606.37c2.26,1.3,2.26,3.41,0,4.72s-5.91,1.3-8.17,0-2.26-3.41,0-4.72,5.91-1.3,8.17,0Z"/><path class="cls-7" d="M574.86,617.6c2.26,1.3,2.26,3.41,0,4.72s-5.91,1.3-8.17,0c-2.26-1.3-2.26-3.41,0-4.72s5.91-1.3,8.17,0Z"/><path class="cls-1" d="M498.6,627.93c2.9,1.67,2.9,4.39,0,6.06s-7.6,1.67-10.5,0-2.9-4.39,0-6.06c2.9-1.67,7.6-1.67,10.5,0Z"/><path class="cls-17" d="M509.31,637.47l72.36,41.78c1.29.74,1.29,1.95,0,2.7h0c-1.29.74-3.38.74-4.67,0l-72.36-41.78c-1.29-.74-1.29-1.95,0-2.7h0c1.29-.74,3.38-.74,4.67,0Z"/><path class="cls-7" d="M477.6,640.06c2.9,1.67,2.9,4.39,0,6.06s-7.6,1.67-10.5,0-2.9-4.39,0-6.06c2.9-1.67,7.6-1.67,10.5,0Z"/><path class="cls-17" d="M488.29,649.6l54.47,31.44c1.29.74,1.29,1.95,0,2.7h0c-1.29.74-3.38.74-4.67,0l-54.47-31.44c-1.29-.74-1.29-1.95,0-2.7h0c1.29-.74,3.38-.74,4.67,0Z"/><path class="cls-7" d="M456.59,652.19c2.9,1.67,2.9,4.39,0,6.06-2.9,1.67-7.6,1.67-10.5,0s-2.9-4.39,0-6.06,7.6-1.67,10.5,0Z"/><path class="cls-17" d="M467.29,661.73l78.59,45.37c1.29.74,1.29,1.95,0,2.7h0c-1.29.74-3.38.74-4.67,0l-78.59-45.37c-1.29-.74-1.29-1.95,0-2.7h0c1.29-.74,3.38-.74,4.67,0Z"/></g><path class="cls-7" d="M534.59,583.34l133.04,76.81c1.5.87,1.5,2.28,0,3.14l-132.27,76.36c-1.5.87-3.94.87-5.45,0l-133.04-76.81c-1.5-.87-1.5-2.28,0-3.14l132.27-76.36c1.5-.87,3.94-.87,5.45,0Z"/><line class="cls-7" x1="527.02" y1="737.76" x2="527.02" y2="764.75"/><line class="cls-7" x1="539.13" y1="737.76" x2="539.13" y2="765.64"/><polyline id="connector2" class="cls-7" points="263.84 563.44 441.72 459.79 599.87 557.11 716.9 485.61"/><polyline id="connector1" class="cls-7" points="345.17 333.09 589.24 193.58 733.32 277.21"/><path class="cls-8" d="M445.46,27.38l-235.78,226.24-.09.09-.05.12-85.07,222.14-13.35-7.51-.8-254.86c-.01-4.51,2.38-8.68,6.28-10.94L432.19,19.92l13.26,7.46Z"/><path class="cls-8" d="M126.35,211.59L445.16,27.52c1.2-.7,2.18-.13,2.18,1.26v259.63c0,1.39-.99,3.08-2.19,3.78L126.35,476.25c-1.2.7-2.18.13-2.18-1.26V215.37c0-1.39.99-3.08,2.19-3.78Z"/><path class="cls-7" d="M174.04,297.98c1.97-1.14,3.56-.23,3.56,2.01,0,2.24-1.59,4.99-3.56,6.12-1.97,1.14-3.56.23-3.56-2.02,0-2.24,1.59-4.99,3.56-6.12Z"/><path class="cls-7" d="M234.96,256.61c1.97-1.14,3.56-.23,3.56,2.01s-1.59,4.99-3.56,6.12c-1.97,1.14-3.56.23-3.56-2.02s1.59-4.99,3.56-6.12Z"/><path class="cls-7" d="M265.42,220.42c1.97-1.14,3.56-.23,3.56,2.02s-1.59,4.99-3.56,6.12c-1.97,1.14-3.56.23-3.56-2.01,0-2.24,1.59-4.99,3.56-6.12Z"/><path class="cls-7" d="M326.34,170.52c1.97-1.14,3.56-.23,3.56,2.02s-1.59,4.99-3.56,6.12c-1.97,1.14-3.56.23-3.56-2.01s1.59-4.99,3.56-6.12Z"/><path class="cls-7" d="M364,172.03c1.97-1.14,3.56-.23,3.56,2.02s-1.59,4.99-3.56,6.12c-1.97,1.14-3.56.23-3.56-2.01s1.59-4.99,3.56-6.12Z"/><path class="cls-7" d="M401.58,125.52c1.97-1.14,3.56-.23,3.56,2.01s-1.59,4.99-3.56,6.12c-1.97,1.14-3.56.23-3.56-2.02s1.59-4.99,3.56-6.12Z"/><path class="cls-7" d="M295.88,216.01c1.97-1.14,3.56-.23,3.56,2.02,0,2.24-1.59,4.99-3.56,6.12-1.97,1.14-3.56.23-3.56-2.01,0-2.24,1.59-4.99,3.56-6.12Z"/><path class="cls-7" d="M204.5,264.9c1.97-1.14,3.56-.23,3.56,2.01s-1.59,4.99-3.56,6.12c-1.97,1.14-3.56.23-3.56-2.02s1.59-4.99,3.56-6.12Z"/><path class="cls-7" d="M177.42,298.55l23.69-26.08"/><path class="cls-7" d="M207.88,268.56l23.69-7.48"/><path class="cls-7" d="M268.13,225.25l24.37-4.77"/><path class="cls-7" d="M262.03,227.99l-24.37,28.8"/><path class="cls-7" d="M323.63,179.25l-25.05,36.94"/><path class="cls-7" d="M329.73,174.18l30.88,1.55"/><path class="cls-7" d="M398.87,133.49l-31.55,38.37"/><path class="cls-1" d="M169.98,336.18c0-1.71,1.2-3.79,2.68-4.65l9.4-5.43c1.48-.86,2.68-.16,2.68,1.55v71.31s-14.77,8.53-14.77,8.53v-71.31Z"/><path class="cls-17" d="M201.52,344.31c0-1.71,1.2-3.79,2.68-4.65l9.4-5.43c1.48-.86,2.68-.16,2.68,1.55v44.95s-14.77,8.53-14.77,8.53v-44.95Z"/><path class="cls-1" d="M233.07,310.6c0-1.71,1.2-3.79,2.68-4.65l9.4-5.43c1.48-.86,2.68-.16,2.68,1.55v60.46s-14.77,8.53-14.77,8.53v-60.46Z"/><path class="cls-17" d="M264.62,343.54c0-1.71,1.2-3.79,2.68-4.65l9.4-5.43c1.48-.86,2.68-.16,2.68,1.55v9.3l-14.77,8.53v-9.3Z"/><path class="cls-17" d="M296.16,298.97c0-1.71,1.2-3.79,2.69-4.65l9.4-5.43c1.48-.86,2.68-.16,2.68,1.55v35.65s-14.77,8.53-14.77,8.53v-35.65Z"/><path class="cls-17" d="M327.71,293.15c0-1.71,1.2-3.79,2.68-4.65l9.4-5.43c1.48-.86,2.68-.16,2.68,1.55v23.25s-14.77,8.53-14.77,8.53v-23.25Z"/><path class="cls-17" d="M359.26,253.24c0-1.71,1.2-3.79,2.68-4.65l9.4-5.43c1.48-.86,2.68-.16,2.68,1.55v44.95s-14.77,8.53-14.77,8.53v-44.95Z"/><path class="cls-1" d="M390.81,219.52c0-1.71,1.2-3.79,2.68-4.65l9.4-5.43c1.48-.86,2.68-.16,2.68,1.55v60.46s-14.77,8.53-14.77,8.53v-60.46Z"/><path class="cls-7" d="M408.24,274.55l-244.3,141.06v-153.45"/><path class="cls-17" d="M167.97,226.51l91.28-52.7c2.22-1.28,4.03-.24,4.03,2.32h0c0,2.57-1.8,5.69-4.03,6.98l-91.28,52.7c-2.22,1.28-4.03.24-4.03-2.32h0c0-2.57,1.8-5.69,4.03-6.98Z"/><line class="cls-8" x1="124.16" y1="220.98" x2="110.31" y2="215.79"/><line class="cls-8" x1="129.76" y1="209.62" x2="114.25" y2="204.43"/><path class="cls-6" d="M526.58,170.99c5.19-3.11,11.61-3.35,17.02-.65l4.18,2.09-82.87,85.04-.13.14-.04.19-21.28,104.21-8.34-2.57c-4.49-1.38-7.56-5.53-7.56-10.24v-100.93c0-11.14,5.85-21.46,15.4-27.19l83.62-50.1Z"/><path class="cls-7" d="M450.79,224.92l87.82-50.71c8.05-4.65,14.58-.88,14.57,8.41v101.41c0,9.3-6.53,20.6-14.58,25.25l-87.82,50.71c-8.05,4.65-14.58.88-14.57-8.41v-101.41c0-9.3,6.53-20.6,14.58-25.25Z"/><path class="cls-8" d="M450.79,224.92l87.82-50.71c8.05-4.65,14.58-.88,14.57,8.41v101.41c0,9.3-6.53,20.6-14.58,25.25l-87.82,50.71c-8.05,4.65-14.58.88-14.57-8.41v-101.41c0-9.3,6.53-20.6,14.58-25.25Z"/><path class="cls-12" d="M522.21,210.12c10.63,3.36,17.47,14.29,17.47,31.01,0,28.69-20.14,63.57-44.98,77.91v-18.89c15.81-9.13,28.63-31.33,28.63-49.58,0-11.51-5.1-18.71-12.83-20.16l11.72-20.29Z"/><path class="cls-1" d="M471.97,260.13c-3.7,7.7-5.9,15.94-5.9,23.5,0,17.35,11.57,24.89,26.29,17.77v18.93c-23.76,12.31-42.64.53-42.64-27.25,0-12.08,3.57-25.25,9.56-37.53l12.7,4.58Z"/><path class="cls-4" d="M494.7,215.16c9.51-5.49,18.34-7.18,25.61-5.55l-11.87,20.56c-4.08-.23-8.76,1.01-13.74,3.88-8.44,4.87-16.03,13.48-21.27,23.22l-12.71-4.59c8.25-15.73,20.41-29.68,33.98-37.52Z"/><line class="cls-8" x1="447.95" y1="226.88" x2="440.05" y2="223.06"/><line class="cls-8" x1="436.22" y1="249.73" x2="427.7" y2="245.28"/><path class="cls-6" d="M327.32,358.63l-127.96,176.52-107.13,140.84-17.77-9.72v-176.01c.17-4.98,2.9-9.54,7.23-12.04l226.39-130.7,19.24,11.11Z"/><path class="cls-8" d="M93.77,492.31l232.04-133.98c.89-.51,1.61-.1,1.61.93v180.34c0,1.03-.73,2.28-1.62,2.79l-232.04,133.98c-.89.51-1.61.1-1.61-.93v-180.34c0-1.03.73-2.28,1.62-2.79Z"/><path class="cls-17" d="M121.04,497.32l118.51-68.43c3.29-1.9,5.95-.36,5.95,3.44h0c0,3.79-2.66,8.41-5.95,10.31l-118.51,68.43c-3.29,1.9-5.95.36-5.95-3.44h0c0-3.79,2.66-8.41,5.95-10.31Z"/><path class="cls-17" d="M119.05,528.81l79.34-45.81c2.19-1.26,3.97-.24,3.97,2.29h0c0,2.53-1.78,5.61-3.97,6.87l-79.34,45.81c-2.19,1.26-3.97.24-3.97-2.29h0c0-2.53,1.78-5.61,3.97-6.87Z"/><path class="cls-17" d="M119.05,548.85l16.86-9.73c2.19-1.26,3.97-.24,3.97,2.29h0c0,2.53-1.78,5.61-3.97,6.87l-16.86,9.73c-2.19,1.26-3.97.24-3.97-2.29h0c0-2.53,1.78-5.61,3.97-6.87Z"/><path class="cls-17" d="M153.76,528.23c2.46-1.42,4.46-.27,4.46,2.58s-2,6.31-4.46,7.73-4.46.27-4.46-2.58,2-6.31,4.46-7.73Z"/><path class="cls-17" d="M172.11,517.64c2.46-1.42,4.46-.27,4.46,2.58s-2,6.31-4.46,7.73-4.46.27-4.46-2.58,2-6.31,4.46-7.73Z"/><path class="cls-17" d="M190.46,507.05c2.46-1.42,4.46-.27,4.46,2.58s-2,6.31-4.46,7.73-4.46.27-4.46-2.58,2-6.31,4.46-7.73Z"/><path class="cls-17" d="M208.8,496.45c2.46-1.42,4.46-.27,4.46,2.58s-2,6.31-4.46,7.73c-2.46,1.42-4.46.27-4.46-2.58s2-6.31,4.46-7.73Z"/><path class="cls-17" d="M227.15,485.86c2.46-1.42,4.46-.27,4.46,2.58s-2,6.31-4.46,7.73-4.46.27-4.46-2.58,2-6.31,4.46-7.73Z"/><path class="cls-15" d="M245.5,475.27c2.46-1.42,4.46-.27,4.46,2.58s-2,6.31-4.46,7.73-4.46.27-4.46-2.58,2-6.31,4.46-7.73Z"/><path class="cls-15" d="M263.84,464.67c2.46-1.42,4.46-.27,4.46,2.58s-2,6.31-4.46,7.73-4.46.27-4.46-2.58,2-6.31,4.46-7.73Z"/><path class="cls-5" d="M282.19,454.08c2.46-1.42,4.46-.27,4.46,2.58s-2,6.31-4.46,7.73-4.46.27-4.46-2.58,2-6.31,4.46-7.73Z"/><path class="cls-5" d="M300.54,443.49c2.46-1.42,4.46-.27,4.46,2.58s-2,6.31-4.46,7.73c-2.46,1.42-4.46.27-4.46-2.58s2-6.31,4.46-7.73Z"/><path class="cls-17" d="M119.05,569.46l16.86-9.73c2.19-1.26,3.97-.24,3.97,2.29h0c0,2.53-1.78,5.61-3.97,6.87l-16.86,9.73c-2.19,1.26-3.97.24-3.97-2.29h0c0-2.53,1.78-5.61,3.97-6.87Z"/><path class="cls-15" d="M153.76,548.85c2.46-1.42,4.46-.27,4.46,2.58s-2,6.31-4.46,7.73-4.46.27-4.46-2.58,2-6.31,4.46-7.73Z"/><path class="cls-15" d="M172.11,538.25c2.46-1.42,4.46-.27,4.46,2.58s-2,6.31-4.46,7.73-4.46.27-4.46-2.58,2-6.31,4.46-7.73Z"/><path class="cls-5" d="M190.46,527.66c2.46-1.42,4.46-.27,4.46,2.58s-2,6.31-4.46,7.73-4.46.27-4.46-2.58,2-6.31,4.46-7.73Z"/><path class="cls-5" d="M208.8,517.07c2.46-1.42,4.46-.27,4.46,2.58s-2,6.31-4.46,7.73-4.46.27-4.46-2.58,2-6.31,4.46-7.73Z"/><path class="cls-5" d="M227.15,506.47c2.46-1.42,4.46-.27,4.46,2.58s-2,6.31-4.46,7.73-4.46.27-4.46-2.58,2-6.31,4.46-7.73Z"/><path class="cls-17" d="M245.5,495.88c2.46-1.42,4.46-.27,4.46,2.58s-2,6.31-4.46,7.73-4.46.27-4.46-2.58,2-6.31,4.46-7.73Z"/><path class="cls-17" d="M263.84,485.29c2.46-1.42,4.46-.27,4.46,2.58s-2,6.31-4.46,7.73-4.46.27-4.46-2.58,2-6.31,4.46-7.73Z"/><path class="cls-17" d="M282.19,474.69c2.46-1.42,4.46-.27,4.46,2.58s-2,6.31-4.46,7.73-4.46.27-4.46-2.58,2-6.31,4.46-7.73Z"/><path class="cls-17" d="M300.54,464.1c2.46-1.42,4.46-.27,4.46,2.58s-2,6.31-4.46,7.73c-2.46,1.42-4.46.27-4.46-2.58s2-6.31,4.46-7.73Z"/><path class="cls-17" d="M119.05,590.07l16.86-9.73c2.19-1.26,3.97-.24,3.97,2.29h0c0,2.53-1.78,5.61-3.97,6.87l-16.86,9.73c-2.19,1.26-3.97.24-3.97-2.29h0c0-2.53,1.78-5.61,3.97-6.87Z"/><path class="cls-17" d="M153.76,569.46c2.46-1.42,4.46-.27,4.46,2.58s-2,6.31-4.46,7.73-4.46.27-4.46-2.58,2-6.31,4.46-7.73Z"/><path class="cls-17" d="M172.11,558.87c2.46-1.42,4.46-.27,4.46,2.58s-2,6.31-4.46,7.73-4.46.27-4.46-2.58,2-6.31,4.46-7.73Z"/><path class="cls-17" d="M190.45,548.27c2.46-1.42,4.46-.27,4.46,2.58s-2,6.31-4.46,7.73c-2.46,1.42-4.46.27-4.46-2.58s2-6.31,4.46-7.73Z"/><path class="cls-17" d="M208.8,537.68c2.46-1.42,4.46-.27,4.46,2.58s-2,6.31-4.46,7.73c-2.46,1.42-4.46.27-4.46-2.58s2-6.31,4.46-7.73Z"/><path class="cls-17" d="M227.15,527.09c2.46-1.42,4.46-.27,4.46,2.58s-2,6.31-4.46,7.73c-2.46,1.42-4.46.27-4.46-2.58s2-6.31,4.46-7.73Z"/><path class="cls-17" d="M245.5,516.49c2.46-1.42,4.46-.27,4.46,2.58s-2,6.31-4.46,7.73c-2.46,1.42-4.46.27-4.46-2.58s2-6.31,4.46-7.73Z"/><path class="cls-17" d="M263.84,505.9c2.46-1.42,4.46-.27,4.46,2.58s-2,6.31-4.46,7.73c-2.46,1.42-4.46.27-4.46-2.58s2-6.31,4.46-7.73Z"/><path class="cls-17" d="M282.19,495.31c2.46-1.42,4.46-.27,4.46,2.58s-2,6.31-4.46,7.73-4.46.27-4.46-2.58,2-6.31,4.46-7.73Z"/><path class="cls-17" d="M300.54,484.71c2.46-1.42,4.46-.27,4.46,2.58s-2,6.31-4.46,7.73-4.46.27-4.46-2.58,2-6.31,4.46-7.73Z"/><path class="cls-17" d="M119.05,610.68l16.86-9.73c2.19-1.26,3.97-.24,3.97,2.29h0c0,2.53-1.78,5.61-3.97,6.87l-16.86,9.73c-2.19,1.26-3.97.24-3.97-2.29h0c0-2.53,1.78-5.61,3.97-6.87Z"/><path class="cls-17" d="M153.76,590.07c2.46-1.42,4.46-.27,4.46,2.58s-2,6.31-4.46,7.73-4.46.27-4.46-2.58,2-6.31,4.46-7.73Z"/><path class="cls-17" d="M172.11,579.48c2.46-1.42,4.46-.27,4.46,2.58s-2,6.31-4.46,7.73c-2.46,1.42-4.46.27-4.46-2.58s2-6.31,4.46-7.73Z"/><path class="cls-17" d="M190.45,568.88c2.46-1.42,4.46-.27,4.46,2.58s-2,6.31-4.46,7.73c-2.46,1.42-4.46.27-4.46-2.58s2-6.31,4.46-7.73Z"/><path class="cls-17" d="M208.8,558.29c2.46-1.42,4.46-.27,4.46,2.58s-2,6.31-4.46,7.73c-2.46,1.42-4.46.27-4.46-2.58s2-6.31,4.46-7.73Z"/><path class="cls-17" d="M227.15,547.7c2.46-1.42,4.46-.27,4.46,2.58s-2,6.31-4.46,7.73c-2.46,1.42-4.46.27-4.46-2.58s2-6.31,4.46-7.73Z"/><path class="cls-17" d="M245.49,537.11c2.46-1.42,4.46-.27,4.46,2.58s-2,6.31-4.46,7.73c-2.46,1.42-4.46.27-4.46-2.58s2-6.31,4.46-7.73Z"/><path class="cls-17" d="M263.84,526.51c2.46-1.42,4.46-.27,4.46,2.58s-2,6.31-4.46,7.73c-2.46,1.42-4.46.27-4.46-2.58s2-6.31,4.46-7.73Z"/><path class="cls-17" d="M282.19,515.92c2.46-1.42,4.46-.27,4.46,2.58s-2,6.31-4.46,7.73c-2.46,1.42-4.46.27-4.46-2.58s2-6.31,4.46-7.73Z"/><path class="cls-17" d="M300.53,505.33c2.46-1.42,4.46-.27,4.46,2.58s-2,6.31-4.46,7.73-4.46.27-4.46-2.58,2-6.31,4.46-7.73Z"/><path class="cls-17" d="M119.05,631.3l16.86-9.73c2.19-1.26,3.97-.24,3.97,2.29h0c0,2.53-1.78,5.61-3.97,6.87l-16.86,9.73c-2.19,1.26-3.97.24-3.97-2.29h0c0-2.53,1.78-5.61,3.97-6.87Z"/><path class="cls-17" d="M153.76,610.68c2.46-1.42,4.46-.27,4.46,2.58s-2,6.31-4.46,7.73-4.46.27-4.46-2.58,2-6.31,4.46-7.73Z"/><path class="cls-17" d="M172.11,600.09c2.46-1.42,4.46-.27,4.46,2.58s-2,6.31-4.46,7.73c-2.46,1.42-4.46.27-4.46-2.58s2-6.31,4.46-7.73Z"/><path class="cls-17" d="M190.45,589.5c2.46-1.42,4.46-.27,4.46,2.58s-2,6.31-4.46,7.73-4.46.27-4.46-2.58,2-6.31,4.46-7.73Z"/><path class="cls-17" d="M208.8,578.9c2.46-1.42,4.46-.27,4.46,2.58s-2,6.31-4.46,7.73c-2.46,1.42-4.46.27-4.46-2.58s2-6.31,4.46-7.73Z"/><path class="cls-17" d="M227.15,568.31c2.46-1.42,4.46-.27,4.46,2.58s-2,6.31-4.46,7.73-4.46.27-4.46-2.58,2-6.31,4.46-7.73Z"/><path class="cls-17" d="M245.49,557.72c2.46-1.42,4.46-.27,4.46,2.58s-2,6.31-4.46,7.73-4.46.27-4.46-2.58,2-6.31,4.46-7.73Z"/><path class="cls-17" d="M263.84,547.12c2.46-1.42,4.46-.27,4.46,2.58s-2,6.31-4.46,7.73-4.46.27-4.46-2.58,2-6.31,4.46-7.73Z"/><path class="cls-17" d="M282.19,536.53c2.46-1.42,4.46-.27,4.46,2.58s-2,6.31-4.46,7.73-4.46.27-4.46-2.58,2-6.31,4.46-7.73Z"/><path class="cls-17" d="M300.53,525.94c2.46-1.42,4.46-.27,4.46,2.58s-2,6.31-4.46,7.73-4.46.27-4.46-2.58,2-6.31,4.46-7.73Z"/><line class="cls-8" x1="98.23" y1="489.74" x2="78.8" y2="480.42"/><line class="cls-8" x1="92.16" y1="499.68" x2="74.46" y2="491.96"/><line id="connector4" class="cls-7" x1="1384.31" y1="686.37" x2="1064.49" y2="493.29"/><path class="cls-8" d="M1629.33,618.92l-215.41,124.38c-4.6,2.66-10.28,2.66-14.88,0l-153.34-88.54v-21.42l160.61,61.19.18.07.18-.08,222.66-96.98v21.39Z"/><path class="cls-8" d="M1247.59,632.36l218.89-126.37c.99-.57,2.61-.57,3.6,0l157.38,90.86c.99.57.99,1.51,0,2.08l-218.89,126.37c-.99.57-2.61.57-3.6,0l-157.38-90.86c-.99-.57-.99-1.51,0-2.08Z"/><path class="cls-17" d="M1290.95,626.05l47.11-27.2c2.45-1.41,6.42-1.41,8.87,0h0c2.45,1.41,2.45,3.71,0,5.12l-47.11,27.2c-2.45,1.41-6.42,1.41-8.87,0h0c-2.45-1.41-2.45-3.71,0-5.12Z"/><path class="cls-14" d="M1332.89,653.31l-1.79,1.03-8.93-11.13,1.76-1.02,19.29,5.15-1.79,1.03-16.09-4.42-.11.06,7.66,9.29ZM1328.05,649.75l7.22-4.17,1.52.87-7.22,4.17-1.52-.87Z"/><path class="cls-17" d="M1348.37,631.12l58.19-33.59c2.45-1.41,6.42-1.41,8.87,0h0c2.45,1.41,2.45,3.71,0,5.12l-58.19,33.59c-2.45,1.41-6.42,1.41-8.87,0h0c-2.45-1.41-2.45-3.71,0-5.12Z"/><path class="cls-14" d="M1366.83,674.97l-14.11-8.14,4.93-2.85c.98-.57,1.96-.94,2.94-1.11.97-.18,1.9-.19,2.78-.04.88.15,1.66.42,2.35.82.61.35,1,.7,1.18,1.05.18.35.22.69.1,1.03-.11.33-.32.65-.61.94l.14.08c.46-.23,1.05-.4,1.76-.49.71-.09,1.47-.08,2.28.05.81.13,1.58.41,2.33.84.71.41,1.18.87,1.43,1.38.24.51.18,1.06-.18,1.65s-1.1,1.21-2.21,1.85l-5.1,2.94ZM1367.02,673.11l3.39-1.96c1.12-.64,1.69-1.23,1.73-1.75.04-.53-.25-.97-.87-1.32-.48-.28-1.04-.46-1.69-.55-.65-.1-1.32-.08-2.02.04-.7.12-1.35.35-1.97.71l-3.47,2,4.9,2.83ZM1360.63,669.42l3.17-1.83c.51-.3.88-.62,1.09-.98.22-.36.26-.71.14-1.07-.12-.36-.43-.68-.92-.96-.62-.36-1.36-.54-2.23-.54-.87,0-1.77.27-2.71.81l-3.22,1.86,4.68,2.7Z"/><path class="cls-17" d="M1381.77,653.08l58.19-33.59c2.45-1.41,6.42-1.41,8.87,0h0c2.45,1.41,2.45,3.71,0,5.12l-58.19,33.59c-2.45,1.41-6.42,1.41-8.87,0h0c-2.45-1.41-2.45-3.71,0-5.12Z"/><path class="cls-5" d="M1382.98,653.83l46.55-26.88c1.68-.97,4.41-.97,6.1,0h0c1.68.97,1.68,2.55,0,3.52l-46.55,26.88c-1.68.97-4.41.97-6.1,0h0c-1.68-.97-1.68-2.55,0-3.52Z"/><path class="cls-7" d="M1470.91,561.66h0c12.62-7.29,33.09-7.29,45.72,0h0c12.62,7.29,12.62,19.11,0,26.39h0c-12.62,7.29-33.09,7.29-45.72,0h0c-12.62-7.29-12.62-19.11,0-26.39Z"/><path class="cls-14" d="M1495.92,581.76l-14.11-8.14,4.93-2.85c.98-.57,1.96-.94,2.94-1.11.97-.17,1.9-.19,2.78-.04.88.15,1.66.42,2.35.82.61.35,1,.7,1.18,1.05.18.35.22.69.1,1.03-.12.33-.32.65-.61.94l.14.08c.46-.23,1.05-.4,1.76-.49.71-.09,1.47-.08,2.28.05s1.58.41,2.33.84c.71.41,1.18.87,1.43,1.38s.18,1.06-.18,1.65c-.36.59-1.1,1.21-2.21,1.85l-5.1,2.94ZM1496.11,579.9l3.39-1.96c1.12-.64,1.69-1.23,1.73-1.75.04-.53-.26-.97-.87-1.32-.48-.28-1.04-.46-1.69-.55-.65-.1-1.32-.08-2.02.04-.7.12-1.35.35-1.97.71l-3.47,2,4.9,2.83ZM1489.72,576.21l3.17-1.83c.51-.3.88-.62,1.09-.98.22-.36.26-.71.14-1.07-.12-.36-.43-.68-.92-.96-.62-.36-1.36-.54-2.23-.54-.87,0-1.77.27-2.71.81l-3.22,1.86,4.68,2.7Z"/><path class="cls-17" d="M1394.3,688.59l62.63-36.15c1.07-.62,2.81-.62,3.88,0h0c1.07.62,1.07,1.62,0,2.24l-62.63,36.15c-1.07.62-2.81.62-3.88,0h0c-1.07-.62-1.07-1.62,0-2.24Z"/><path class="cls-17" d="M1403.72,694.03l108.63-62.71c1.07-.62,2.81-.62,3.88,0h0c1.07.62,1.07,1.62,0,2.24l-108.63,62.71c-1.07.62-2.81.62-3.88,0h0c-1.07-.62-1.07-1.62,0-2.24Z"/><path class="cls-17" d="M1413.14,699.47l126.36-72.95c1.07-.62,2.81-.62,3.88,0h0c1.07.62,1.07,1.62,0,2.24l-126.36,72.95c-1.07.62-2.81.62-3.88,0h0c-1.07-.62-1.07-1.62,0-2.24Z"/><line class="cls-8" x1="1398.5" y1="721.56" x2="1398.5" y2="743.3"/><line class="cls-8" x1="1413.84" y1="722.26" x2="1413.84" y2="743.3"/><polyline id="connector5" class="cls-7" points="1469.2 424.66 1155.89 240.57 1075.64 289.22"/><path class="cls-6" d="M1291.3,37.95c2.54-1.47,5.67-1.47,8.21,0l217.78,125.73c3.61,2.08,5.84,5.94,5.84,10.1v270.29c-.01,2.68-1.53,5.13-3.92,6.32l-15.62,7.77-32.19-267.87-.02-.18-.15-.11-194.49-143.64,14.56-8.41Z"/><path class="cls-9" d="M1277.36,46.46l224.5,129.62c.9.52,1.62,1.77,1.62,2.81v277.67c0,1.03-.72,1.45-1.61.94l-224.5-129.62c-.9-.52-1.62-1.77-1.62-2.81V47.39c0-1.03.72-1.45,1.61-.94Z"/><path class="cls-7" d="M1277.36,46.46l224.5,129.62c.9.52,1.62,1.77,1.62,2.81v277.67c0,1.03-.72,1.45-1.61.94l-224.5-129.62c-.9-.52-1.62-1.77-1.62-2.81V47.39c0-1.03.72-1.45,1.61-.94Z"/><path class="cls-1" d="M1352.43,127.05c19.82,10.67,37.18,36.89,40.7,61.42l-14.7-6.74c-2.6-14.67-12.77-30-24.5-36.86l-1.51-17.83Z"/><path class="cls-17" d="M1310.76,155.95c-2.35-27.82,14.27-41.89,37.15-31.5l1.57,18.55c-14.45-6.52-24.93,2.38-23.44,19.95,1.49,17.65,14.49,37.36,29.02,44.02,14.54,6.67,25.11-2.23,23.62-19.88,0-.07-.01-.14-.02-.21l15.28,7.01c0,.07.01.14.02.21,2.36,27.89-14.35,41.96-37.32,31.42-22.98-10.54-43.51-41.7-45.88-69.59Z"/><path class="cls-1" d="M1309.54,248.12c0-1.91,1.34-2.68,3-1.73l4.99,2.88c1.93,1.11,3.49,3.82,3.49,6.05v70.29l-11.47-6.63v-70.86Z"/><path class="cls-1" d="M1327.5,277.51c0-1.91,1.34-2.68,3-1.73l4.99,2.88c1.92,1.11,3.49,3.82,3.49,6.05v51.28l-11.48-6.63v-51.85Z"/><path class="cls-17" d="M1345.46,306.89c0-1.91,1.34-2.68,2.99-1.73l4.99,2.88c1.93,1.11,3.5,3.82,3.5,6.05v32.26l-11.48-6.63v-32.84Z"/><path class="cls-1" d="M1363.42,286.73c0-1.91,1.34-2.68,3-1.73l4.99,2.88c1.93,1.11,3.49,3.82,3.49,6.05v62.8l-11.47-6.63v-63.37Z"/><path class="cls-17" d="M1381.38,317.26c0-1.91,1.34-2.68,3-1.73l4.99,2.88c1.92,1.11,3.49,3.82,3.49,6.05v42.63l-11.48-6.63v-43.21Z"/><path class="cls-17" d="M1422.79,192.78l53.39,30.82c1.1.64,2,2.18,2,3.46h0c0,1.27-.89,1.79-2,1.15l-53.39-30.82c-1.1-.64-2-2.18-2-3.46h0c0-1.27.89-1.79,2-1.15Z"/><path class="cls-17" d="M1422.54,204.16l42.91,24.77c.96.56,1.75,1.91,1.75,3.02h0c0,1.11-.78,1.57-1.75,1.01l-42.91-24.77c-.96-.56-1.75-1.91-1.75-3.02h0c0-1.11.78-1.57,1.75-1.01Z"/><path class="cls-17" d="M1422.79,215.25l29.44,17c1.1.64,2,2.18,2,3.46h0c0,1.27-.89,1.79-2,1.15l-29.44-17c-1.1-.64-2-2.18-2-3.46h0c0-1.27.89-1.79,2-1.15Z"/><path class="cls-17" d="M1422.54,226.63l44.9,25.93c.96.56,1.75,1.91,1.75,3.02h0c0,1.11-.78,1.57-1.75,1.01l-44.9-25.93c-.96-.56-1.75-1.91-1.75-3.02h0c0-1.11.78-1.57,1.75-1.01Z"/><path class="cls-17" d="M1422.79,237.72l49.39,28.52c1.1.64,2,2.18,2,3.46h0c0,1.27-.89,1.79-2,1.15l-49.39-28.52c-1.1-.64-2-2.18-2-3.46h0c0-1.27.89-1.79,2-1.15Z"/><path class="cls-17" d="M1422.79,332.78l49.39,28.52c1.1.64,2,2.18,2,3.46h0c0,1.27-.89,1.79-2,1.15l-49.39-28.52c-1.1-.64-2-2.18-2-3.46h0c0-1.27.89-1.79,2-1.15Z"/><path class="cls-17" d="M1422.54,344.16l42.91,24.77c.96.56,1.75,1.91,1.75,3.02h0c0,1.11-.78,1.57-1.75,1.01l-42.91-24.77c-.96-.56-1.75-1.91-1.75-3.02h0c0-1.11.78-1.57,1.75-1.01Z"/><path class="cls-17" d="M1422.8,355.25l29.44,17c1.1.64,2,2.18,2,3.46h0c0,1.27-.89,1.79-2,1.15l-29.44-17c-1.1-.64-2-2.18-2-3.46h0c0-1.27.89-1.79,2-1.15Z"/><path class="cls-17" d="M1422.55,366.63l44.9,25.93c.96.56,1.75,1.91,1.75,3.02h0c0,1.11-.78,1.57-1.75,1.01l-44.9-25.93c-.96-.56-1.75-1.91-1.75-3.02h0c0-1.11.78-1.57,1.75-1.01Z"/><path class="cls-17" d="M1422.8,377.72l21.95,12.68c1.1.64,2,2.18,2,3.46h0c0,1.27-.89,1.79-2,1.15l-21.95-12.68c-1.1-.64-2-2.18-2-3.46h0c0-1.27.89-1.79,2-1.15Z"/><line class="cls-8" x1="1503.49" y1="183.52" x2="1523.12" y2="174.79"/><line class="cls-8" x1="1498.93" y1="174.39" x2="1518.58" y2="164.54"/></svg>