<?xml version="1.0" encoding="UTF-8"?><svg id="Capa_1" xmlns="http://www.w3.org/2000/svg" width="23.56in" height="10.94in" xmlns:xlink="http://www.w3.org/1999/xlink" viewBox="0 0 1696.32 787.68"><defs><style>.cls-1{fill:#f5f5f2;}.cls-2,.cls-3{fill:#fff;}.cls-2,.cls-4{stroke:#9a9a94;stroke-miterlimit:4;stroke-width:1.5px;}.cls-5{fill:#2075ff;}.cls-6{fill:#71adfc;}.cls-6,.cls-7{stroke:#2075ff;stroke-width:1.5px;}.cls-8,.cls-4{fill:none;}.cls-7{fill:#e8f1fd;}.cls-9,.cls-10{fill:#9a9a94;}.cls-11{fill:#a1c0ff;}.cls-10{isolation:isolate;opacity:.1;}.cls-12{clip-path:url(#clippath);}.cls-13{fill:#d9d9d9;}</style><clipPath id="clippath"><path class="cls-8" d="M432.06,595.21l123.04,71.03c1.93,1.11,1.93,2.92,0,4.03l-137.09,79.15c-1.93,1.11-5.06,1.11-6.99,0l-123.04-71.03c-1.93-1.11-1.93-2.92,0-4.03l137.09-79.15c1.93-1.11,5.06-1.11,6.99,0Z"/></clipPath></defs><path id="sombra4" class="cls-10" d="M1337.05,639.89l169.08-97.54,148.48,85.61c15.03,8.67,15.08,30.35.1,39.08l-141.15,82.33c-7.52,4.39-16.81,4.4-24.35.03l-152.18-88.19c-8.2-4.75-8.18-16.58.02-21.31h0Z"/><path id="sombra3" class="cls-10" d="M407.57,457.36l469.34,263.35c21.08,11.83,46.84,11.69,67.79-.38l597.89-344.28c19.07-10.99,19.58-38.32.94-50.01L1057.96,21.68,407.18,398.25c-22.82,13.2-22.6,46.22.39,59.12h0Z"/><g id="rompecabezas"><path class="cls-2" d="M1544.84,333.84c0,11.11-5.96,21.36-15.61,26.86l-582.9,329.91c-17.34,9.89-56.08,12.96-73.44,3.13l-438.96-249.13c-8.72-4.94-14.07-14.21-13.99-24.24l.27-28.98,484.64,266.75.3.17.3-.17,639.4-359.28v34.98h0Z"/><path class="cls-2" d="M437.71,365.34L1015.36,31.86c23.52-13.57,61.66-13.57,85.18,0l427.07,246.55c23.52,13.57,23.52,35.6,0,49.17l-577.65,333.48c-23.52,13.57-61.65,13.57-85.18,0l-427.07-246.55c-23.52-13.57-23.52-35.6,0-49.17h0Z"/><path class="cls-2" d="M1118.46,240.02c36.08,8.73,79.66,17.8,79.66,18.85,0,12.78-3.46,19.68-6.45,22.27-5.7,4.91-14.49,10.8-24.67,12.83-14.47,2.89-31.51,0-39.09-3.02-11.13-4.43-15.29-15.77-22.07-18.87-3.82-1.75-12.64,3.41-16.26,5.29l-86.16,46.8c-10.3,5.13-32.06,7.43-42.33,2.27l-69.24-38.11v-20.38l69.24,39.2c11.28,6.13,24.98,5.89,36.04-.64l102.18-60.28,2.96-7.5c.56-1.42,2.08-2.21,3.58-1.83,2.12.54,4.29,1.08,6.51,1.63l6.45-3.81-.34,5.3h.01Z"/><path class="cls-2" d="M1248.15,162.07v18.21c0,5.62-3.94,12.44-8.81,15.25l-94.6,54.62v-28.38l103.41-59.71h0Z"/><path class="cls-3" d="M1024.9,52.13c15.87-9.17,41.62-9.17,57.5,0l154.96,89.45c15.87,9.17,15.87,24.03,0,33.2l-83.73,48.34c-3.27,1.89-3.27,4.95,0,6.84,4.83,2.79,11.48,4.03,18.25,4.53,5.84.43,10.89,1.66,16.28,4.78,16.16,9.34,16.16,24.46,0,33.8l-3.3,1.9c-16.16,9.34-42.37,9.34-58.54,0-5.4-3.12-7.53-6.03-8.27-9.41-.86-3.91-3.02-7.75-7.85-10.54-3.26-1.89-8.57-1.89-11.84,0l-88.99,51.38c-15.87,9.17-41.62,9.17-57.5,0l-49.53-28.59c-3.27-1.89-8.57-1.89-11.84,0-4.83,2.79-10.26,9.16-12.24,13.06-1.66,3.3-2.87,6.29-8.27,9.4-16.16,9.34-42.37,9.34-58.55,0l-3.29-1.9c-16.16-9.34-16.16-24.46,0-33.8,5.4-3.12,10.45-4.35,16.28-4.78,6.77-.5,17.8-4.28,22.63-7.06,3.27-1.89,3.27-4.95,0-6.84l-50.18-28.97c-15.88-9.17-15.88-24.03,0-33.2l227.97-131.61h.01Z"/><path class="cls-9" d="M1024.9,52.13l-1.08-.62h0l1.08.62ZM1082.41,52.13l1.08-.62h0l-1.08.62ZM1237.37,141.58l1.08-.62h0l-1.08.62ZM1237.37,174.78l-1.08-.62h0l1.08.62ZM1153.64,223.12l-1.08-.62h0l1.08.62ZM1153.64,229.96l-1.08.62h0l1.08-.62ZM1171.88,234.48l.19-.87h0l-.19.87ZM1188.18,239.26l1.08-.62h0l-1.08.62ZM1188.18,273.06l-1.08-.62h0l1.08.62ZM1184.88,274.96l1.08.62h0l-1.08-.62ZM1126.34,274.96l-1.08.62h0l1.08-.62ZM1118.08,265.55l-1.51.11h0l1.51-.11ZM1110.22,255.02l1.08-.62h0l-1.08.62ZM1098.38,255.02l-1.08-.62h0l1.08.62ZM1009.39,306.4l1.08.62h0l-1.08-.62ZM951.89,306.4l1.08-.62h0l-1.08.62ZM902.36,277.81l-1.08.62h0l1.08-.62ZM890.53,277.8l-1.08-.62h0l1.08.62ZM878.29,290.87l-1.46-.25h0l1.46.25ZM870.03,300.27l1.08.62h0l-1.08-.62ZM811.49,300.27l-1.08.62h0l1.08-.62ZM808.2,298.37l-1.08.62h0l1.08-.62ZM808.2,264.57l-1.08-.62h0l1.08.62ZM824.48,259.8l-.19-.87h0l.19.87ZM847.12,252.74l1.08.62h0l-1.08-.62ZM847.12,245.9l1.08-.62h0l-1.08.62ZM796.94,216.93l-1.08.62h0l1.08-.62ZM796.94,183.74l-1.08-.62h0l1.08.62ZM1024.9,52.13l1.08.62c15.28-8.83,40.06-8.83,55.35,0l1.08-.62,1.08-.62c-16.47-9.51-43.18-9.51-59.66,0l1.08.62h0ZM1082.41,52.13l-1.08.62,154.96,89.45,1.08-.62,1.08-.62-154.96-89.45s-1.08.62-1.08.62ZM1237.37,141.58l-1.08.62c15.28,8.83,15.28,23.13,0,31.96l1.08.62,1.08.62c16.47-9.51,16.47-24.93,0-34.45l-1.08.62h0ZM1237.37,174.78l-1.08-.62-83.73,48.34,1.08.62,1.08.62,83.73-48.34-1.08-.62ZM1153.64,223.12l-1.08-.62c-3.87,2.23-3.87,5.85,0,8.08l1.08-.62,1.08-.62c-2.67-1.54-2.67-4.05,0-5.59l-1.08-.62h0ZM1153.64,229.96l-1.08.62c5.17,2.98,12.21,4.27,19.13,4.78l.2-.87.19-.87c-6.62-.49-12.87-1.69-17.36-4.28l-1.08.62ZM1171.88,234.48l-.2.87c5.51.41,10.25,1.55,15.4,4.52l1.08-.62,1.08-.62c-5.65-3.26-11.01-4.57-17.17-5.03l-.19.87h0ZM1188.18,239.26l-1.08.62c15.57,8.99,15.57,23.56,0,32.56l1.08.62,1.08.62c16.75-9.68,16.75-25.37,0-35.05l-1.08.62h0ZM1188.18,273.06l-1.08-.62-3.3,1.9,1.08.62,1.08.62,3.3-1.9-1.08-.62ZM1184.88,274.96l-1.08-.62c-15.57,8.99-40.81,8.99-56.38,0l-1.08.62-1.08.62c16.76,9.68,43.94,9.68,60.7,0l-1.08-.62h0ZM1126.34,274.96l1.08-.62c-5.16-2.98-7.13-5.71-7.84-8.89l-1.51.11-1.51.11c.78,3.56,3.06,6.66,8.7,9.92l1.08-.62h0ZM1118.08,265.55l1.51-.11c-.89-4-3.11-8.07-8.29-11.05l-1.08.62-1.07.62c4.48,2.59,6.57,6.21,7.41,10.03l1.51-.11h0ZM1110.22,255.02l1.08-.62c-3.86-2.23-10.13-2.23-13.99,0l1.08.62,1.08.62c2.67-1.54,7.01-1.54,9.69,0l1.07-.62h0ZM1098.38,255.02l-1.08-.62-88.99,51.38,1.08.62,1.08.62,88.99-51.38-1.08-.62h0ZM1009.39,306.4l-1.08-.62c-15.28,8.83-40.06,8.83-55.35,0l-1.08.62-1.08.62c16.47,9.51,43.18,9.51,59.66,0l-1.08-.62h.01ZM951.89,306.4l1.08-.62-49.53-28.59-1.08.62-1.08.62,49.53,28.59,1.08-.62ZM902.36,277.81l1.08-.62c-3.87-2.23-10.14-2.23-13.99,0l1.08.62,1.08.62c2.67-1.54,7.01-1.54,9.68,0l1.08-.62h0ZM890.53,277.8l-1.08-.62c-2.58,1.49-5.23,3.87-7.46,6.33-2.24,2.47-4.14,5.09-5.16,7.12l1.46.25,1.47.25c.95-1.89,2.76-4.4,4.93-6.8,2.18-2.4,4.66-4.6,6.92-5.9l-1.08-.62h0ZM878.29,290.87l-1.46-.25c-1.68,3.33-2.81,6.09-7.89,9.03l1.08.62,1.08.62c5.71-3.3,7.01-6.5,8.66-9.78l-1.47-.25h0ZM870.03,300.27l-1.08-.62c-15.57,8.99-40.81,8.99-56.39,0l-1.08.62-1.08.62c16.76,9.68,43.93,9.68,60.7,0l-1.08-.62h.01ZM811.49,300.27l1.08-.62-3.29-1.9-1.08.62-1.08.62,3.29,1.9,1.08-.62ZM808.2,298.37l1.08-.62c-15.57-8.99-15.57-23.56,0-32.56l-1.08-.62-1.08-.62c-16.76,9.68-16.76,25.37,0,35.05l1.08-.62h0ZM808.2,264.57l1.08.62c5.16-2.98,9.89-4.12,15.4-4.52l-.19-.87-.19-.87c-6.17.45-11.53,1.77-17.17,5.03l1.08.62h-.01ZM824.48,259.8l.19.87c3.68-.27,8.34-1.41,12.59-2.78,4.29-1.38,8.38-3.07,10.93-4.54l-1.08-.62-1.08-.62c-2.28,1.32-6.12,2.91-10.26,4.24-4.16,1.34-8.41,2.34-11.5,2.57l.19.87h.01ZM847.12,252.74l1.08.62c3.87-2.23,3.87-5.85,0-8.08l-1.08.62-1.08.62c2.68,1.54,2.68,4.05,0,5.59l1.08.62h0ZM847.12,245.9l1.08-.62-50.18-28.97-1.08.62-1.08.62,50.18,28.97,1.08-.62ZM796.94,216.93l1.08-.62c-15.28-8.83-15.28-23.13,0-31.96l-1.08-.62-1.08-.62c-16.47,9.52-16.47,24.93,0,34.45l1.08-.62h0ZM796.94,183.74l1.08.62,227.98-131.61-1.08-.62-1.08-.62-227.97,131.61,1.08.62h-.01Z"/><path class="cls-2" d="M665.72,474.31h0c15.46,8.94,34.53,8.94,50,0h0l80.75-46.14v28.19l-81.37,46.5h0c-15.08,8.71-33.67,8.71-48.75,0h0l-165.27-94.78c-4.45-2.55-7.2-7.29-7.2-12.41v-26.7l171.84,105.35h0Z"/><path class="cls-2" d="M504.53,353.3l232.86-134.43c13.66-7.89,35.48-8.21,49.79-.94l48.87,27.95c3.14,1.82,3.14,4.76,0,6.58-2.42,1.4-5.28,2.18-8.59,2.78-1.66.3-3.42.55-5.3.82-1.87.26-3.85.53-5.92.87-8.43,1.37-15.54,5.2-21.22,8.47h-.02l-.02.03c-15.12,10.47-11.07,26.06,6.17,36.01l3.47,2c8.62,4.98,20.09,8.45,31.59,9.44,11.52.99,23.1-.52,31.82-5.55,5.7-3.29,11.54-7.24,14.24-11.51,1.35-2.11,1.98-4.53,2.87-6.67.91-2.18,2.09-4.11,4.48-5.49,3.15-1.82,8.25-1.82,11.4,0l49.39,28.52c12.57,8.27,12.03,20.86-1.64,28.75l-89.44,51.64c-.84.48-1.78.81-2.77.85-2.27.08-4.57-.38-6.3-1.37-2.45-1.41-3.93-3.29-4.92-5.36-.99-2.07-1.46-4.3-1.92-6.4-.43-1.93-2.38-3.65-4.86-5.28-2.47-1.61-5.6-3.22-8.43-4.85-17.66-10.2-46.26-6.95-63.7,3.12l-3.51,2.03c-8.75,5.05-14.61,11.76-16.11,18.48-1.5,6.73,1.39,13.48,10.22,18.58,1.43.83,2.8,1.68,4.16,2.52,1.36.83,2.71,1.64,4.08,2.37,2.73,1.44,5.63,2.58,8.98,2.83,7.3.54,14.83,1.13,19.77,3.98,1.73,1,2.52,2.34,2.37,3.65-.06.57-.63,1.11-1.45,1.59l-79.02,46.06c-14.23,8.22-37.3,8.22-51.54,0l-159.84-92.27-.66-.39c-13.57-8.25-13.35-21.28.66-29.37v-.04Z"/><path class="cls-2" d="M1173.14,474.77c-.17,9.09-5.1,17.41-12.96,21.95l-222.24,128.21c-19.64,11.33-43.8,11.45-63.54.3l-153.01-86.34c-7.63-4.31-12.34-12.38-12.34-21.14v-24.18l163.16,100.5c20.9,12.87,47.25,12.95,68.22.2l231.54-142.48,1.17,22.99h.01Z"/><path class="cls-3" d="M1161.32,386.84c0,5.5-2.92,10.27-7.6,13.29-4.57,2.95-5.98,4.74-11.22,4.74-3.65,0-9.96,0-14.11.83-5.59,1.12-8.59,2.05-14.52,3.74l-8.77,2.47-7.42-16.99,37-11.48,13.5-7.8,13.11-9.7v20.89h.01Z"/><path class="cls-9" d="M1161.32,386.84h1.25-1.25ZM1153.72,400.14l-.67-1.05h0l.67,1.05ZM1142.51,404.88v1.25h0v-1.25ZM1128.4,405.71l-.24-1.22h0l.24,1.22ZM1113.87,409.44l.34,1.2h0l-.34-1.2ZM1105.11,411.9l-1.15.5.44.99,1.05-.29-.34-1.2h0ZM1097.68,394.91l-.37-1.19-1.34.41.56,1.28,1.14-.5h0ZM1134.7,383.44l.37,1.19.13-.04.12-.07-.62-1.08ZM1148.2,375.65l.62,1.08.06-.03.06-.04-.74-1h0ZM1161.32,365.95h1.25v-2.47l-1.98,1.47.74,1h-.01ZM1161.32,386.84h-1.25c0,5.02-2.67,9.43-7.02,12.25l.67,1.05.68,1.05c4.97-3.22,8.16-8.37,8.16-14.33h-1.25,0ZM1153.72,400.14l-.67-1.05c-1.16.75-2.13,1.43-2.97,2-.85.58-1.56,1.04-2.28,1.42-1.38.71-2.84,1.12-5.29,1.12v2.49c2.79,0,4.66-.48,6.44-1.4.86-.44,1.68-.98,2.54-1.57.88-.6,1.79-1.24,2.92-1.97l-.68-1.05h0ZM1142.51,404.88v-1.25c-3.6,0-10.06,0-14.35.85l.24,1.22.24,1.22c4.01-.8,10.19-.81,13.86-.81v-1.25.02ZM1128.4,405.71l-.24-1.22c-5.65,1.13-8.71,2.08-14.62,3.76l.34,1.2.34,1.2c5.95-1.69,8.9-2.61,14.42-3.71l-.24-1.22h0ZM1113.87,409.44l-.34-1.2-8.77,2.47.34,1.2.34,1.2,8.77-2.47-.34-1.2ZM1105.11,411.9l1.14-.5-7.42-16.99-1.14.5-1.14.5,7.41,16.99,1.15-.5ZM1097.68,394.91l.37,1.19,37-11.48-.37-1.19-.37-1.19-37,11.48.37,1.19ZM1134.7,383.44l.62,1.08,13.5-7.8-.62-1.08-.62-1.08-13.5,7.8.62,1.08ZM1148.2,375.65l.74,1,13.11-9.7-.74-1-.74-1-13.11,9.7.74,1ZM1161.32,365.95h-1.25v20.89h2.49v-20.89h-1.25.01Z"/><path class="cls-2" d="M770.13,379.22l3.29-1.9c15.86-9.16,41.59-9.16,57.47,0,5.28,3.05,7.33,5.87,8.06,9.15.87,3.96,3.07,7.91,8.07,10.8,3.57,2.06,9.36,2.06,12.92,0l88.98-51.38c15.58-9,40.84-9,56.43,0l49.52,28.59c3.57,2.06,9.36,2.06,12.92,0,2.48-1.43,5.36-3.76,7.73-6.21,2.36-2.45,4.27-5.08,4.72-7.12.72-3.28,2.77-6.1,8.05-9.15,15.86-9.16,41.59-9.16,57.46,0l3.29,1.9c15.87,9.16,15.87,24.01,0,33.18-5.27,3.05-10.17,4.23-15.83,4.65-3.54.26-8.09,1.36-12.32,2.73-4.24,1.37-8.28,3.03-10.75,4.46-3.57,2.06-3.57,5.4,0,7.46l50.17,28.97c15.58,9,15.58,23.58,0,32.58l-227.97,131.61c-15.58,9-40.84,9-56.43,0l-154.96-89.45c-15.58-9-15.58-23.58,0-32.58l83.73-48.34c3.57-2.06,3.57-5.4,0-7.46-5-2.89-11.84-4.15-18.69-4.66-5.68-.42-10.57-1.6-15.84-4.65-15.62-9.02-15.86-23.55-.73-32.74l.73-.43h0Z"/><line class="cls-4" x1="880" y1="667.46" x2="880" y2="696.37"/><line class="cls-4" x1="938" y1="666.43" x2="938" y2="694.31"/><line class="cls-4" x1="886.56" y1="603.92" x2="886.56" y2="631"/><line class="cls-4" x1="928.89" y1="629.23" x2="928.89" y2="600.88"/><line class="cls-4" x1="670.88" y1="478.31" x2="670.88" y2="505.16"/><line class="cls-4" x1="702.8" y1="507.87" x2="702.8" y2="480.18"/><line class="cls-4" x1="993.09" y1="327.6" x2="993.09" y2="312.14"/><line class="cls-4" x1="969.81" y1="312.18" x2="969.81" y2="329.35"/></g><g id="piezarompecabeza"><path class="cls-6" d="M1508.88,263.33c0,10.18-5.43,19.57-14.23,24.66l-244.04,140.9c-21.65,12.5-48.21,12.97-70.29,1.26l-46.54-24.7c-5.41-2.87-8.79-8.49-8.79-14.6v-25.36l89.52,39.51,294.38-171.48v29.82h-.01Z"/><path class="cls-6" d="M1146.4,280.17c.09.05,36.59,19.62,52.54,29.42l-19.76,8.83c-13.87-6.73-29.62-8.07-42.64-6.38-14.29,1.84-30.31,6.38-39.49,13.77-11.53,7.26-13.44,17.51-15.68,30.06-.32,1.81-1.53,3.33-3.21,4.07l-.1.05c-2.57,1.13-5.41,1.54-8.2,1.19l-2.7-.34c-2.07-.26-4.06-.93-5.86-1.97l-55.25-31.84c-8.25-4.76-13.33-13.55-13.33-23.08v-22.53l75.92,33.72-2.08-26.99,79.86-7.99h-.01Z"/><path class="cls-6" d="M1172.88,185.54v-15.49l52.96,3.78c9.38,3.36,28.25,10.26,28.58,10.93.42.84-6.73,38.24-7.99,39.93-1.01,1.35-20.03,1.4-29.42,1.26.97-6.17.67-14.2-1.69-18.91-2.94-5.89-7.99-8.83-12.18-9.67-1.76-.35-9.35-1.09-15.12-1.26-2.07-.06-4.46-.39-6.77-.76-4.72-.77-8.36-5.02-8.36-9.81h-.01Z"/><path class="cls-7" d="M1103.38,208.3c.98-.57,2.21-1.03,3.61-1.08,2.73-.1,5.52.45,7.62,1.66,5.71,3.29,6.79,8.67,7.81,13.28.88,3.99,8.09,7.24,14.45,10.93,19.09,11.03,50.2,7.59,69.3-3.45l3.9-2.25c19.1-11.04,25.62-29.3,6.52-40.32-6.38-3.68-11.66-7.89-18.55-8.4-8.01-.59-16.67-1.25-22.37-4.55-2.1-1.21-3.06-2.83-2.88-4.41.09-.8.87-1.5,1.85-2.07l87.44-50.98c16.08-9.29,42.15-9.29,58.24,0l176.89,102.12c16.08,9.29,16.08,24.34,0,33.62l-257.7,148.77c-15.44,8.92-40.09,9.27-56.27,1.06l-55.43-32c-3.8-2.2-3.8-5.77,0-7.97,5.63-3.25,13.78-3.76,22.87-5.24,9.09-1.48,16.2-4.93,22.49-8.56,18.84-10.88,13.4-27.78-5.44-38.65l-3.83-2.21c-18.84-10.88-50.13-15.18-68.98-4.3-6.29,3.63-12.63,7.94-15.57,12.55-2.93,4.62-2.7,10.39-8.33,13.63-3.81,2.2-10,2.2-13.79,0l-54.7-31.58c-14.21-9.34-13.6-23.57,1.84-32.49l98.99-57.15h.02Z"/><path class="cls-5" d="M1103.38,208.3l-1.19-.69h0l1.19.69ZM1106.99,207.22l-.11-.97h0l.11.97ZM1114.61,208.87l1.19-.69h0l-1.19.69ZM1122.41,222.16l-1.67.12h0l1.67-.12ZM1136.87,233.08l-1.19.69h0l1.19-.69ZM1206.18,229.63l1.19.69h0l-1.19-.69ZM1210.07,227.39l1.19.69h0l-1.19-.69ZM1216.6,187.06l1.19-.69h0l-1.19.69ZM1198.03,178.67l.21-.97h0l-.21.97ZM1175.67,174.12l-1.19.69h0l1.19-.69ZM1172.79,169.71l-1.68-.06h0l1.68.06ZM1174.64,167.65l-1.2-.69h0l1.2.69ZM1262.09,116.67l-1.19-.69h0l1.2.69h-.01ZM1320.32,116.67l-1.19.69h0l1.19-.69ZM1497.21,218.79l1.19-.69h0l-1.19.69ZM1497.21,252.41l1.19.69h0l-1.19-.69ZM1239.52,401.18l1.19.69h0l-1.19-.69ZM1183.25,402.24l-1.19.69.05.02.04.02,1.11-.73h-.01ZM1127.82,370.24l-1.19.69h0l1.19-.69ZM1127.82,362.27l-1.19-.69h0l1.19.69ZM1150.69,357.03l.46.94h0l-.46-.94ZM1173.19,348.48l1.19.69h0l-1.19-.69ZM1167.76,309.82l1.19-.69h0l-1.19.69ZM1163.93,307.62l1.19-.69h0l-1.19.69ZM1094.94,303.31l-1.19-.69h0l1.19.69ZM1079.37,315.86l-1.58-.34h0l1.58.34ZM1071.05,329.5l1.19.69h0l-1.19-.69ZM1057.26,329.5l1.19-.69h0l-1.19.69ZM1002.55,297.92l-1.27.64.04.02.04.02,1.19-.69h0ZM1004.39,265.43l-1.19-.69h0l1.19.69ZM1103.38,208.3l1.19.69c.85-.49,1.71-.77,2.53-.8l-.1-.97-.11-.97c-1.98.07-3.57.71-4.7,1.36l1.19.69ZM1106.99,207.22l.1.97c2.28-.08,4.59.38,6.32,1.38l1.19-.69,1.19-.69c-2.45-1.41-5.72-2.06-8.92-1.94l.11.97h.01ZM1114.61,208.87l-1.19.69c2.56,1.48,4.15,3.47,5.23,5.72s1.59,4.68,2.1,7.01l1.67-.12,1.67-.12c-.51-2.29-1.04-4.87-2.2-7.28-1.15-2.42-2.96-4.77-6.09-6.58l-1.19.69h0ZM1122.41,222.16l-1.67.12c.51,2.29,2.8,4.28,5.58,6.1,2.75,1.8,6.29,3.62,9.36,5.39l1.19-.69,1.19-.69c-3.3-1.9-6.55-3.56-9.23-5.3-2.64-1.73-4.38-3.36-4.76-5.05l-1.67.12h.01ZM1136.87,233.08l-1.19.69c20,11.55,52.21,7.81,71.69-3.45l-1.19-.69-1.19-.69c-18.74,10.82-48.74,13.94-66.92,3.45l-1.19.69h-.01ZM1206.18,229.63l1.19.69,3.9-2.25-1.19-.69-1.19-.69-3.89,2.25,1.19.69h-.01ZM1210.07,227.39l1.19.69c9.8-5.66,16.38-13.17,18.06-20.73,1.68-7.57-1.56-15.21-11.55-20.97l-1.19.69-1.19.69c9.12,5.26,12.17,12.27,10.59,19.35-1.57,7.1-7.8,14.22-17.1,19.6l1.19.69h0ZM1216.6,187.06l1.19-.69c-1.57-.91-3.07-1.84-4.59-2.77-1.51-.92-3.01-1.83-4.56-2.65-3.06-1.62-6.42-2.96-10.4-3.25l-.21.97-.22.97c2.92.22,5.65,1.22,8.55,2.76,1.44.76,2.88,1.62,4.37,2.54,1.49.91,3.04,1.88,4.66,2.81l1.19-.69h.02ZM1198.03,178.67l.21-.97c-8.15-.6-16.16-1.25-21.39-4.27l-1.19.69-1.19.69c6.18,3.57,15.47,4.25,23.34,4.82l.22-.97h0ZM1175.67,174.12l1.19-.69c-1.74-1-2.53-2.34-2.38-3.66l-1.68-.06-1.68-.06c-.21,1.85.91,3.75,3.36,5.16l1.19-.69h0ZM1172.79,169.71l1.68.06c.06-.47.52-.96,1.36-1.45l-1.19-.69-1.2-.69c-1.11.65-2.21,1.56-2.32,2.69l1.68.06v.02ZM1174.64,167.65l1.19.69,87.45-50.98-1.2-.69-1.2-.69-87.44,50.98,1.2.69ZM1262.09,116.67l1.19.69c15.42-8.91,40.42-8.91,55.85,0l1.19-.69,1.19-.69c-16.73-9.67-43.88-9.67-60.63,0l1.19.69h.02ZM1320.32,116.67l-1.19.69,176.89,102.12,1.19-.69,1.19-.69-176.89-102.12-1.19.69ZM1497.21,218.79l-1.19.69c15.42,8.91,15.42,23.34,0,32.24l1.19.69,1.19.69c16.73-9.67,16.73-25.33,0-35l-1.19.69h0ZM1497.21,252.41l-1.19-.69-257.7,148.77,1.19.69,1.19.69,257.7-148.77-1.19-.69ZM1239.52,401.18l-1.19-.69c-14.8,8.55-38.44,8.89-53.96,1.02l-1.11.73-1.11.73c16.83,8.55,42.5,8.18,58.58-1.11l-1.19-.69h-.02ZM1183.25,402.24l1.19-.69-55.43-32-1.19.69-1.19.69,55.43,32,1.19-.69ZM1127.82,370.24l1.19-.69c-3.15-1.82-3.15-4.77,0-6.59l-1.19-.69-1.19-.69c-4.48,2.58-4.48,6.77,0,9.35l1.19-.69ZM1127.82,362.27l1.19.69c2.55-1.47,5.71-2.35,9.46-3.04,1.88-.35,3.88-.65,6.01-.95,2.11-.3,4.36-.62,6.67-.99l-.46-.94-.46-.94c-2.24.36-4.42.67-6.57.98-2.13.31-4.23.62-6.22.99-4.01.74-7.74,1.74-10.82,3.52l1.19.69h0ZM1150.69,357.03l.46.94c9.52-1.55,16.89-5.15,23.22-8.81l-1.19-.69-1.19-.69c-6.25,3.6-13.1,6.9-21.76,8.31l.46.94ZM1173.19,348.48l1.19.69c19.74-11.4,13.8-28.93-5.43-40.03l-1.19.69-1.19.69c18.45,10.65,23.38,26.92,5.44,37.27l1.19.69h0ZM1167.76,309.82l1.19-.69-3.83-2.21-1.19.69-1.19.69,3.83,2.21,1.19-.69ZM1163.93,307.62l1.19-.69c-9.66-5.57-22.51-9.48-35.44-10.59-12.94-1.11-26.06.58-35.94,6.28l1.19.69,1.19.69c8.98-5.18,20.93-6.77,33.05-5.73,12.16,1.04,24.36,4.73,33.55,10.04l1.19-.69h.02ZM1094.94,303.31l-1.19-.69c-6.32,3.65-12.89,8.09-15.95,12.9l1.58.34,1.59.34c2.79-4.4,8.92-8.59,15.17-12.21l-1.19-.69h-.01ZM1079.37,315.86l-1.58-.34c-1.51,2.37-2.25,5.13-3.21,7.44-1,2.4-2.27,4.42-4.73,5.84l1.19.69,1.19.69c3.16-1.83,4.59-4.31,5.62-6.77,1.06-2.55,1.67-4.98,3.1-7.22l-1.59-.34h.01ZM1071.05,329.5l-1.19-.69c-3.15,1.82-8.27,1.82-11.42,0l-1.19.69-1.19.69c4.47,2.58,11.72,2.58,16.18,0l-1.19-.69h-.01ZM1057.26,329.5l1.19-.69-54.69-31.58-1.19.69-1.19.69,54.7,31.58,1.19-.69h0ZM1002.55,297.92l1.27-.64c-13.63-8.96-13.04-22.6,1.76-31.16l-1.19-.69-1.19-.69c-16.07,9.28-16.7,24.1-1.91,33.82l1.27-.64h-.01ZM1004.39,265.43l1.19.69,98.98-57.15-1.19-.69-1.19-.69-98.99,57.15,1.19.69h0Z"/></g><path id="sombra2" class="cls-10" d="M428.3,607.87l-146.61,82.22c-5.06,2.84-5.12,10.09-.11,13l118.15,68.95c8.62,5.03,19.27,5.01,27.87-.05l127.82-75.27c5.55-3.27,5.54-11.3-.02-14.54l-127.1-74.31h0Z"/><path id="sombra1_" class="cls-10" d="M104.4,353.77l21.83-10.02c1.79-.82,3.86-.74,5.58.23l169.41,95.05c4.38,2.46,4.14,8.84-.42,10.96l-23.28,10.81c-1.81.84-3.91.75-5.65-.24l-167.96-95.84c-4.36-2.49-4.07-8.86.48-10.95h.01Z"/><line id="connector1" class="cls-4" x1="450.33" y1="655.11" x2="639.55" y2="545.15"/><polyline id="connector2" class="cls-4" points="187.01 388.93 651.3 131.23 745.34 187.75"/><line id="connector3" class="cls-4" x1="1498.75" y1="616.92" x2="1279.54" y2="486.92"/><g id="roadmap"><path class="cls-3" d="M1493.67,698.48c7.74,4.46,17.25,4.46,24.99.02l136.98-78.69v21.11c0,4.05-2.17,7.8-5.68,9.82l-131.85,75.74c-7.4,4.25-16.5,4.24-23.89-.03l-146.63-84.67c-3.46-2-5.61-5.67-5.67-9.66l-.27-21.21,152.01,87.57h0Z"/><path class="cls-1" d="M1493.67,698.48c7.74,4.46,17.25,4.46,24.99.02l136.98-78.69v21.11c0,4.05-2.17,7.8-5.68,9.82l-131.85,75.74c-7.4,4.25-16.5,4.24-23.89-.03l-146.63-84.67c-3.46-2-5.61-5.67-5.67-9.66l-.27-21.21,152.01,87.57h0Z"/><path class="cls-4" d="M1493.67,698.48c7.74,4.46,17.25,4.46,24.99.02l136.98-78.69v21.11c0,4.05-2.17,7.8-5.68,9.82l-131.85,75.74c-7.4,4.25-16.5,4.24-23.89-.03l-146.63-84.67c-3.46-2-5.61-5.67-5.67-9.66l-.27-21.21,152.01,87.57h0Z"/><path class="cls-3" d="M1342.12,608.54l146.42-84.54c1.24-.72,3.26-.72,4.5,0l161.98,93.52c1.24.72,1.24,1.88,0,2.6l-146.42,84.54c-1.24.72-3.26.72-4.5,0l-161.98-93.52c-1.24-.72-1.24-1.88,0-2.6Z"/><path class="cls-4" d="M1342.12,608.54l146.42-84.54c1.24-.72,3.26-.72,4.5,0l161.98,93.52c1.24.72,1.24,1.88,0,2.6l-146.42,84.54c-1.24.72-3.26.72-4.5,0l-161.98-93.52c-1.24-.72-1.24-1.88,0-2.6Z"/><path class="cls-13" d="M1372.98,608.17l62.35-36c1.6-.92,4.19-.92,5.79,0h0c1.6.92,1.6,2.42,0,3.34l-62.35,36c-1.6.92-4.19.92-5.79,0h0c-1.6-.92-1.6-2.42,0-3.34Z"/><path class="cls-4" d="M1402.07,622.37c2.58-1.49,6.75-1.49,9.33,0s2.58,3.9,0,5.38-6.75,1.49-9.33,0-2.58-3.9,0-5.38Z"/><path class="cls-4" d="M1411.88,622.09l26.52-15.31"/><path class="cls-4" d="M1438.88,601.12c2.58-1.49,6.75-1.49,9.33,0s2.58,3.9,0,5.38-6.75,1.49-9.33,0-2.58-3.9,0-5.38Z"/><path class="cls-4" d="M1448.68,600.84l26.52-15.31"/><path class="cls-11" d="M1475.21,579.59c2.84-1.64,7.45-1.64,10.29,0s2.84,4.3,0,5.94-7.45,1.64-10.29,0-2.84-4.3,0-5.94Z"/><path class="cls-4" d="M1485.49,579.59l26.52-15.31"/><path class="cls-4" d="M1512.5,558.62c2.58-1.49,6.75-1.49,9.33,0s2.58,3.9,0,5.38-6.75,1.49-9.33,0-2.58-3.9,0-5.38Z"/><path class="cls-11" d="M1432.13,640.09c2.66-1.54,6.98-1.54,9.65,0s2.66,4.03,0,5.57-6.98,1.54-9.65,0-2.66-4.03,0-5.57Z"/><path class="cls-13" d="M1446.27,635.26l36.01-20.78c1.07-.62,2.79-.62,3.86,0h0c1.07.62,1.07,1.61,0,2.23l-36.01,20.78c-1.07.62-2.79.62-3.86,0h0c-1.07-.62-1.07-1.61,0-2.23Z"/><path class="cls-11" d="M1449.48,650.11c2.66-1.54,6.98-1.54,9.65,0s2.66,4.03,0,5.57-6.98,1.54-9.65,0c-2.66-1.54-2.66-4.03,0-5.57Z"/><path class="cls-13" d="M1463.62,645.29l26.56-15.33c1.07-.62,2.79-.62,3.86,0h0c1.07.62,1.07,1.61,0,2.23l-26.56,15.33c-1.07.62-2.79.62-3.86,0h0c-1.07-.62-1.07-1.61,0-2.23Z"/><path class="cls-11" d="M1466.83,660.13c2.66-1.54,6.98-1.54,9.65,0s2.66,4.03,0,5.57-6.98,1.54-9.65,0-2.66-4.03,0-5.57Z"/><path class="cls-13" d="M1480.98,655.3l30.86-17.81c1.07-.62,2.79-.62,3.86,0h0c1.07.62,1.07,1.61,0,2.23l-30.86,17.81c-1.07.62-2.79.62-3.86,0h0c-1.07-.62-1.07-1.61,0-2.23Z"/><path class="cls-11" d="M1484.2,670.15c2.66-1.54,6.98-1.54,9.65,0,2.66,1.54,2.66,4.03,0,5.57s-6.98,1.54-9.65,0c-2.66-1.54-2.66-4.03,0-5.57Z"/><path class="cls-13" d="M1498.34,665.33l36.65-21.15c1.07-.62,2.79-.62,3.86,0h0c1.07.62,1.07,1.61,0,2.23l-36.65,21.15c-1.07.62-2.79.62-3.86,0h0c-1.07-.62-1.07-1.61,0-2.23Z"/><path class="cls-4" d="M1502.04,680.45c2.4-1.38,6.28-1.38,8.68,0s2.4,3.63,0,5.01-6.28,1.38-8.68,0-2.4-3.63,0-5.01Z"/><path class="cls-13" d="M1515.7,675.35l26.55-15.32c1.07-.62,2.79-.62,3.86,0h0c1.07.62,1.07,1.61,0,2.23l-26.55,15.32c-1.07.62-2.79.62-3.86,0h0c-1.07-.62-1.07-1.61,0-2.23Z"/><path class="cls-4" d="M1506.15,597.92c2.4-1.38,6.28-1.38,8.68,0s2.4,3.63,0,5.01-6.28,1.38-8.68,0-2.4-3.63,0-5.01Z"/><path class="cls-13" d="M1519.8,592.81l25.69-14.83c1.07-.62,2.79-.62,3.86,0h0c1.07.62,1.07,1.61,0,2.23l-25.69,14.83c-1.07.62-2.79.62-3.86,0h0c-1.07-.62-1.07-1.61,0-2.23Z"/><path class="cls-4" d="M1523.5,607.93c2.4-1.38,6.28-1.38,8.68,0s2.4,3.63,0,5.01-6.28,1.38-8.68,0-2.4-3.63,0-5.01Z"/><path class="cls-13" d="M1537.16,602.84l25.07-14.47c1.07-.62,2.79-.62,3.86,0h0c1.07.62,1.07,1.61,0,2.23l-25.07,14.47c-1.07.62-2.79.62-3.86,0h0c-1.07-.62-1.07-1.61,0-2.23Z"/><path class="cls-4" d="M1540.85,617.96c2.4-1.38,6.28-1.38,8.68,0s2.4,3.63,0,5.01-6.28,1.38-8.68,0-2.4-3.63,0-5.01Z"/><path class="cls-13" d="M1554.52,612.85l25.61-14.78c1.07-.62,2.79-.62,3.86,0h0c1.07.62,1.07,1.61,0,2.23l-25.61,14.78c-1.07.62-2.79.62-3.86,0h0c-1.07-.62-1.07-1.61,0-2.23Z"/><path class="cls-4" d="M1558.22,627.97c2.4-1.38,6.28-1.38,8.68,0s2.4,3.63,0,5.01-6.28,1.38-8.68,0-2.4-3.63,0-5.01Z"/><path class="cls-13" d="M1571.87,622.88l29.89-17.25c1.07-.62,2.79-.62,3.86,0h0c1.07.62,1.07,1.61,0,2.23l-29.89,17.25c-1.07.62-2.79.62-3.86,0h0c-1.07-.62-1.07-1.61,0-2.23Z"/><path class="cls-4" d="M1575.57,638c2.4-1.38,6.28-1.38,8.68,0s2.4,3.63,0,5.01-6.28,1.38-8.68,0-2.4-3.63,0-5.01Z"/><path class="cls-13" d="M1589.23,632.89l29.57-17.07c1.07-.62,2.79-.62,3.86,0h0c1.07.62,1.07,1.61,0,2.23l-29.57,17.07c-1.07.62-2.79.62-3.86,0h0c-1.07-.62-1.07-1.61,0-2.23Z"/><line class="cls-4" x1="1497.23" y1="700.69" x2="1497.23" y2="728.32"/><line class="cls-4" x1="1514.11" y1="728.53" x2="1514.11" y2="701.63"/></g><path id="connector4" class="cls-4" d="M1419.7,667.8l-118.02,66.16c-4.02,2.26-6.51,6.51-6.51,11.12v10.33"/><path class="cls-9" d="M1298.5,748.1v1.51c6.71.6,11.15,2.98,11.15,5.15,0,2.5-5.95,5.3-14.47,5.3s-14.48-2.8-14.48-5.3c0-2.19,4.52-4.59,11.35-5.16v-1.52c-7.42.61-12.84,3.32-12.84,6.68,0,3.81,7.02,6.8,15.98,6.8s15.97-2.99,15.97-6.8c0-3.33-5.34-6.02-12.64-6.66h0Z"/><path id="connector6" class="cls-4" d="M183.31,392.13l-122.15,58.14,87.23,51.89c1.92,1.14,3.1,3.21,3.1,5.44v13.66"/><g id="rompecabezas-2"><path class="cls-2" d="M124.88,137.29c1.89-1.09,4.21-1.09,6.1,0l161.83,93.43c2.68,1.55,4.34,4.41,4.34,7.51v200.86c0,1.99-1.13,3.81-2.92,4.7l-11.61,5.78-23.92-199.06-.02-.14-.11-.08-144.53-106.75,10.83-6.25h0Z"/><path class="cls-3" d="M114.53,143.62l166.82,96.32c.67.38,1.21,1.32,1.21,2.09v206.34c0,.77-.53,1.08-1.2.7l-166.82-96.32c-.67-.38-1.21-1.32-1.21-2.09v-206.34c0-.77.53-1.08,1.2-.7h0Z"/><path class="cls-4" d="M114.53,143.62l166.82,96.32c.67.38,1.21,1.32,1.21,2.09v206.34c0,.77-.53,1.08-1.2.7l-166.82-96.32c-.67-.38-1.21-1.32-1.21-2.09v-206.34c0-.77.53-1.08,1.2-.7h0Z"/><path class="cls-6" d="M170.31,203.51c14.72,7.93,27.63,27.42,30.25,45.64l-10.93-5.01c-1.93-10.91-9.49-22.29-18.2-27.39l-1.12-13.24h0Z"/><path class="cls-13" d="M139.35,224.99c-1.75-20.67,10.61-31.13,27.61-23.4l1.17,13.78c-10.74-4.85-18.52,1.77-17.42,14.82,1.11,13.11,10.77,27.76,21.57,32.72s18.65-1.66,17.54-14.77c0-.05,0-.1,0-.15l11.36,5.21s0,.1,0,.15c1.76,20.73-10.67,31.18-27.74,23.35-17.07-7.84-32.34-30.99-34.09-51.71Z"/><path class="cls-6" d="M138.44,293.48c0-1.42,1-1.99,2.23-1.28l3.71,2.14c1.43.83,2.6,2.84,2.6,4.5v52.23l-8.53-4.93v-52.66h-.01Z"/><path class="cls-7" d="M151.79,315.31c0-1.42,1-1.99,2.23-1.28l3.71,2.14c1.43.83,2.6,2.84,2.6,4.5v38.1l-8.53-4.93v-38.53h-.01Z"/><path class="cls-13" d="M165.13,337.14c0-1.42,1-1.99,2.23-1.28l3.71,2.14c1.43.83,2.6,2.84,2.6,4.5v23.97l-8.53-4.93v-24.4h-.01Z"/><path class="cls-6" d="M178.48,322.16c0-1.42,1-1.99,2.23-1.28l3.71,2.14c1.43.83,2.6,2.84,2.6,4.5v46.66l-8.53-4.93v-47.09h-.01Z"/><path class="cls-13" d="M191.83,344.85c0-1.42,1-1.99,2.23-1.28l3.71,2.14c1.43.83,2.6,2.84,2.6,4.5v31.68l-8.53-4.93v-32.11h-.01Z"/><path class="cls-13" d="M222.6,252.35l39.67,22.91c.82.47,1.48,1.62,1.48,2.57h0c0,.95-.66,1.33-1.48.86l-39.67-22.91c-.82-.47-1.48-1.62-1.48-2.57h0c0-.95.66-1.33,1.48-.86h0Z"/><path class="cls-13" d="M222.42,260.8l31.89,18.41c.72.41,1.3,1.42,1.3,2.25h0c0,.83-.58,1.16-1.3.75l-31.89-18.41c-.72-.41-1.3-1.42-1.3-2.25h0c0-.83.58-1.16,1.3-.75Z"/><path class="cls-13" d="M222.6,269.05l21.87,12.63c.82.47,1.48,1.62,1.48,2.57h0c0,.95-.66,1.33-1.48.86l-21.87-12.63c-.82-.47-1.48-1.62-1.48-2.57h0c0-.95.66-1.33,1.48-.86Z"/><path class="cls-13" d="M222.42,277.51l33.37,19.26c.72.41,1.3,1.42,1.3,2.25h0c0,.83-.58,1.16-1.3.75l-33.37-19.26c-.72-.41-1.3-1.42-1.3-2.25h0c0-.83.58-1.16,1.3-.75Z"/><path class="cls-13" d="M222.6,285.74l36.71,21.19c.82.47,1.48,1.62,1.48,2.57h0c0,.95-.66,1.33-1.48.86l-36.71-21.19c-.82-.47-1.48-1.62-1.48-2.57h0c0-.95.66-1.33,1.48-.86Z"/><path class="cls-13" d="M222.6,356.39l36.71,21.19c.82.47,1.48,1.62,1.48,2.57h0c0,.95-.66,1.33-1.48.86l-36.71-21.19c-.82-.47-1.48-1.62-1.48-2.57h0c0-.95.66-1.33,1.48-.86Z"/><path class="cls-13" d="M222.42,364.84l31.89,18.41c.72.41,1.3,1.42,1.3,2.25h0c0,.83-.58,1.16-1.3.75l-31.89-18.41c-.72-.41-1.3-1.42-1.3-2.25h0c0-.83.58-1.16,1.3-.75Z"/><path class="cls-13" d="M222.6,373.08l21.87,12.63c.82.47,1.48,1.62,1.48,2.57h0c0,.95-.66,1.33-1.48.86l-21.87-12.63c-.82-.47-1.48-1.62-1.48-2.57h0c0-.95.66-1.33,1.48-.86Z"/><path class="cls-13" d="M222.42,381.54l33.37,19.26c.72.41,1.3,1.42,1.3,2.25h0c0,.83-.58,1.16-1.3.75l-33.37-19.26c-.72-.41-1.3-1.42-1.3-2.25h0c0-.83.58-1.16,1.3-.75Z"/><path class="cls-13" d="M222.6,389.78l16.31,9.42c.82.47,1.48,1.62,1.48,2.57h0c0,.95-.66,1.33-1.48.86l-16.31-9.42c-.82-.47-1.48-1.62-1.48-2.57h0c0-.95.66-1.33,1.48-.86Z"/><line class="cls-4" x1="277.86" y1="237.92" x2="293.54" y2="231.2"/><line class="cls-4" x1="282.56" y1="243.81" x2="297.13" y2="237.53"/></g><path class="cls-9" d="M152.95,506.5v1.5c10.26,0,17.14,3.24,17.14,6.26,0,.51-.19,1.02-.57,1.52l1.2.86c.57-.75.87-1.55.87-2.38,0-4.35-8.19-7.76-18.64-7.76h0ZM152.95,520.52c-10.25,0-17.13-3.23-17.13-6.26,0-2.64,5.26-5.45,13.42-6.11v-1.51c-8.62.71-14.92,3.8-14.92,7.62,0,4.35,8.19,7.76,18.63,7.76,5.92,0,11.11-1.09,14.49-2.83-.45-.31-.93-.64-1.39-.95-3.02,1.34-7.57,2.28-13.1,2.28Z"/><path id="connector5" class="cls-4" d="M390.2,652.97l-227.57-138.94c-1.94-1.19-4.44.21-4.44,2.49v4.37"/><g id="ia"><path class="cls-2" d="M555.62,681.62c0,1.17-.63,2.25-1.64,2.84l-134.24,77.59c-2.9,1.67-6.47,1.67-9.36-.01l-120.55-70.06c-.97-.57-1.59-1.59-1.63-2.72l-.42-12.13,126.87,63.83.34.17.34-.18,140.27-72.9v13.57h.01Z"/><g class="cls-12"><path class="cls-3" d="M432.06,595.21l123.04,71.03c1.93,1.11,1.93,2.92,0,4.03l-137.09,79.15c-1.93,1.11-5.06,1.11-6.99,0l-123.04-71.03c-1.93-1.11-1.93-2.92,0-4.03l137.09-79.15c1.93-1.11,5.06-1.11,6.99,0Z"/><path class="cls-9" d="M527.15,686.4l1.31-.76-130.03-75.06-1.31.76-.26.15,129.88,75.14.4-.23h0Z"/><path class="cls-4" d="M433.15,608.69c2.53,1.46,2.53,3.83,0,5.3s-6.64,1.46-9.17,0-2.53-3.83,0-5.3,6.64-1.46,9.17,0Z"/><path class="cls-4" d="M454.98,621.3c2.53,1.46,2.53,3.83,0,5.3s-6.64,1.46-9.17,0-2.53-3.83,0-5.3,6.64-1.46,9.17,0Z"/><path class="cls-4" d="M476.82,633.9c2.53,1.46,2.53,3.83,0,5.3-2.53,1.46-6.64,1.46-9.17,0s-2.53-3.83,0-5.3,6.64-1.46,9.17,0Z"/><path class="cls-4" d="M403.41,637.91l77.73,44.87c1.57.91,1.57,2.37,0,3.28l-67.24,38.82c-1.57.91-4.11.91-5.68,0l-77.73-44.87c-1.57-.91-1.57-2.37,0-3.28l67.24-38.82c1.57-.91,4.11-.91,5.68,0Z"/><path class="cls-7" d="M455.84,682.25c.97.56.97,1.46,0,2.02l-45.06,26.01c-.97.56-2.53.56-3.49,0l-5.3-3.06c-.97-.56-.97-1.46,0-2.02l45.06-26.01c.97-.56,2.53-.56,3.49,0l5.3,3.06Z"/><path class="cls-7" d="M423.44,663.54l-7.15-4.13c-1.11-.64-2.8-.81-4.22-.42l-58.56,16.21c-2.31.64-2.83,2.39-1.02,3.43l3.8,2.2c1.12.65,2.84.81,4.27.4l13.59-3.9,18.26,10.53-6.76,7.86c-.71.83-.43,1.82.7,2.47l3.8,2.2c1.81,1.04,4.87.74,5.97-.59l28.04-33.82c.68-.82.39-1.8-.72-2.44ZM409.97,667.47l-12.86,14.94-13.52-7.8,25.88-7.43c.14-.04.32-.03.43.04.11.07.14.17.07.25Z"/></g><path class="cls-4" d="M431.4,595.59l123.04,71.03c1.57.91,1.57,2.37,0,3.28l-137.09,79.15c-1.57.91-4.11.91-5.68,0l-123.04-71.03c-1.57-.91-1.57-2.37,0-3.28l137.09-79.15c1.57-.91,4.11-.91,5.68,0h0Z"/><line class="cls-4" x1="407.44" y1="746.6" x2="407.44" y2="760.32"/><line class="cls-4" x1="420.83" y1="747.03" x2="420.83" y2="761.42"/></g></svg>