<?xml version="1.0" encoding="UTF-8"?><svg id="Capa_1" xmlns="http://www.w3.org/2000/svg" width="15.86in" height="10.94in" xmlns:xlink="http://www.w3.org/1999/xlink" viewBox="0 0 1142 788"><defs><style>.cls-1{mask:url(#mask-1);}.cls-2,.cls-3{fill:#fff;}.cls-4{mask:url(#mask);}.cls-5,.cls-6,.cls-7{fill:none;}.cls-8{mask:url(#mask-2);}.cls-9{fill:rgba(217,217,217,.4);}.cls-10{clip-path:url(#clippath-1);}.cls-11{fill:#9a9a94;}.cls-12{clip-path:url(#clippath-3);}.cls-6,.cls-3{stroke-width:1.5px;}.cls-6,.cls-3,.cls-7{stroke:#9a9a94;}.cls-13{clip-path:url(#clippath-2);}.cls-14{clip-path:url(#clippath);}.cls-15{fill:#d9d9d9;}.cls-16{mask:url(#mask-3);}</style><clipPath id="clippath"><path class="cls-5" d="M680.46,11l438.15,252.99c1.91,1.1,3.46,3.79,3.46,6v377.13c.01,2.21-1.54,3.1-3.45,2l-438.15-252.99c-1.91-1.1-3.46-3.79-3.46-6V13c-.01-2.21,1.54-3.1,3.45-2Z"/></clipPath><mask id="mask" x="677" y="9" width="445.08" height="294.49" maskUnits="userSpaceOnUse"><g id="path-4-inside-1_721_2946"><path class="cls-2" d="M677,9l445.08,256.99v36L677,45V9Z"/></g></mask><clipPath id="clippath-1"><path class="cls-5" d="M196.13,606l120.37,69.49c1.91,1.1,1.91,2.9,0,4l-156.74,90.49c-1.91,1.1-5.02,1.1-6.93,0l-120.37-69.49c-1.91-1.1-1.91-2.9,0-4l156.74-90.49c1.91-1.1,5.02-1.1,6.93,0Z"/></clipPath><mask id="mask-1" x="160.19" y="604" width="159.77" height="92.24" maskUnits="userSpaceOnUse"><g id="path-27-inside-2_721_2946"><path class="cls-2" d="M192.67,604l127.3,73.49-31.18,18-127.29-73.49,31.18-18Z"/></g></mask><clipPath id="clippath-2"><path class="cls-5" d="M146.35,303l204.37,117.98c1.91,1.1,1.91,2.9,0,4l-135.95,78.49c-1.91,1.1-5.02,1.1-6.93,0L3.47,385.49c-1.91-1.1-1.91-2.9,0-4l135.95-78.49c1.91-1.1,5.02-1.1,6.93,0Z"/></clipPath><mask id="mask-2" x="110.41" y="301" width="243.77" height="140.73" maskUnits="userSpaceOnUse"><g id="path-43-inside-3_721_2946"><path class="cls-2" d="M142.88,301l211.29,121.98-31.18,18-211.29-121.98,31.18-18Z"/></g></mask><clipPath id="clippath-3"><path class="cls-5" d="M567,150.84c0-2.21,1.55-3.1,3.46-2l364.06,210.2c1.91,1.11,3.46,3.79,3.46,6v295.97c.01,2.21-1.54,3.1-3.45,2l-364.06-210.2c-1.91-1.1-3.46-3.79-3.46-6V150.84Z"/></clipPath><mask id="mask-3" x="567" y="146.84" width="370.99" height="251.7" maskUnits="userSpaceOnUse"><g id="path-63-inside-4_721_2946"><path class="cls-2" d="M567,146.84l370.98,214.2v36s-370.98-214.2-370.98-214.2v-36Z"/></g></mask></defs><g id="screen2"><path class="cls-3" d="M696.88,1.77c1-.56,2.22-.55,3.22.02l435.35,251.63c3.17,1.83,5.12,5.21,5.12,8.87v373.44c0,1.19-.66,2.28-1.7,2.85l-17.63,9.66-2.99-379.24v-.23l-.14-.19-3.5-5-.09-.14-.14-.08L679.52,11.51l17.36-9.74Z"/><g class="cls-14"><path class="cls-2" d="M680.46,11l438.15,252.99c1.91,1.1,3.46,3.79,3.46,6v377.13c.01,2.21-1.54,3.1-3.45,2l-438.15-252.99c-1.91-1.1-3.46-3.79-3.46-6V13c-.01-2.21,1.54-3.1,3.45-2Z"/><g class="cls-4"><path class="cls-11" d="M1122.08,301.99v-1.5L677,43.5v3l445.08,256.99v-1.5Z"/></g><path class="cls-6" d="M692.59,30.75c2.51,1.45,4.55,4.98,4.55,7.88s-2.04,4.07-4.55,2.62-4.55-4.98-4.55-7.88,2.04-4.07,4.55-2.62Z"/><path class="cls-6" d="M714.24,43.25c2.51,1.45,4.55,4.98,4.55,7.88s-2.04,4.07-4.55,2.62-4.55-4.98-4.55-7.88,2.04-4.07,4.55-2.62Z"/><path class="cls-6" d="M735.89,55.75c2.51,1.45,4.55,4.98,4.55,7.88s-2.04,4.07-4.55,2.62-4.55-4.98-4.55-7.88,2.04-4.07,4.55-2.62Z"/><path class="cls-7" d="M711.64,112.5l101.02,58.33c3.59,2.07,6.5,7.11,6.5,11.25v109c0,4.14-2.9,5.82-6.49,3.75l-101.02-58.33c-3.59-2.07-6.5-7.11-6.5-11.25v-109c0-4.14,2.9-5.82,6.49-3.75Z"/><path class="cls-15" d="M707.75,244.75l47.63,27.5c1.67.97,3.03,3.32,3.03,5.25h0c0,1.93-1.36,2.72-3.03,1.75l-47.63-27.5c-1.67-.97-3.03-3.32-3.03-5.25h0c0-1.93,1.36-2.72,3.03-1.75Z"/><path class="cls-15" d="M707.75,261.75l124.71,72c1.67.97,3.03,3.32,3.03,5.25h0c0,1.93-1.36,2.72-3.03,1.75l-124.71-72c-1.67-.97-3.03-3.32-3.03-5.25h0c0-1.93,1.36-2.72,3.03-1.75Z"/><path class="cls-15" d="M707.75,278.75l108.25,62.5c1.67.97,3.03,3.32,3.03,5.25h0c0,1.93-1.36,2.72-3.03,1.75l-108.25-62.5c-1.67-.97-3.03-3.32-3.03-5.25h0c0-1.93,1.36-2.72,3.03-1.75Z"/><path class="cls-15" d="M707.75,295.75l62.35,36c1.67.97,3.03,3.32,3.03,5.25h0c0,1.93-1.36,2.72-3.03,1.75l-62.35-36c-1.67-.97-3.03-3.32-3.03-5.25h0c0-1.93,1.36-2.72,3.03-1.75Z"/><path class="cls-7" d="M849.03,191.83l101.02,58.33c3.59,2.07,6.5,7.11,6.5,11.25v109c0,4.14-2.9,5.82-6.49,3.75l-101.02-58.33c-3.59-2.07-6.5-7.11-6.5-11.25v-109c0-4.14,2.9-5.82,6.49-3.75Z"/><path class="cls-15" d="M845.14,324.08l116.05,67c1.67.97,3.03,3.32,3.03,5.25h0c0,1.93-1.36,2.72-3.03,1.75l-116.05-67c-1.67-.97-3.03-3.32-3.03-5.25h0c0-1.93,1.36-2.72,3.03-1.75Z"/><path class="cls-15" d="M845.14,341.08l87.47,50.5c1.67.97,3.03,3.32,3.03,5.25h0c0,1.93-1.36,2.72-3.03,1.75l-87.47-50.5c-1.67-.97-3.03-3.32-3.03-5.25h0c0-1.93,1.36-2.72,3.03-1.75Z"/><path class="cls-15" d="M845.14,358.08l103.92,60c1.67.97,3.03,3.32,3.03,5.25h0c0,1.93-1.36,2.72-3.03,1.75l-103.92-60c-1.67-.97-3.03-3.32-3.03-5.25h0c0-1.93,1.36-2.72,3.03-1.75Z"/><path class="cls-15" d="M845.14,375.08l81.4,47c1.67.97,3.03,3.32,3.03,5.25h0c0,1.93-1.36,2.72-3.03,1.75l-81.4-47c-1.67-.97-3.03-3.32-3.03-5.25h0c0-1.93,1.36-2.72,3.03-1.75Z"/><path class="cls-15" d="M986.43,270.66l101.02,58.33c3.83,2.21,6.93,7.58,6.93,12v109c0,4.42-3.1,6.21-6.92,4l-101.02-58.33c-3.83-2.21-6.93-7.58-6.93-12v-109c0-4.42,3.1-6.21,6.92-4Z"/><path class="cls-15" d="M982.53,403.41l76.21,44c1.67.97,3.03,3.32,3.03,5.25h0c0,1.93-1.36,2.72-3.03,1.75l-76.21-44c-1.67-.97-3.03-3.32-3.03-5.25h0c0-1.93,1.36-2.72,3.03-1.75Z"/><path class="cls-15" d="M982.53,420.41l114.31,66c1.67.97,3.03,3.32,3.03,5.25h0c0,1.93-1.36,2.72-3.03,1.75l-114.31-66c-1.67-.97-3.03-3.32-3.03-5.25h0c0-1.93,1.36-2.72,3.03-1.75Z"/><path class="cls-15" d="M982.54,437.41l122.97,71c1.67.97,3.03,3.32,3.03,5.25h0c0,1.93-1.36,2.72-3.03,1.75l-122.97-71c-1.67-.97-3.03-3.32-3.03-5.25h0c0-1.93,1.36-2.72,3.03-1.75Z"/><path class="cls-15" d="M982.54,454.41l79.67,46c1.67.97,3.03,3.32,3.03,5.25h0c0,1.93-1.36,2.72-3.03,1.75l-79.67-46c-1.67-.97-3.03-3.32-3.03-5.25h0c0-1.93,1.36-2.72,3.03-1.75Z"/></g><path class="cls-6" d="M680.46,11.75l438.15,252.99c1.55.9,2.81,3.08,2.81,4.88v377.13c.01,1.79-1.25,2.52-2.8,1.62l-438.15-252.99c-1.55-.9-2.81-3.08-2.81-4.88V13.38c-.01-1.79,1.25-2.52,2.8-1.62Z"/></g><g id="code"><path class="cls-3" d="M316.75,692.19c0,1.16-.62,2.23-1.62,2.81l-154.2,89.26c-2.85,1.65-6.37,1.66-9.23.02l-117.89-67.42c-1.01-.58-1.64-1.66-1.64-2.82v-14.78s123.4,68.46,123.4,68.46v.96l1.12-.63,160.06-89.78v13.91Z"/><g class="cls-10"><path class="cls-2" d="M196.13,606l120.37,69.49c1.91,1.1,1.91,2.9,0,4l-156.74,90.49c-1.91,1.1-5.02,1.1-6.93,0l-120.37-69.49c-1.91-1.1-1.91-2.9,0-4l156.74-90.49c1.91-1.1,5.02-1.1,6.93,0Z"/><g class="cls-1"><path class="cls-11" d="M288.78,695.49l1.3-.75-127.3-73.49-1.3.75-1.3.75,127.3,73.49,1.3-.75Z"/></g><path class="cls-6" d="M197.21,619.37c2.51,1.45,2.51,3.8,0,5.25s-6.58,1.45-9.09,0-2.51-3.8,0-5.25,6.58-1.45,9.09,0Z"/><path class="cls-6" d="M218.86,631.87c2.51,1.45,2.51,3.8,0,5.25s-6.58,1.45-9.09,0-2.51-3.8,0-5.25,6.58-1.45,9.09,0Z"/><path class="cls-6" d="M240.51,644.37c2.51,1.45,2.51,3.8,0,5.25s-6.58,1.45-9.09,0-2.51-3.8,0-5.25,6.58-1.45,9.09,0Z"/><path class="cls-15" d="M219.15,705.81c-1.35.78-3.36,1.03-5.16.65l-29.47-6.26c-3.01-.64-3.85-2.86-1.59-4.17,1.24-.72,3.1-.94,4.73-.56l24.05,5.55c.08.02.07.09-.01.1-.09.01-.15-.05-.09-.09l.42-.24c.07-.04.17,0,.15.05-.02.05-.14.05-.17,0l-9.61-13.88c-.65-.94-.27-2.02.97-2.73,2.26-1.31,6.11-.82,7.22.92l10.85,17.01c.66,1.04.22,2.2-1.13,2.98l-1.16.67Z"/><path class="cls-15" d="M209.15,669.52c1.96,1.13,1.52,3.02-.87,3.82l-52.91,17.59c-1.65.55-3.73.39-5.07-.39-1.96-1.13-1.52-3.02.88-3.82l52.91-17.59c1.65-.55,3.73-.39,5.07.39Z"/><path class="cls-15" d="M133.91,660.23c-.66-1.04-.22-2.2,1.13-2.98l1.16-.67c1.35-.78,3.36-1.04,5.16-.65l29.47,6.26c3.01.64,3.85,2.86,1.59,4.17-1.24.72-3.1.94-4.73.56l-24.05-5.55c-.08-.02-.07-.09.01-.1.09-.01.15.05.09.09l-.42.24c-.07.04-.17,0-.15-.05.02-.05.14-.05.17,0l9.61,13.88c.65.94.27,2.01-.97,2.73-2.26,1.31-6.11.82-7.22-.92l-10.85-17.02Z"/><path class="cls-15" d="M99.13,680.99l87.47,50.5c1.43.83,1.43,2.17,0,3h0c-1.43.83-3.76.83-5.2,0l-87.47-50.5c-1.43-.83-1.43-2.17,0-3h0c1.43-.83,3.76-.83,5.2,0Z"/><path class="cls-15" d="M85.27,688.99l55.43,32c1.43.83,1.43,2.17,0,3h0c-1.43.83-3.76.83-5.2,0l-55.43-32c-1.43-.83-1.43-2.17,0-3h0c1.43-.83,3.76-.83,5.2,0Z"/><path class="cls-15" d="M71.41,696.99l72.75,42c1.43.83,1.43,2.17,0,3h0c-1.43.83-3.76.83-5.2,0l-72.75-42c-1.43-.83-1.43-2.17,0-3h0c1.43-.83,3.76-.83,5.2,0Z"/></g><path class="cls-6" d="M195.48,606.37l120.37,69.49c1.55.9,1.55,2.35,0,3.25l-156.74,90.49c-1.55.9-4.07.9-5.63,0l-120.37-69.49c-1.55-.9-1.55-2.35,0-3.25l156.74-90.49c1.55-.9,4.07-.9,5.63,0Z"/></g><path id="connector3" class="cls-6" d="M241,739l63,36,179-106.5"/><path id="connector2" class="cls-6" d="M280.5,472l206,114"/><g id="IA"><path class="cls-3" d="M211.41,495.53l.35.19.35-.18,139.1-72.3v13.46c0,1.16-.62,2.23-1.62,2.81l-133.11,76.94c-2.87,1.66-6.41,1.66-9.28-.01L5.32,398.96c-.97-.56-1.57-1.58-1.61-2.7l-.41-11.99,208.12,111.25Z"/><g class="cls-13"><path class="cls-2" d="M146.35,303l204.37,117.98c1.91,1.1,1.91,2.9,0,4l-135.95,78.49c-1.91,1.1-5.02,1.1-6.93,0L3.47,385.49c-1.91-1.1-1.91-2.9,0-4l135.95-78.49c1.91-1.1,5.02-1.1,6.93,0Z"/><g class="cls-8"><path class="cls-11" d="M323,440.98l1.3-.75-211.29-121.98-1.3.75-1.3.75,211.29,121.98,1.3-.75Z"/></g><path class="cls-6" d="M147.43,316.37c2.51,1.45,2.51,3.8,0,5.25s-6.58,1.45-9.09,0-2.51-3.8,0-5.25,6.58-1.45,9.09,0Z"/><path class="cls-6" d="M169.08,328.87c2.51,1.45,2.51,3.8,0,5.25s-6.58,1.45-9.09,0-2.51-3.8,0-5.25,6.58-1.45,9.09,0Z"/><path class="cls-6" d="M190.73,341.37c2.51,1.45,2.51,3.8,0,5.25s-6.58,1.45-9.09,0-2.51-3.8,0-5.25,6.58-1.45,9.09,0Z"/><path class="cls-6" d="M112.79,342.37l77.08,44.5c1.55.9,1.55,2.35,0,3.25l-66.69,38.5c-1.55.9-4.07.9-5.63,0l-77.08-44.5c-1.55-.9-1.55-2.35,0-3.25l66.69-38.5c1.55-.9,4.07-.9,5.63,0Z"/><path class="cls-15" d="M164.79,386.35c.96.55.96,1.45,0,2l-44.69,25.8c-.96.55-2.51.55-3.46,0l-5.26-3.04c-.96-.55-.96-1.45,0-2l44.69-25.8c.96-.55,2.51-.55,3.46,0l5.26,3.04Z"/><path class="cls-15" d="M70.3,385.34c-1.41.41-3.12.24-4.24-.4l-3.77-2.18c-1.79-1.03-1.27-2.78,1.01-3.41l58.07-16.07c1.41-.39,3.08-.22,4.19.41l7.09,4.09c1.1.64,1.39,1.6.72,2.42l-27.81,33.54c-1.09,1.32-4.12,1.62-5.91.58l-3.77-2.18c-1.12-.64-1.39-1.63-.69-2.44l24.12-28.02c.07-.08.04-.18-.07-.25s-.28-.08-.43-.04l-48.51,13.94ZM84.52,376.8c1.43-.83,3.76-.83,5.2,0l20.19,11.66c1.44.83,1.44,2.17,0,3l-1.81,1.04c-1.43.83-3.76.83-5.2,0l-20.19-11.66c-1.43-.83-1.43-2.17,0-3l1.81-1.05Z"/><path class="cls-15" d="M203.94,405.74l70.13,40.49c1.43.83,1.43,2.17,0,3h0c-1.43.83-3.76.83-5.2,0l-70.13-40.49c-1.43-.83-1.43-2.17,0-3h0c1.43-.83,3.76-.83,5.2,0Z"/><path class="cls-15" d="M191.81,412.74l55.43,32c1.43.83,1.43,2.17,0,3h0c-1.43.83-3.76.83-5.2,0l-55.43-32c-1.43-.83-1.43-2.17,0-3h0c1.43-.83,3.76-.83,5.2,0Z"/><path class="cls-15" d="M179.69,419.74l38.97,22.5c1.43.83,1.43,2.17,0,3h0c-1.43.83-3.76.83-5.2,0l-38.97-22.5c-1.43-.83-1.43-2.17,0-3h0c1.43-.83,3.76-.83,5.2,0Z"/><path class="cls-15" d="M167.57,426.74l58.02,33.5c1.43.83,1.43,2.17,0,3h0c-1.43.83-3.76.83-5.2,0l-58.02-33.5c-1.43-.83-1.43-2.17,0-3h0c1.43-.83,3.76-.83,5.2,0Z"/><path class="cls-15" d="M155.44,433.74l64.95,37.5c1.43.83,1.43,2.17,0,3h0c-1.43.83-3.76.83-5.2,0l-64.95-37.5c-1.43-.83-1.43-2.17,0-3h0c1.43-.83,3.76-.83,5.2,0Z"/></g><path class="cls-6" d="M145.7,303.37l204.37,117.98c1.55.9,1.55,2.35,0,3.25l-135.95,78.49c-1.55.9-4.07.9-5.63,0L4.11,385.11c-1.55-.9-1.55-2.35,0-3.25l135.95-78.49c1.55-.9,4.07-.9,5.63,0Z"/></g><path id="connecto1" class="cls-6" d="M571,598.5l147-88"/><g id="centerBox"><path class="cls-3" d="M426.35,613.83c.99-.6,2.23-.62,3.25-.06l102.62,56.86c1.38.77,3.05.79,4.46.08l107.88-54.91c.24-.12.53,0,.62.25.01.04.02.09.02.14v22.5c0,1.16-.62,2.23-1.62,2.81l-106.78,62.05c-1.01.59-2.26.59-3.27,0l-107.76-62.58c-.98-.57-1.6-1.61-1.62-2.75l-.41-20.93c-.02-1.16.58-2.25,1.58-2.85l1.04-.62Z"/><path class="cls-3" d="M537.26,552.37l106.51,61.49c1.55.9,1.55,2.35,0,3.25l-106.51,61.49c-1.55.9-4.07.9-5.63,0l-106.51-61.49c-1.55-.9-1.55-2.35,0-3.25l106.51-61.49c1.55-.9,4.07-.9,5.63,0Z"/></g><path id="shadow" class="cls-9" d="M677,162.71l284.11,164.04c4.78,2.76,8.66,9.48,8.66,15v222.07s-292.76-169.04-292.76-169.04v-232.06Z"/><g id="screen"><path class="cls-3" d="M934.38,362.51l-.38-.21-12.63-7.11-351.87-206.34,9-5.15h0c.82-.47,1.93-.73,3.09-.73,1.09,0,2.13.23,2.93.64l.16.09,360.71,208.31c2.24,1.3,3.62,3.69,3.62,6.28v293.24c0,.94-.34,2.04-.92,3.04-.58,1-1.36,1.84-2.17,2.31h0s-9.62,5.72-9.62,5.72c-.09-.12-.2-.33-.34-.67-.33-.85-.62-2.14-.85-3.59-.47-2.89-.71-6.18-.71-7.24v-288.59Z"/><g class="cls-12"><path class="cls-2" d="M567,150.84c0-2.21,1.55-3.1,3.46-2l364.06,210.2c1.91,1.11,3.46,3.79,3.46,6v295.97c.01,2.21-1.54,3.1-3.45,2l-364.06-210.2c-1.91-1.1-3.46-3.79-3.46-6V150.84Z"/><g class="cls-16"><path class="cls-11" d="M937.99,397.05v-1.5l-370.99-214.2v3l370.99,214.2v-1.5Z"/></g><path class="cls-6" d="M582.59,168.6c2.51,1.45,4.55,4.98,4.55,7.88s-2.04,4.07-4.55,2.62-4.55-4.98-4.55-7.88,2.04-4.07,4.55-2.62Z"/><path class="cls-6" d="M604.24,181.1c2.51,1.45,4.55,4.98,4.55,7.88s-2.04,4.07-4.55,2.62-4.55-4.98-4.55-7.88,2.04-4.07,4.55-2.62Z"/><path class="cls-6" d="M625.89,193.6c2.51,1.45,4.55,4.98,4.55,7.88s-2.04,4.07-4.55,2.62-4.55-4.98-4.55-7.88,2.04-4.07,4.55-2.62Z"/><path class="cls-15" d="M674.39,299.83l66.68,38.5c1.43.83,2.6,2.84,2.6,4.5h0c0,1.66-1.16,2.33-2.6,1.5l-66.68-38.5c-1.43-.83-2.6-2.84-2.6-4.5h0c0-1.66,1.16-2.33,2.6-1.5Z"/><path class="cls-7" d="M680.45,321.83l144.09,83.2c4.54,2.62,8.23,9,8.23,14.25v15c0,5.25-3.68,7.37-8.23,4.75l-144.09-83.2c-4.54-2.62-8.23-9-8.23-14.25v-15c0-5.25,3.68-7.37,8.23-4.75Z"/><path class="cls-15" d="M674.39,364.83l40.7,23.5c1.43.83,2.6,2.84,2.6,4.5h0c0,1.66-1.16,2.33-2.6,1.5l-40.7-23.5c-1.43-.83-2.6-2.84-2.6-4.5h0c0-1.66,1.16-2.33,2.6-1.5Z"/><path class="cls-7" d="M680.45,386.83l144.09,83.2c4.54,2.62,8.23,9,8.23,14.25v15c0,5.25-3.68,7.37-8.23,4.75l-144.09-83.2c-4.54-2.62-8.23-9-8.23-14.25v-15c0-5.25,3.68-7.37,8.23-4.75Z"/><path class="cls-11" d="M684.43,406.81l.06-1.84-1.37.21-.36-.92,1.45-.03-1.45-1.7.36-.51,1.37,1.8-.06-1.91.71.41-.06,1.84,1.37-.21.35.92-1.45.03,1.45,1.7-.35.51-1.37-1.8.06,1.91-.71-.41ZM689.63,409.81l.06-1.84-1.37.21-.35-.92,1.45-.03-1.45-1.7.36-.51,1.37,1.8-.06-1.91.71.41-.06,1.84,1.37-.21.35.92-1.45.03,1.45,1.7-.35.51-1.37-1.8.06,1.91-.71-.41ZM694.82,412.81l.06-1.84-1.37.21-.35-.92,1.45-.03-1.45-1.7.35-.51,1.37,1.8-.06-1.91.71.41-.06,1.84,1.37-.21.35.92-1.45.03,1.45,1.7-.35.51-1.37-1.8.06,1.91-.71-.41ZM700.02,415.81l.06-1.84-1.37.21-.35-.92,1.45-.03-1.45-1.7.35-.51,1.37,1.8-.06-1.91.71.41-.06,1.84,1.37-.21.35.92-1.45.03,1.45,1.7-.35.51-1.37-1.8.06,1.91-.71-.41ZM705.21,418.81l.06-1.84-1.37.21-.35-.92,1.45-.03-1.45-1.7.35-.51,1.37,1.8-.06-1.91.71.41-.06,1.84,1.37-.21.35.92-1.45.03,1.45,1.7-.35.51-1.37-1.8.06,1.91-.71-.41ZM710.41,421.81l.06-1.84-1.37.21-.35-.92,1.45-.03-1.45-1.7.35-.51,1.37,1.8-.06-1.91.71.41-.06,1.84,1.37-.21.35.92-1.45.03,1.45,1.7-.35.51-1.37-1.8.06,1.91-.71-.41ZM715.61,424.81l.06-1.84-1.37.21-.35-.92,1.45-.03-1.45-1.7.35-.51,1.37,1.8-.06-1.91.71.41-.06,1.84,1.37-.21.35.92-1.45.03,1.45,1.7-.35.51-1.37-1.8.06,1.91-.71-.41ZM720.8,427.81l.06-1.84-1.37.21-.35-.92,1.45-.03-1.45-1.71.35-.51,1.37,1.8-.06-1.91.71.41-.06,1.84,1.37-.21.35.92-1.45.03,1.45,1.7-.36.51-1.37-1.8.06,1.91-.71-.41ZM726,430.81l.06-1.84-1.37.21-.35-.92,1.45-.03-1.45-1.71.35-.51,1.37,1.8-.06-1.91.71.41-.06,1.84,1.37-.21.35.92-1.45.03,1.45,1.7-.35.51-1.37-1.8.06,1.91-.71-.41ZM731.19,433.81l.06-1.84-1.37.21-.35-.92,1.45-.03-1.45-1.71.35-.51,1.37,1.8-.06-1.91.71.41-.06,1.84,1.37-.21.35.92-1.45.03,1.45,1.7-.35.51-1.37-1.8.06,1.91-.71-.41ZM736.39,436.81l.06-1.84-1.37.21-.35-.92,1.45-.03-1.45-1.71.35-.51,1.37,1.8-.06-1.91.71.41-.06,1.84,1.37-.21.36.92-1.45.03,1.45,1.7-.36.51-1.37-1.8.06,1.91-.71-.41ZM741.59,439.81l.06-1.84-1.37.21-.35-.92,1.45-.03-1.45-1.7.35-.51,1.37,1.8-.06-1.91.71.41-.06,1.84,1.37-.21.36.92-1.45.03,1.45,1.7-.36.51-1.37-1.8.06,1.91-.71-.41ZM746.78,442.81l.06-1.84-1.37.21-.35-.92,1.45-.03-1.45-1.7.35-.51,1.37,1.8-.06-1.91.71.41-.06,1.84,1.37-.21.35.92-1.45.03,1.45,1.7-.35.51-1.37-1.8.06,1.91-.71-.41ZM751.98,445.81l.06-1.84-1.37.21-.35-.92,1.45-.03-1.45-1.71.35-.51,1.37,1.8-.06-1.91.71.41-.06,1.84,1.37-.21.35.92-1.45.03,1.45,1.7-.35.51-1.37-1.8.06,1.91-.71-.41Z"/><path class="cls-15" d="M678.72,432.33l76.48,44.16c3.83,2.21,6.93,7.58,6.93,12v12c0,4.42-3.1,6.21-6.93,4l-76.48-44.16c-3.83-2.21-6.93-7.58-6.93-12v-12c0-4.42,3.1-6.21,6.93-4Z"/></g><path class="cls-6" d="M570.46,149.59l364.06,210.2c1.55.9,2.82,3.08,2.82,4.88v295.97c0,1.79-1.25,2.52-2.8,1.62l-364.06-210.2c-1.55-.9-2.82-3.08-2.82-4.88V151.22c0-1.79,1.25-2.52,2.8-1.62Z"/></g></svg>