<?xml version="1.0" encoding="UTF-8"?><svg id="Capa_1" xmlns="http://www.w3.org/2000/svg" width="20.76in" height="10.94in" xmlns:xlink="http://www.w3.org/1999/xlink" viewBox="0 0 1495.01 788"><defs><style>.cls-1{mask:url(#mask-1);}.cls-2,.cls-3{fill:#fff;}.cls-4{mask:url(#mask);}.cls-5,.cls-6,.cls-7{fill:none;}.cls-8{mask:url(#mask-2);}.cls-9{fill:rgba(217,217,217,.4);}.cls-10{clip-path:url(#clippath-1);}.cls-11{fill:#9a9a94;}.cls-12{clip-path:url(#clippath-3);}.cls-6,.cls-3{stroke-width:1.5px;}.cls-6,.cls-3,.cls-7{stroke:#9a9a94;}.cls-13{clip-path:url(#clippath-2);}.cls-14{clip-path:url(#clippath);}.cls-15{fill:#d9d9d9;}.cls-16{mask:url(#mask-3);}</style><clipPath id="clippath"><path class="cls-5" d="M1016.92,15l438.15,252.99c1.91,1.1,3.46,3.79,3.46,6v377.13c.01,2.21-1.54,3.1-3.45,2l-438.15-252.99c-1.91-1.1-3.46-3.79-3.46-6V17c-.01-2.21,1.54-3.1,3.45-2Z"/></clipPath><mask id="mask" x="1013.46" y="13" width="445.08" height="294.49" maskUnits="userSpaceOnUse"><g id="path-4-inside-1_721_2946"><path class="cls-2" d="M1013.46,13l445.08,256.99v36L1013.46,49V13Z"/></g></mask><clipPath id="clippath-1"><path class="cls-5" d="M156.46,147.8l204.37,117.98c1.91,1.1,1.91,2.9,0,4l-135.95,78.49c-1.91,1.1-5.02,1.1-6.93,0L13.58,230.29c-1.91-1.1-1.91-2.9,0-4l135.95-78.49c1.91-1.1,5.02-1.1,6.93,0Z"/></clipPath><mask id="mask-1" x="120.52" y="145.8" width="243.77" height="140.73" maskUnits="userSpaceOnUse"><g id="path-43-inside-3_721_2946"><path class="cls-2" d="M153,145.8l211.29,121.98-31.18,18-211.29-121.98,31.18-18Z"/></g></mask><clipPath id="clippath-2"><path class="cls-5" d="M903.46,154.84c0-2.21,1.55-3.1,3.46-2l364.06,210.2c1.91,1.11,3.46,3.79,3.46,6v295.97c.01,2.21-1.54,3.1-3.45,2l-364.06-210.2c-1.91-1.1-3.46-3.79-3.46-6V154.84Z"/></clipPath><mask id="mask-2" x="903.46" y="150.84" width="370.99" height="251.7" maskUnits="userSpaceOnUse"><g id="path-63-inside-4_721_2946"><path class="cls-2" d="M903.46,150.84l370.98,214.2v36s-370.98-214.2-370.98-214.2v-36Z"/></g></mask><clipPath id="clippath-3"><path class="cls-5" d="M197.98,523.83l120.37,69.49c1.91,1.1,1.91,2.9,0,4l-156.74,90.49c-1.91,1.1-5.02,1.1-6.93,0l-120.37-69.49c-1.91-1.1-1.91-2.9,0-4l156.74-90.49c1.91-1.1,5.02-1.1,6.93,0Z"/></clipPath><mask id="mask-3" x="162.04" y="521.83" width="159.77" height="92.24" maskUnits="userSpaceOnUse"><g id="path-27-inside-2_721_2946"><path class="cls-2" d="M194.52,521.83l127.3,73.49-31.18,18-127.29-73.49,31.18-18Z"/></g></mask></defs><g id="screen2"><path class="cls-3" d="M1033.34,5.77c1-.56,2.22-.55,3.22.02l435.35,251.63c3.17,1.83,5.12,5.21,5.12,8.87v373.44c0,1.19-.66,2.28-1.7,2.85l-17.63,9.66-2.99-379.24v-.23l-.14-.19-3.5-5-.09-.14-.14-.08L1015.98,15.51l17.36-9.74Z"/><g class="cls-14"><path class="cls-2" d="M1016.92,15l438.15,252.99c1.91,1.1,3.46,3.79,3.46,6v377.13c.01,2.21-1.54,3.1-3.45,2l-438.15-252.99c-1.91-1.1-3.46-3.79-3.46-6V17c-.01-2.21,1.54-3.1,3.45-2Z"/><g class="cls-4"><path class="cls-11" d="M1458.54,305.99v-1.5L1013.46,47.5v3l445.08,256.99v-1.5Z"/></g><path class="cls-6" d="M1029.05,34.75c2.51,1.45,4.55,4.98,4.55,7.88s-2.04,4.07-4.55,2.62-4.55-4.98-4.55-7.88,2.04-4.07,4.55-2.62Z"/><path class="cls-6" d="M1050.7,47.25c2.51,1.45,4.55,4.98,4.55,7.88s-2.04,4.07-4.55,2.62-4.55-4.98-4.55-7.88,2.04-4.07,4.55-2.62Z"/><path class="cls-6" d="M1072.35,59.75c2.51,1.45,4.55,4.98,4.55,7.88s-2.04,4.07-4.55,2.62-4.55-4.98-4.55-7.88,2.04-4.07,4.55-2.62Z"/><path class="cls-7" d="M1048.1,116.5l101.02,58.33c3.59,2.07,6.5,7.11,6.5,11.25v109c0,4.14-2.9,5.82-6.49,3.75l-101.02-58.33c-3.59-2.07-6.5-7.11-6.5-11.25v-109c0-4.14,2.9-5.82,6.49-3.75Z"/><path class="cls-15" d="M1044.21,248.75l47.63,27.5c1.67.97,3.03,3.32,3.03,5.25h0c0,1.93-1.36,2.72-3.03,1.75l-47.63-27.5c-1.67-.97-3.03-3.32-3.03-5.25h0c0-1.93,1.36-2.72,3.03-1.75Z"/><path class="cls-15" d="M1044.21,265.75l124.71,72c1.67.97,3.03,3.32,3.03,5.25h0c0,1.93-1.36,2.72-3.03,1.75l-124.71-72c-1.67-.97-3.03-3.32-3.03-5.25h0c0-1.93,1.36-2.72,3.03-1.75Z"/><path class="cls-15" d="M1044.21,282.75l108.25,62.5c1.67.97,3.03,3.32,3.03,5.25h0c0,1.93-1.36,2.72-3.03,1.75l-108.25-62.5c-1.67-.97-3.03-3.32-3.03-5.25h0c0-1.93,1.36-2.72,3.03-1.75Z"/><path class="cls-15" d="M1044.21,299.75l62.35,36c1.67.97,3.03,3.32,3.03,5.25h0c0,1.93-1.36,2.72-3.03,1.75l-62.35-36c-1.67-.97-3.03-3.32-3.03-5.25h0c0-1.93,1.36-2.72,3.03-1.75Z"/><path class="cls-7" d="M1185.49,195.83l101.02,58.33c3.59,2.07,6.5,7.11,6.5,11.25v109c0,4.14-2.9,5.82-6.49,3.75l-101.02-58.33c-3.59-2.07-6.5-7.11-6.5-11.25v-109c0-4.14,2.9-5.82,6.49-3.75Z"/><path class="cls-15" d="M1181.6,328.08l116.05,67c1.67.97,3.03,3.32,3.03,5.25h0c0,1.93-1.36,2.72-3.03,1.75l-116.05-67c-1.67-.97-3.03-3.32-3.03-5.25h0c0-1.93,1.36-2.72,3.03-1.75Z"/><path class="cls-15" d="M1181.6,345.08l87.47,50.5c1.67.97,3.03,3.32,3.03,5.25h0c0,1.93-1.36,2.72-3.03,1.75l-87.47-50.5c-1.67-.97-3.03-3.32-3.03-5.25h0c0-1.93,1.36-2.72,3.03-1.75Z"/><path class="cls-15" d="M1181.6,362.08l103.92,60c1.67.97,3.03,3.32,3.03,5.25h0c0,1.93-1.36,2.72-3.03,1.75l-103.92-60c-1.67-.97-3.03-3.32-3.03-5.25h0c0-1.93,1.36-2.72,3.03-1.75Z"/><path class="cls-15" d="M1181.6,379.08l81.4,47c1.67.97,3.03,3.32,3.03,5.25h0c0,1.93-1.36,2.72-3.03,1.75l-81.4-47c-1.67-.97-3.03-3.32-3.03-5.25h0c0-1.93,1.36-2.72,3.03-1.75Z"/><path class="cls-15" d="M1322.89,274.66l101.02,58.33c3.83,2.21,6.93,7.58,6.93,12v109c0,4.42-3.1,6.21-6.92,4l-101.02-58.33c-3.83-2.21-6.93-7.58-6.93-12v-109c0-4.42,3.1-6.21,6.92-4Z"/><path class="cls-15" d="M1318.99,407.41l76.21,44c1.67.97,3.03,3.32,3.03,5.25h0c0,1.93-1.36,2.72-3.03,1.75l-76.21-44c-1.67-.97-3.03-3.32-3.03-5.25h0c0-1.93,1.36-2.72,3.03-1.75Z"/><path class="cls-15" d="M1318.99,424.41l114.31,66c1.67.97,3.03,3.32,3.03,5.25h0c0,1.93-1.36,2.72-3.03,1.75l-114.31-66c-1.67-.97-3.03-3.32-3.03-5.25h0c0-1.93,1.36-2.72,3.03-1.75Z"/><path class="cls-15" d="M1319,441.41l122.97,71c1.67.97,3.03,3.32,3.03,5.25h0c0,1.93-1.36,2.72-3.03,1.75l-122.97-71c-1.67-.97-3.03-3.32-3.03-5.25h0c0-1.93,1.36-2.72,3.03-1.75Z"/><path class="cls-15" d="M1319,458.41l79.67,46c1.67.97,3.03,3.32,3.03,5.25h0c0,1.93-1.36,2.72-3.03,1.75l-79.67-46c-1.67-.97-3.03-3.32-3.03-5.25h0c0-1.93,1.36-2.72,3.03-1.75Z"/></g><path class="cls-6" d="M1016.92,15.75l438.15,252.99c1.55.9,2.81,3.08,2.81,4.88v377.13c.01,1.79-1.25,2.52-2.8,1.62l-438.15-252.99c-1.55-.9-2.81-3.08-2.81-4.88V17.38c-.01-1.79,1.25-2.52,2.8-1.62Z"/></g><path id="connector3" class="cls-6" d="M231.73,637.53l230.35,131.63,211.34-125.74"/><path id="connector2" class="cls-6" d="M273.02,315.42l400.4,244.85"/><g id="IA"><path class="cls-3" d="M221.53,340.33l.35.19.35-.18,139.1-72.3v13.46c0,1.16-.62,2.23-1.62,2.81l-133.11,76.94c-2.87,1.66-6.41,1.66-9.28-.01L15.44,243.77c-.97-.56-1.57-1.58-1.61-2.7l-.41-11.99,208.12,111.25Z"/><g class="cls-10"><path class="cls-2" d="M156.46,147.8l204.37,117.98c1.91,1.1,1.91,2.9,0,4l-135.95,78.49c-1.91,1.1-5.02,1.1-6.93,0L13.58,230.29c-1.91-1.1-1.91-2.9,0-4l135.95-78.49c1.91-1.1,5.02-1.1,6.93,0Z"/><g class="cls-1"><path class="cls-11" d="M333.11,285.79l1.3-.75-211.29-121.98-1.3.75-1.3.75,211.29,121.98,1.3-.75Z"/></g><path class="cls-6" d="M157.54,161.18c2.51,1.45,2.51,3.8,0,5.25s-6.58,1.45-9.09,0-2.51-3.8,0-5.25,6.58-1.45,9.09,0Z"/><path class="cls-6" d="M179.2,173.68c2.51,1.45,2.51,3.8,0,5.25s-6.58,1.45-9.09,0-2.51-3.8,0-5.25,6.58-1.45,9.09,0Z"/><path class="cls-6" d="M200.85,186.18c2.51,1.45,2.51,3.8,0,5.25s-6.58,1.45-9.09,0-2.51-3.8,0-5.25,6.58-1.45,9.09,0Z"/><path class="cls-6" d="M122.9,187.18l77.08,44.5c1.55.9,1.55,2.35,0,3.25l-66.69,38.5c-1.55.9-4.07.9-5.63,0l-77.08-44.5c-1.55-.9-1.55-2.35,0-3.25l66.69-38.5c1.55-.9,4.07-.9,5.63,0Z"/><path class="cls-15" d="M174.91,231.15c.96.55.96,1.45,0,2l-44.69,25.8c-.96.55-2.51.55-3.46,0l-5.26-3.04c-.96-.55-.96-1.45,0-2l44.69-25.8c.96-.55,2.51-.55,3.46,0l5.26,3.04Z"/><path class="cls-15" d="M80.41,230.14c-1.41.41-3.12.24-4.24-.4l-3.77-2.18c-1.79-1.03-1.27-2.78,1.01-3.41l58.07-16.07c1.41-.39,3.08-.22,4.19.41l7.09,4.09c1.1.64,1.39,1.6.72,2.42l-27.81,33.54c-1.09,1.32-4.12,1.62-5.91.58l-3.77-2.18c-1.12-.64-1.39-1.63-.69-2.44l24.12-28.02c.07-.08.04-.18-.07-.25s-.28-.08-.43-.04l-48.51,13.94ZM94.63,221.6c1.43-.83,3.76-.83,5.2,0l20.19,11.66c1.44.83,1.44,2.17,0,3l-1.81,1.04c-1.43.83-3.76.83-5.2,0l-20.19-11.66c-1.43-.83-1.43-2.17,0-3l1.81-1.05Z"/><path class="cls-15" d="M214.05,250.55l70.13,40.49c1.43.83,1.43,2.17,0,3h0c-1.43.83-3.76.83-5.2,0l-70.13-40.49c-1.43-.83-1.43-2.17,0-3h0c1.43-.83,3.76-.83,5.2,0Z"/><path class="cls-15" d="M201.93,257.55l55.43,32c1.43.83,1.43,2.17,0,3h0c-1.43.83-3.76.83-5.2,0l-55.43-32c-1.43-.83-1.43-2.17,0-3h0c1.43-.83,3.76-.83,5.2,0Z"/><path class="cls-15" d="M189.8,264.55l38.97,22.5c1.43.83,1.43,2.17,0,3h0c-1.43.83-3.76.83-5.2,0l-38.97-22.5c-1.43-.83-1.43-2.17,0-3h0c1.43-.83,3.76-.83,5.2,0Z"/><path class="cls-15" d="M177.68,271.55l58.02,33.5c1.43.83,1.43,2.17,0,3h0c-1.43.83-3.76.83-5.2,0l-58.02-33.5c-1.43-.83-1.43-2.17,0-3h0c1.43-.83,3.76-.83,5.2,0Z"/><path class="cls-15" d="M165.56,278.55l64.95,37.5c1.43.83,1.43,2.17,0,3h0c-1.43.83-3.76.83-5.2,0l-64.95-37.5c-1.43-.83-1.43-2.17,0-3h0c1.43-.83,3.76-.83,5.2,0Z"/></g><path class="cls-6" d="M155.81,148.18l204.37,117.98c1.55.9,1.55,2.35,0,3.25l-135.95,78.49c-1.55.9-4.07.9-5.63,0L14.23,229.92c-1.55-.9-1.55-2.35,0-3.25l135.95-78.49c1.55-.9,4.07-.9,5.63,0Z"/></g><path id="connecto1" class="cls-6" d="M785.56,563.62l164.97-99.09"/><g id="centerBox"><path class="cls-3" d="M592.88,586.22c1.15-.69,2.59-.72,3.77-.07l119.17,66.03c1.6.89,3.54.92,5.18.09l125.27-63.77c.28-.14.62,0,.71.29.02.05.03.11.03.16v26.13c0,1.34-.72,2.59-1.88,3.26l-124,72.06c-1.17.68-2.62.68-3.79,0l-125.14-72.67c-1.14-.66-1.85-1.87-1.88-3.19l-.48-24.31c-.03-1.35.67-2.62,1.83-3.31l1.2-.72Z"/><path class="cls-3" d="M721.67,514.85l123.69,71.41c1.81,1.04,1.81,2.73,0,3.77l-123.69,71.41c-1.81,1.04-4.73,1.04-6.54,0l-123.69-71.41c-1.81-1.04-1.81-2.73,0-3.77l123.69-71.41c1.81-1.04,4.73-1.04,6.54,0Z"/></g><path id="shadow" class="cls-9" d="M1013.46,166.71l284.11,164.04c4.78,2.76,8.66,9.48,8.66,15v222.07s-292.76-169.04-292.76-169.04v-232.06Z"/><g id="screen"><path class="cls-3" d="M1270.84,366.51l-.38-.21-12.63-7.11-351.87-206.34,9-5.15h0c.82-.47,1.93-.73,3.09-.73,1.09,0,2.13.23,2.93.64l.16.09,360.71,208.31c2.24,1.3,3.62,3.69,3.62,6.28v293.24c0,.94-.34,2.04-.92,3.04-.58,1-1.36,1.84-2.17,2.31h0s-9.62,5.72-9.62,5.72c-.09-.12-.2-.33-.34-.67-.33-.85-.62-2.14-.85-3.59-.47-2.89-.71-6.18-.71-7.24v-288.59Z"/><g class="cls-13"><path class="cls-2" d="M903.46,154.84c0-2.21,1.55-3.1,3.46-2l364.06,210.2c1.91,1.11,3.46,3.79,3.46,6v295.97c.01,2.21-1.54,3.1-3.45,2l-364.06-210.2c-1.91-1.1-3.46-3.79-3.46-6V154.84Z"/><g class="cls-8"><path class="cls-11" d="M1274.45,401.05v-1.5l-370.99-214.2v3l370.99,214.2v-1.5Z"/></g><path class="cls-6" d="M919.05,172.6c2.51,1.45,4.55,4.98,4.55,7.88s-2.04,4.07-4.55,2.62-4.55-4.98-4.55-7.88,2.04-4.07,4.55-2.62Z"/><path class="cls-6" d="M940.7,185.1c2.51,1.45,4.55,4.98,4.55,7.88s-2.04,4.07-4.55,2.62-4.55-4.98-4.55-7.88,2.04-4.07,4.55-2.62Z"/><path class="cls-6" d="M962.35,197.6c2.51,1.45,4.55,4.98,4.55,7.88s-2.04,4.07-4.55,2.62-4.55-4.98-4.55-7.88,2.04-4.07,4.55-2.62Z"/><path class="cls-15" d="M1010.85,303.83l66.68,38.5c1.43.83,2.6,2.84,2.6,4.5h0c0,1.66-1.16,2.33-2.6,1.5l-66.68-38.5c-1.43-.83-2.6-2.84-2.6-4.5h0c0-1.66,1.16-2.33,2.6-1.5Z"/><path class="cls-7" d="M1016.91,325.83l144.09,83.2c4.54,2.62,8.23,9,8.23,14.25v15c0,5.25-3.68,7.37-8.23,4.75l-144.09-83.2c-4.54-2.62-8.23-9-8.23-14.25v-15c0-5.25,3.68-7.37,8.23-4.75Z"/><path class="cls-15" d="M1010.85,368.83l40.7,23.5c1.43.83,2.6,2.84,2.6,4.5h0c0,1.66-1.16,2.33-2.6,1.5l-40.7-23.5c-1.43-.83-2.6-2.84-2.6-4.5h0c0-1.66,1.16-2.33,2.6-1.5Z"/><path class="cls-7" d="M1016.91,390.83l144.09,83.2c4.54,2.62,8.23,9,8.23,14.25v15c0,5.25-3.68,7.37-8.23,4.75l-144.09-83.2c-4.54-2.62-8.23-9-8.23-14.25v-15c0-5.25,3.68-7.37,8.23-4.75Z"/><path class="cls-11" d="M1020.89,410.81l.06-1.84-1.37.21-.36-.92,1.45-.03-1.45-1.7.36-.51,1.37,1.8-.06-1.91.71.41-.06,1.84,1.37-.21.35.92-1.45.03,1.45,1.7-.35.51-1.37-1.8.06,1.91-.71-.41ZM1026.09,413.81l.06-1.84-1.37.21-.35-.92,1.45-.03-1.45-1.7.36-.51,1.37,1.8-.06-1.91.71.41-.06,1.84,1.37-.21.35.92-1.45.03,1.45,1.7-.35.51-1.37-1.8.06,1.91-.71-.41ZM1031.28,416.81l.06-1.84-1.37.21-.35-.92,1.45-.03-1.45-1.7.35-.51,1.37,1.8-.06-1.91.71.41-.06,1.84,1.37-.21.35.92-1.45.03,1.45,1.7-.35.51-1.37-1.8.06,1.91-.71-.41ZM1036.48,419.81l.06-1.84-1.37.21-.35-.92,1.45-.03-1.45-1.7.35-.51,1.37,1.8-.06-1.91.71.41-.06,1.84,1.37-.21.35.92-1.45.03,1.45,1.7-.35.51-1.37-1.8.06,1.91-.71-.41ZM1041.67,422.81l.06-1.84-1.37.21-.35-.92,1.45-.03-1.45-1.7.35-.51,1.37,1.8-.06-1.91.71.41-.06,1.84,1.37-.21.35.92-1.45.03,1.45,1.7-.35.51-1.37-1.8.06,1.91-.71-.41ZM1046.87,425.81l.06-1.84-1.37.21-.35-.92,1.45-.03-1.45-1.7.35-.51,1.37,1.8-.06-1.91.71.41-.06,1.84,1.37-.21.35.92-1.45.03,1.45,1.7-.35.51-1.37-1.8.06,1.91-.71-.41ZM1052.07,428.81l.06-1.84-1.37.21-.35-.92,1.45-.03-1.45-1.7.35-.51,1.37,1.8-.06-1.91.71.41-.06,1.84,1.37-.21.35.92-1.45.03,1.45,1.7-.35.51-1.37-1.8.06,1.91-.71-.41ZM1057.26,431.81l.06-1.84-1.37.21-.35-.92,1.45-.03-1.45-1.71.35-.51,1.37,1.8-.06-1.91.71.41-.06,1.84,1.37-.21.35.92-1.45.03,1.45,1.7-.36.51-1.37-1.8.06,1.91-.71-.41ZM1062.46,434.81l.06-1.84-1.37.21-.35-.92,1.45-.03-1.45-1.71.35-.51,1.37,1.8-.06-1.91.71.41-.06,1.84,1.37-.21.35.92-1.45.03,1.45,1.7-.35.51-1.37-1.8.06,1.91-.71-.41ZM1067.65,437.81l.06-1.84-1.37.21-.35-.92,1.45-.03-1.45-1.71.35-.51,1.37,1.8-.06-1.91.71.41-.06,1.84,1.37-.21.35.92-1.45.03,1.45,1.7-.35.51-1.37-1.8.06,1.91-.71-.41ZM1072.85,440.81l.06-1.84-1.37.21-.35-.92,1.45-.03-1.45-1.71.35-.51,1.37,1.8-.06-1.91.71.41-.06,1.84,1.37-.21.36.92-1.45.03,1.45,1.7-.36.51-1.37-1.8.06,1.91-.71-.41ZM1078.05,443.81l.06-1.84-1.37.21-.35-.92,1.45-.03-1.45-1.7.35-.51,1.37,1.8-.06-1.91.71.41-.06,1.84,1.37-.21.36.92-1.45.03,1.45,1.7-.36.51-1.37-1.8.06,1.91-.71-.41ZM1083.24,446.81l.06-1.84-1.37.21-.35-.92,1.45-.03-1.45-1.7.35-.51,1.37,1.8-.06-1.91.71.41-.06,1.84,1.37-.21.35.92-1.45.03,1.45,1.7-.35.51-1.37-1.8.06,1.91-.71-.41ZM1088.44,449.81l.06-1.84-1.37.21-.35-.92,1.45-.03-1.45-1.71.35-.51,1.37,1.8-.06-1.91.71.41-.06,1.84,1.37-.21.35.92-1.45.03,1.45,1.7-.35.51-1.37-1.8.06,1.91-.71-.41Z"/><path class="cls-15" d="M1015.18,436.33l76.48,44.16c3.83,2.21,6.93,7.58,6.93,12v12c0,4.42-3.1,6.21-6.93,4l-76.48-44.16c-3.83-2.21-6.93-7.58-6.93-12v-12c0-4.42,3.1-6.21,6.93-4Z"/></g><path class="cls-6" d="M906.92,153.59l364.06,210.2c1.55.9,2.82,3.08,2.82,4.88v295.97c0,1.79-1.25,2.52-2.8,1.62l-364.06-210.2c-1.55-.9-2.82-3.08-2.82-4.88V155.22c0-1.79,1.25-2.52,2.8-1.62Z"/></g><g id="code"><path class="cls-3" d="M318.6,610.02c0,1.16-.62,2.23-1.62,2.81l-154.2,89.26c-2.85,1.65-6.37,1.66-9.23.02l-117.89-67.42c-1.01-.58-1.64-1.66-1.64-2.82v-14.78s123.4,68.46,123.4,68.46v.96l1.12-.63,160.06-89.78v13.91Z"/><g class="cls-12"><path class="cls-2" d="M197.98,523.83l120.37,69.49c1.91,1.1,1.91,2.9,0,4l-156.74,90.49c-1.91,1.1-5.02,1.1-6.93,0l-120.37-69.49c-1.91-1.1-1.91-2.9,0-4l156.74-90.49c1.91-1.1,5.02-1.1,6.93,0Z"/><g class="cls-16"><path class="cls-11" d="M290.64,613.32l1.3-.75-127.3-73.49-1.3.75-1.3.75,127.3,73.49,1.3-.75Z"/></g><path class="cls-6" d="M199.07,537.2c2.51,1.45,2.51,3.8,0,5.25s-6.58,1.45-9.09,0-2.51-3.8,0-5.25,6.58-1.45,9.09,0Z"/><path class="cls-6" d="M220.72,549.7c2.51,1.45,2.51,3.8,0,5.25s-6.58,1.45-9.09,0-2.51-3.8,0-5.25,6.58-1.45,9.09,0Z"/><path class="cls-6" d="M242.37,562.2c2.51,1.45,2.51,3.8,0,5.25s-6.58,1.45-9.09,0-2.51-3.8,0-5.25,6.58-1.45,9.09,0Z"/><path class="cls-15" d="M221.01,623.64c-1.35.78-3.36,1.03-5.16.65l-29.47-6.26c-3.01-.64-3.85-2.86-1.59-4.17,1.24-.72,3.1-.94,4.73-.56l24.05,5.55c.08.02.07.09-.01.1-.09.01-.15-.05-.09-.09l.42-.24c.07-.04.17,0,.15.05-.02.05-.14.05-.17,0l-9.61-13.88c-.65-.94-.27-2.02.97-2.73,2.26-1.31,6.11-.82,7.22.92l10.85,17.01c.66,1.04.22,2.2-1.13,2.98l-1.16.67Z"/><path class="cls-15" d="M211.01,587.34c1.96,1.13,1.52,3.02-.87,3.82l-52.91,17.59c-1.65.55-3.73.39-5.07-.39-1.96-1.13-1.52-3.02.88-3.82l52.91-17.59c1.65-.55,3.73-.39,5.07.39Z"/><path class="cls-15" d="M135.76,578.06c-.66-1.04-.22-2.2,1.13-2.98l1.16-.67c1.35-.78,3.36-1.04,5.16-.65l29.47,6.26c3.01.64,3.85,2.86,1.59,4.17-1.24.72-3.1.94-4.73.56l-24.05-5.55c-.08-.02-.07-.09.01-.1.09-.01.15.05.09.09l-.42.24c-.07.04-.17,0-.15-.05.02-.05.14-.05.17,0l9.61,13.88c.65.94.27,2.01-.97,2.73-2.26,1.31-6.11.82-7.22-.92l-10.85-17.02Z"/><path class="cls-15" d="M100.98,598.82l87.47,50.5c1.43.83,1.43,2.17,0,3h0c-1.43.83-3.76.83-5.2,0l-87.47-50.5c-1.43-.83-1.43-2.17,0-3h0c1.43-.83,3.76-.83,5.2,0Z"/><path class="cls-15" d="M87.12,606.82l55.43,32c1.43.83,1.43,2.17,0,3h0c-1.43.83-3.76.83-5.2,0l-55.43-32c-1.43-.83-1.43-2.17,0-3h0c1.43-.83,3.76-.83,5.2,0Z"/><path class="cls-15" d="M73.27,614.82l72.75,42c1.43.83,1.43,2.17,0,3h0c-1.43.83-3.76.83-5.2,0l-72.75-42c-1.43-.83-1.43-2.17,0-3h0c1.43-.83,3.76-.83,5.2,0Z"/></g><path class="cls-6" d="M197.33,524.2l120.37,69.49c1.55.9,1.55,2.35,0,3.25l-156.74,90.49c-1.55.9-4.07.9-5.63,0l-120.37-69.49c-1.55-.9-1.55-2.35,0-3.25l156.74-90.49c1.55-.9,4.07-.9,5.63,0Z"/></g></svg>