<?xml version="1.0" encoding="UTF-8"?><svg id="Capa_1" xmlns="http://www.w3.org/2000/svg" width="23.56in" height="10.94in" xmlns:xlink="http://www.w3.org/1999/xlink" viewBox="0 0 1696.32 787.68"><defs><style>.cls-1{isolation:isolate;opacity:.2;}.cls-1,.cls-2{fill:#d9d9d9;}.cls-3,.cls-4,.cls-5{fill:#fff;}.cls-3,.cls-5,.cls-6{stroke-width:1.5px;}.cls-3,.cls-5,.cls-6,.cls-7{stroke:#9a9a94;stroke-miterlimit:4;}.cls-8,.cls-6,.cls-7{fill:none;}.cls-9{opacity:.1;}.cls-9,.cls-10{fill:#9a9a94;}.cls-11{fill:#e8f1fd;stroke:#2075ff;stroke-width:1.5px;}.cls-5{fill-rule:evenodd;}.cls-12{clip-path:url(#clippath-1);}.cls-13{clip-path:url(#clippath-3);}.cls-7{stroke-width:1px;}.cls-14{clip-path:url(#clippath-2);}.cls-15{fill:#e5e6e6;}.cls-16{clip-path:url(#clippath);}</style><clipPath id="clippath"><path class="cls-8" d="M1150.74,17.51l479.46,276.84c2.09,1.21,3.79,4.15,3.79,6.57v412.67c.01,2.42-1.68,3.4-3.78,2.19l-479.46-276.84c-2.09-1.21-3.79-4.15-3.79-6.57V19.7c-.01-2.42,1.68-3.4,3.78-2.19Z"/></clipPath><clipPath id="clippath-1"><path class="cls-8" d="M181.48,138.06l226.19,130.58c2.12,1.22,2.12,3.21,0,4.43l-150.47,86.86c-2.12,1.22-5.55,1.22-7.67,0L23.33,229.36c-2.12-1.22-2.12-3.21,0-4.43l150.47-86.86c2.12-1.22,5.55-1.22,7.67,0h.01Z"/></clipPath><clipPath id="clippath-2"><path class="cls-8" d="M1025.57,172.5c0-2.42,1.7-3.4,3.79-2.19l398.37,230.02c2.09,1.21,3.79,4.15,3.79,6.57v323.87c.01,2.42-1.69,3.4-3.78,2.19l-398.37-230.02c-2.09-1.21-3.79-4.15-3.79-6.57V172.5h-.01Z"/></clipPath><clipPath id="clippath-3"><path class="cls-8" d="M213.96,508.13l140.14,80.91c2.23,1.29,2.23,3.37,0,4.66l-182.49,105.35c-2.23,1.29-5.84,1.29-8.07,0l-140.14-80.91c-2.23-1.29-2.23-3.37,0-4.66l182.49-105.35c2.23-1.29,5.84-1.29,8.07,0h0Z"/></clipPath></defs><ellipse class="cls-1" cx="768.1" cy="239.15" rx="91.08" ry="42.59"/><polygon class="cls-1" points="3.48 252.55 255.01 399.32 421.71 298.98 180.22 153.21 3.48 252.55"/><polygon class="cls-1" points="5.96 648.1 167.73 743.45 371.52 621.23 217.42 526.76 5.96 648.1"/><polygon class="cls-1" points="583.45 626.65 733.73 713.84 876.05 626.56 727.37 546.23 583.45 626.65"/><polygon class="cls-1" points="1004.03 509.2 1407.74 748.49 1466.02 711.77 1072.01 479.73 1004.03 509.2"/><polygon class="cls-1" points="1212.59 496.47 1614.01 733.46 1674.59 699.04 1280.57 466.98 1212.59 496.47"/><g id="screen2"><path class="cls-3" d="M1168.7,8.62c1.09-.61,2.43-.61,3.52.02l476.39,275.35c3.47,2.01,5.6,5.71,5.6,9.72v408.63c-.01,1.3-.72,2.5-1.86,3.12l-19.29,10.57-3.27-414.99v-.26l-.15-.21-3.83-5.47-.1-.15-.15-.09L1149.7,19.29l19-10.66h0Z"/><g class="cls-16"><path class="cls-4" d="M1150.74,17.51l479.46,276.84c2.09,1.21,3.79,4.15,3.79,6.57v412.67c.01,2.42-1.68,3.4-3.78,2.19l-479.46-276.84c-2.09-1.21-3.79-4.15-3.79-6.57V19.7c-.01-2.42,1.68-3.4,3.78-2.19Z"/><path class="cls-10" d="M1633.99,335.94v-1.64L1146.95,53.08v1.86l487.03,281.27v-.28h0Z"/><path class="cls-6" d="M1164.01,39.13c2.75,1.59,4.98,5.45,4.98,8.62s-2.23,4.46-4.98,2.87-4.98-5.45-4.98-8.62,2.23-4.46,4.98-2.87Z"/><path class="cls-6" d="M1187.7,52.81c2.75,1.59,4.98,5.45,4.98,8.62s-2.23,4.46-4.98,2.87-4.98-5.45-4.98-8.62,2.23-4.46,4.98-2.87Z"/><path class="cls-6" d="M1211.39,66.48c2.75,1.59,4.98,5.45,4.98,8.62s-2.23,4.46-4.98,2.87c-2.75-1.59-4.98-5.45-4.98-8.62s2.23-4.46,4.98-2.87Z"/><path class="cls-7" d="M1184.86,128.58l110.55,63.82c3.93,2.27,7.11,7.78,7.11,12.32v119.27c0,4.53-3.18,6.37-7.11,4.1l-110.55-63.82c-3.93-2.27-7.11-7.78-7.11-12.32v-119.27c0-4.53,3.18-6.37,7.11-4.1Z"/><path class="cls-2" d="M1180.6,273.3l52.12,30.1c1.83,1.06,3.32,3.63,3.32,5.75h0c0,2.12-1.49,2.97-3.32,1.92l-52.12-30.1c-1.83-1.06-3.32-3.63-3.32-5.75h0c0-2.12,1.49-2.97,3.32-1.92h0Z"/><path class="cls-2" d="M1180.6,291.9l136.45,78.79c1.83,1.06,3.32,3.63,3.32,5.75h0c0,2.12-1.49,2.97-3.32,1.92l-136.45-78.79c-1.83-1.06-3.32-3.63-3.32-5.75h0c0-2.12,1.49-2.97,3.32-1.92Z"/><path class="cls-2" d="M1180.6,310.51l118.45,68.39c1.83,1.06,3.32,3.63,3.32,5.75h0c0,2.12-1.49,2.97-3.32,1.92l-118.45-68.39c-1.83-1.06-3.32-3.63-3.32-5.75h0c0-2.12,1.49-2.97,3.32-1.92Z"/><path class="cls-2" d="M1180.6,329.11l68.23,39.39c1.83,1.06,3.32,3.63,3.32,5.75h0c0,2.12-1.49,2.97-3.32,1.92l-68.23-39.39c-1.83-1.06-3.32-3.63-3.32-5.75h0c0-2.12,1.49-2.97,3.32-1.92Z"/><path class="cls-7" d="M1335.2,215.38l110.55,63.82c3.93,2.27,7.11,7.78,7.11,12.32v119.27c0,4.53-3.18,6.37-7.11,4.1l-110.55-63.82c-3.93-2.27-7.11-7.78-7.11-12.32v-119.27c0-4.53,3.18-6.37,7.11-4.1Z"/><path class="cls-2" d="M1330.94,360.11l126.98,73.32c1.83,1.06,3.32,3.63,3.32,5.75h0c0,2.12-1.49,2.97-3.32,1.92l-126.98-73.32c-1.83-1.06-3.32-3.63-3.32-5.75h0c0-2.12,1.49-2.97,3.32-1.92Z"/><path class="cls-2" d="M1330.94,378.71l95.71,55.27c1.83,1.06,3.32,3.63,3.32,5.75h0c0,2.12-1.49,2.97-3.32,1.92l-95.71-55.27c-1.83-1.06-3.32-3.63-3.32-5.75h0c0-2.12,1.49-2.97,3.32-1.92Z"/><path class="cls-2" d="M1330.94,397.31l113.71,65.66c1.83,1.06,3.32,3.63,3.32,5.75h0c0,2.12-1.49,2.97-3.32,1.92l-113.71-65.66c-1.83-1.06-3.32-3.63-3.32-5.75h0c0-2.12,1.49-2.97,3.32-1.92Z"/><path class="cls-2" d="M1330.94,415.91l89.07,51.43c1.83,1.06,3.32,3.63,3.32,5.75h0c0,2.12-1.49,2.97-3.32,1.92l-89.07-51.43c-1.83-1.06-3.32-3.63-3.32-5.75h0c0-2.12,1.49-2.97,3.32-1.92Z"/><path class="cls-2" d="M1481.28,446.91l83.4,48.15c1.83,1.06,3.32,3.63,3.32,5.75h0c0,2.12-1.49,2.97-3.32,1.92l-83.4-48.15c-1.83-1.06-3.32-3.63-3.32-5.75h0c0-2.12,1.49-2.97,3.32-1.92h0Z"/><path class="cls-2" d="M1481.28,465.51l125.09,72.22c1.83,1.06,3.32,3.63,3.32,5.75h0c0,2.12-1.49,2.97-3.32,1.92l-125.09-72.22c-1.83-1.06-3.32-3.63-3.32-5.75h0c0-2.12,1.49-2.97,3.32-1.92Z"/><path class="cls-2" d="M1481.29,484.12l134.57,77.7c1.83,1.06,3.32,3.63,3.32,5.75h0c0,2.12-1.49,2.97-3.32,1.92l-134.57-77.7c-1.83-1.06-3.32-3.63-3.32-5.75h0c0-2.12,1.49-2.97,3.32-1.92h0Z"/><path class="cls-2" d="M1481.29,502.72l87.18,50.34c1.83,1.06,3.32,3.63,3.32,5.75h0c0,2.12-1.49,2.97-3.32,1.92l-87.18-50.34c-1.83-1.06-3.32-3.63-3.32-5.75h0c0-2.12,1.49-2.97,3.32-1.92h0Z"/><path id="picture" class="cls-11" d="M1486.86,299.25c3.05-.7,7.47-.13,11.43,2.11s103.46,59.02,103.46,59.02c4.39,2.42,7.95,8.3,7.95,13.13v121.68c0,1.64-.88,3.16-2.3,3.97l-7.09,4.04-114.38-69.86c-4.39-2.42-7.95-8.3-7.95-13.13l.7-115.5c.01-1.67.8-3.46,2.4-3.95,0,0,2.74-.81,5.79-1.5h0Z"/><path id="picture-2" class="cls-11" d="M1485.55,301.65l110.55,63.82c4.19,2.42,7.58,8.3,7.58,13.13v119.27c0,4.84-3.39,6.8-7.58,4.38l-110.55-63.82c-4.19-2.42-7.58-8.3-7.58-13.13v-119.27c0-4.84,3.39-6.8,7.58-4.38Z"/></g><path class="cls-6" d="M1150.74,19.55l479.46,276.84c1.7.98,3.08,3.37,3.08,5.34v412.67c.01,1.96-1.37,2.76-3.07,1.78l-479.46-276.84c-1.7-.98-3.08-3.37-3.08-5.34V21.33c-.01-1.96,1.37-2.76,3.07-1.78Z"/><line class="cls-6" x1="1629.16" y1="295.63" x2="1649.33" y2="284.45"/><line class="cls-6" x1="1633.29" y1="303.34" x2="1654.22" y2="291.83"/></g><path id="connector3" class="cls-6" d="M244.16,637.27l230.26,131.58,211.25-125.69"/><path id="connector2" class="cls-6" d="M255.26,341.96l400.24,244.75"/><g id="IA"><path class="cls-3" d="M253.49,351.15l.39.21.39-.2,153.96-80.02v14.89c0,1.29-.69,2.47-1.8,3.12l-147.32,85.16c-3.18,1.84-7.1,1.83-10.28-.01L25.39,244.27c-1.07-.62-1.74-1.75-1.79-2.99l-.46-13.27,230.34,123.13h.01Z"/><g class="cls-12"><path class="cls-4" d="M181.48,138.06l226.19,130.58c2.12,1.22,2.12,3.21,0,4.43l-150.47,86.86c-2.12,1.22-5.55,1.22-7.67,0L23.33,229.36c-2.12-1.22-2.12-3.21,0-4.43l150.47-86.86c2.12-1.22,5.55-1.22,7.67,0h.01Z"/><path class="cls-10" d="M376.99,290.77l1.44-.83-233.85-135.01-1.44.83-.23.13,233.41,135.26.67-.39h0Z"/><path class="cls-6" d="M182.68,152.87c2.78,1.61,2.78,4.21,0,5.81s-7.29,1.61-10.07,0-2.78-4.21,0-5.81,7.29-1.61,10.07,0Z"/><path class="cls-6" d="M206.64,166.7c2.78,1.61,2.78,4.21,0,5.81s-7.29,1.61-10.07,0-2.78-4.21,0-5.81,7.29-1.61,10.07,0Z"/><path class="cls-6" d="M230.6,180.53c2.78,1.61,2.78,4.21,0,5.81s-7.29,1.61-10.07,0c-2.78-1.61-2.78-4.21,0-5.81s7.29-1.61,10.07,0Z"/><path class="cls-6" d="M144.33,181.64l85.31,49.25c1.72.99,1.72,2.6,0,3.6l-73.81,42.61c-1.72.99-4.51.99-6.23,0l-85.31-49.25c-1.72-.99-1.72-2.6,0-3.6l73.81-42.61c1.72-.99,4.51-.99,6.23,0Z"/><g id="AI"><path class="cls-11" d="M202.68,231.35l-.19,3.55c-.04.67-.41,1.28-.98,1.62l-48.37,28.33c-1.31.77-2.93.75-4.23-.03l-5.82-3.52c-.6-.36-.98-1.01-1-1.71l-.1-2.96,52.94-27.29h3.84l3.93,2.01h-.02Z"/><path class="cls-11" d="M93.46,232.7l-4.91-2.46c-.75-.38-1.24-1.14-1.25-1.99l-.05-3.63,69.26-17.46c1.56-.43,3.41-.25,4.63.46l6.32,3.59-.12,4.78c-.03,1.13-.43,2.22-1.14,3.1l-28.49,35.47c-1.14,1.43-3.15,1.82-4.75.94l-7.01-3.87c-.74-.41-1.23-1.17-1.28-2.02l-.24-3.77,29.77-29.36c.08-.09.05-.2-.08-.27s-.31-.09-.47-.04l-54.39,17.01c-1.93.6-4.02.44-5.83-.47h.02ZM115.72,222.13c1.59-.92,4.16-.92,5.75,0l22.35,12.9c1.59.92,1.59,2.4,0,3.32l-2,1.16c-1.59.92-8.43,2.25-8.43,2.25l-20.79-12.75s-.47-4.8,1.12-5.72l2-1.16h0Z"/></g><g id="AI-2"><path class="cls-11" d="M201.89,230.31c1.06.61,1.06,1.6,0,2.21l-49.46,28.55c-1.06.61-2.78.61-3.84,0l-5.82-3.36c-1.06-.61-1.06-1.6,0-2.21l49.46-28.55c1.06-.61,2.78-.61,3.84,0l5.82,3.36h0Z"/><path class="cls-11" d="M166.3,209.77l-7.84-4.52c-1.22-.71-3.07-.89-4.63-.46l-64.28,17.78c-2.53.7-3.1,2.64-1.12,3.78l4.18,2.41c1.23.71,3.1.89,4.67.45l14.95-4.3,20.02,11.56-7.43,8.63c-.77.91-.47,2,.77,2.71l4.18,2.41c1.99,1.14,5.33.81,6.54-.65l30.78-37.13c.75-.89.43-1.97-.79-2.67ZM151.52,214.09l-14.12,16.4-14.82-8.55,28.39-8.16c.16-.05.34-.03.47.04s.16.18.08.27Z"/></g><path class="cls-2" d="M245.21,251.78l77.62,44.81c1.59.92,1.59,2.4,0,3.32h0c-1.59.92-4.16.92-5.75,0l-77.62-44.81c-1.59-.92-1.59-2.4,0-3.32h0c1.59-.92,4.16-.92,5.75,0h0Z"/><path class="cls-2" d="M231.8,259.52l61.35,35.42c1.59.92,1.59,2.4,0,3.32h0c-1.59.92-4.16.92-5.75,0l-61.35-35.42c-1.59-.92-1.59-2.4,0-3.32h0c1.59-.92,4.16-.92,5.75,0h0Z"/><path class="cls-2" d="M218.38,267.27l43.13,24.9c1.59.92,1.59,2.4,0,3.32h0c-1.59.92-4.16.92-5.75,0l-43.13-24.9c-1.59-.92-1.59-2.4,0-3.32h0c1.59-.92,4.16-.92,5.75,0Z"/><path class="cls-2" d="M204.96,275.02l64.22,37.07c1.59.92,1.59,2.4,0,3.32h0c-1.59.92-4.16.92-5.75,0l-64.22-37.07c-1.59-.92-1.59-2.4,0-3.32h0c1.59-.92,4.16-.92,5.75,0h0Z"/><path class="cls-2" d="M191.54,282.77l71.89,41.5c1.59.92,1.59,2.4,0,3.32h0c-1.59.92-4.16.92-5.75,0l-71.89-41.5c-1.59-.92-1.59-2.4,0-3.32h0c1.59-.92,4.16-.92,5.75,0h0Z"/></g><path class="cls-6" d="M180.76,138.47l226.19,130.58c1.72.99,1.72,2.6,0,3.6l-150.47,86.86c-1.72.99-4.51.99-6.23,0L24.05,228.94c-1.72-.99-1.72-2.6,0-3.6l150.47-86.86c1.72-.99,4.51-.99,6.23,0h.01Z"/><line class="cls-6" x1="249.66" y1="374.98" x2="249.66" y2="359.11"/><line class="cls-6" x1="257.33" y1="374.98" x2="257.33" y2="359.11"/></g><path id="connecto1" class="cls-6" d="M797.77,563.39l196.34-117.93,91.51,52.25"/><polyline id="connector4" class="cls-6" points="718.96 250.76 477.51 392.4 702.73 528.57"/><path id="shadow" class="cls-9" d="M1148.69,183l316.18,182.57c5.33,3.08,9.64,10.55,9.64,16.69v247.14l-325.82-188.12V183h0Z"/><g id="screen"><path class="cls-3" d="M1427.58,404.12l-.42-.24-13.82-7.78-385.03-225.79,9.85-5.64h0c.89-.52,2.11-.8,3.38-.8,1.19,0,2.34.25,3.21.7l.17.09,394.71,227.95c2.45,1.42,3.97,4.04,3.97,6.87v320.88c0,1.03-.38,2.23-1.01,3.33-.63,1.1-1.49,2.01-2.38,2.53h0l-10.54,6.26c-.1-.13-.22-.36-.37-.73-.36-.93-.68-2.34-.94-3.93-.52-3.16-.77-6.77-.77-7.93v-315.79.02Z"/><g class="cls-14"><path class="cls-4" d="M1025.57,172.5c0-2.42,1.7-3.4,3.79-2.19l398.37,230.02c2.09,1.21,3.79,4.15,3.79,6.57v323.87c.01,2.42-1.69,3.4-3.78,2.19l-398.37-230.02c-2.09-1.21-3.79-4.15-3.79-6.57V172.5h-.01Z"/><path class="cls-10" d="M1431.53,441.91v-1.64l-405.96-234.39v1.67l405.96,234.66v-.3h0Z"/><path class="cls-6" d="M1042.63,191.92c2.75,1.59,4.98,5.45,4.98,8.62s-2.23,4.46-4.98,2.87-4.98-5.45-4.98-8.62,2.23-4.46,4.98-2.87Z"/><path class="cls-6" d="M1066.33,205.6c2.75,1.59,4.98,5.45,4.98,8.62s-2.23,4.46-4.98,2.87-4.98-5.45-4.98-8.62,2.23-4.46,4.98-2.87Z"/><path class="cls-6" d="M1090.02,219.28c2.75,1.59,4.98,5.45,4.98,8.62s-2.23,4.46-4.98,2.87c-2.75-1.59-4.98-5.45-4.98-8.62s2.23-4.46,4.98-2.87Z"/><path class="cls-2" d="M1143.09,335.53l72.97,42.13c1.57.91,2.84,3.11,2.84,4.93h0c0,1.81-1.27,2.55-2.84,1.64l-72.97-42.13c-1.57-.91-2.84-3.11-2.84-4.93h0c0-1.81,1.27-2.55,2.84-1.64Z"/><path class="cls-7" d="M1149.71,359.6l157.68,91.04c4.97,2.87,9.01,9.86,9.01,15.59v16.41c0,5.74-4.03,8.07-9.01,5.2l-157.68-91.04c-4.97-2.87-9.01-9.86-9.01-15.59v-16.41c0-5.74,4.03-8.07,9.01-5.2Z"/><path class="cls-2" d="M1143.09,406.65l44.54,25.72c1.57.91,2.84,3.11,2.84,4.93h0c0,1.81-1.27,2.55-2.84,1.64l-44.54-25.72c-1.57-.91-2.84-3.11-2.84-4.93h0c0-1.81,1.27-2.55,2.84-1.64Z"/><path class="cls-7" d="M1149.72,430.74l157.68,91.04c4.97,2.87,9.01,9.86,9.01,15.59v16.41c0,5.74-4.03,8.07-9.01,5.2l-157.68-91.04c-4.97-2.87-9.01-9.86-9.01-15.59v-16.41c0-5.74,4.03-8.07,9.01-5.2h0Z"/><path class="cls-10" d="M1154.07,452.6l.06-2.02-1.5.23-.39-1.01,1.58-.04-1.58-1.87.39-.56,1.5,1.97-.07-2.09.78.45-.06,2.02,1.5-.23.39,1.01-1.58.04,1.58,1.87-.39.56-1.5-1.97.06,2.09-.78-.45h0ZM1159.76,455.87l.06-2.02-1.5.23-.39-1.01,1.58-.04-1.58-1.87.39-.56,1.5,1.97-.07-2.09.78.45-.06,2.02,1.5-.23.39,1.01-1.58.04,1.58,1.87-.39.56-1.5-1.97.06,2.09-.78-.45h0ZM1165.45,459.15l.06-2.02-1.5.23-.39-1.01,1.58-.04-1.58-1.87.39-.56,1.5,1.97-.06-2.09.78.45-.06,2.02,1.5-.23.39,1.01-1.58.04,1.58,1.87-.39.56-1.5-1.97.06,2.09-.78-.45ZM1171.12,462.44l.06-2.02-1.5.23-.39-1.01,1.58-.04-1.58-1.87.39-.56,1.5,1.97-.06-2.09.78.45-.06,2.02,1.5-.23.39,1.01-1.58.04,1.58,1.87-.39.56-1.5-1.97.06,2.09-.78-.45ZM1176.81,465.72l.06-2.02-1.5.23-.39-1.01,1.58-.04-1.58-1.87.39-.56,1.5,1.97-.06-2.09.78.45-.06,2.02,1.5-.23.39,1.01-1.58.04,1.58,1.87-.39.56-1.5-1.97.06,2.09-.78-.45ZM1182.5,469.01l.06-2.02-1.5.23-.39-1.01,1.58-.04-1.58-1.87.39-.56,1.5,1.97-.06-2.09.78.45-.06,2.02,1.5-.23.39,1.01-1.58.04,1.58,1.87-.39.56-1.5-1.97.06,2.09-.78-.45ZM1188.19,472.29l.06-2.02-1.5.23-.39-1.01,1.58-.04-1.58-1.87.39-.56,1.5,1.97-.06-2.09.78.45-.06,2.02,1.5-.23.39,1.01-1.58.04,1.58,1.87-.39.56-1.5-1.97.06,2.09-.78-.45ZM1193.87,475.58l.06-2.02-1.5.23-.39-1.01,1.58-.04-1.58-1.87.39-.56,1.5,1.97-.06-2.09.78.45-.06,2.02,1.5-.23.39,1.01-1.58.04,1.58,1.87-.39.56-1.5-1.97.07,2.09-.78-.45h0ZM1199.55,478.86l.06-2.02-1.5.23-.39-1.01,1.58-.04-1.58-1.87.39-.56,1.5,1.97-.06-2.09.78.45-.06,2.02,1.5-.23.39,1.01-1.58.04,1.58,1.87-.39.56-1.5-1.97.07,2.09-.78-.45h0ZM1205.24,482.13l.06-2.02-1.5.23-.39-1.01,1.58-.04-1.58-1.87.39-.56,1.5,1.97-.06-2.09.78.45-.06,2.02,1.5-.23.39,1.01-1.58.04,1.58,1.87-.39.56-1.5-1.97.06,2.09-.78-.45ZM1210.93,485.42l.06-2.02-1.5.23-.39-1.01,1.58-.04-1.58-1.87.39-.56,1.5,1.97-.06-2.09.78.45-.06,2.02,1.5-.23.39,1.01-1.58.04,1.58,1.87-.39.56-1.5-1.97.06,2.09-.78-.45ZM1216.62,488.7l.06-2.02-1.5.23-.39-1.01,1.58-.04-1.58-1.87.39-.56,1.5,1.97-.06-2.09.78.45-.06,2.01,1.5-.23.39,1.01-1.58.04,1.58,1.87-.39.56-1.5-1.97.06,2.09-.78-.45h0ZM1222.3,491.99l.06-2.02-1.5.23-.39-1.01,1.58-.04-1.58-1.87.39-.56,1.5,1.97-.06-2.09.78.45-.06,2.02,1.5-.23.39,1.01-1.58.04,1.58,1.87-.39.56-1.5-1.97.06,2.09-.78-.45ZM1227.98,495.27l.06-2.02-1.5.23-.39-1.01,1.58-.04-1.58-1.87.39-.56,1.5,1.97-.06-2.09.78.45-.06,2.02,1.5-.23.39,1.01-1.58.04,1.58,1.87-.39.56-1.5-1.97.06,2.09-.78-.45Z"/><path class="cls-11" d="M1152.85,479.08l81.99,47.34c4.17,2.41,7.58,8.32,7.58,13.13v15.22c0,1.62-.94,3.09-2.41,3.77l-4,1.85-84.86-51.65c-4.19-2.42-10.6-26.12-10.6-26.12l.24-.63c.44-1.15,1.42-2.02,2.61-2.32l4.82-1.22c1.57-.4,3.23-.17,4.63.64v-.02Z"/><path class="cls-11" d="M1147.82,480.51l83.69,48.32c4.19,2.42,7.58,8.3,7.58,13.13v13.13c0,4.84-3.39,6.8-7.58,4.38l-83.69-48.32c-4.19-2.42-7.58-8.3-7.58-13.13v-13.13c0-4.84,3.39-6.8,7.58-4.38Z"/></g><path class="cls-6" d="M1029.36,171.13l398.37,230.02c1.7.98,3.08,3.37,3.08,5.34v323.87c0,1.96-1.37,2.76-3.07,1.78l-398.37-230.02c-1.7-.98-3.08-3.37-3.08-5.34V172.91c0-1.96,1.37-2.76,3.07-1.78Z"/><line class="cls-6" x1="1426.79" y1="400.52" x2="1440.09" y2="393.11"/><line class="cls-6" x1="1430.83" y1="407.35" x2="1443.58" y2="400.36"/></g><g id="code"><path class="cls-3" d="M354.4,608.48c0,1.35-.72,2.6-1.89,3.28l-179.54,103.93c-3.32,1.92-7.41,1.93-10.75.03l-137.25-78.49c-1.18-.67-1.91-1.93-1.91-3.29v-17.21l143.66,79.7v1.11l1.3-.73,186.35-104.53v16.19h.02Z"/><g class="cls-13"><path class="cls-4" d="M213.96,508.13l140.14,80.91c2.23,1.29,2.23,3.37,0,4.66l-182.49,105.35c-2.23,1.29-5.84,1.29-8.07,0l-140.14-80.91c-2.23-1.29-2.23-3.37,0-4.66l182.49-105.35c2.23-1.29,5.84-1.29,8.07,0h0Z"/><path class="cls-10" d="M321.84,612.32l1.51-.87-148.2-85.56-1.51.87-.5.29,148.02,85.31.68-.04h0Z"/><path class="cls-6" d="M215.22,523.7c2.92,1.69,2.92,4.43,0,6.11s-7.67,1.69-10.59,0-2.92-4.43,0-6.11,7.67-1.69,10.59,0Z"/><path class="cls-6" d="M240.43,538.25c2.92,1.69,2.92,4.43,0,6.11s-7.67,1.69-10.59,0-2.92-4.43,0-6.11,7.67-1.69,10.59,0Z"/><path class="cls-6" d="M265.64,552.81c2.92,1.69,2.92,4.43,0,6.11s-7.67,1.69-10.59,0-2.92-4.43,0-6.11c2.92-1.68,7.67-1.69,10.59,0Z"/><g id="code-block"><path class="cls-11" d="M243.35,625.48c-.35,3.43-3.62,5.79-6.99,5.04l-35.92-8.04c-3.5-.74-3.42-4.42-3.42-4.42l.12-3.41,34.96,8.78c.09.02.09.1,0,.11-.1.02-.18-.06-.1-.1l.49-.28c.08-.04.2,0,.17.06s-.16.06-.2,0l-11.19-16.16c-.76-1.09-.35-5.94-.35-5.94l9.9,3.83,12.96,16.31-.43,4.22h0Z"/><path class="cls-11" d="M230.55,583.82l-.33,3.57c-.18,1.94-1.5,3.59-3.35,4.2l-62.38,20.27c-2.63.86-5.33-1.12-5.31-3.89l.03-3.14,64.02-18.55c1.92-.64,7.32-2.46,7.32-2.46Z"/><path class="cls-11" d="M141.43,575.48l-.24-5.52,3.02,1.73c1.57-.91,3.92-1.21,6.01-.76l37.57,4.87s1.23,5.75-1.41,7.27c-1.45.83-3.61,1.09-5.51.65l-28-6.46c-.09-.02-.09-.1,0-.11.1-.02.18.06.1.1l-.49.28c-.08.04-.2,0-.17-.06s.16-.06.2,0l11.53,12.33.02,4.41c0,1.27-.79,2.4-1.98,2.83l-2.33.83c-2.26.8-4.78-.03-6.11-2.03l-10.88-16.29c-.81-1.21-1.27-2.61-1.33-4.06h-.02Z"/></g><g id="code-block-2"><path class="cls-11" d="M240.77,624.34c-1.57.91-3.92,1.21-6.01.76l-34.32-7.29c-3.5-.74-4.49-3.33-1.85-4.86,1.44-.83,3.61-1.09,5.51-.65l28,6.46c.09.02.09.1,0,.11-.1.02-.18-.06-.1-.1l.49-.28c.08-.04.2,0,.17.06s-.16.06-.2,0l-11.19-16.16c-.76-1.09-.31-2.35,1.13-3.18,2.64-1.52,7.12-.95,8.41,1.07l12.62,19.81c.77,1.21.25,2.56-1.32,3.47l-1.35.78h.01Z"/><path class="cls-11" d="M229.13,582.08c2.28,1.32,1.77,3.52-1.02,4.45l-61.59,20.48c-1.92.64-4.34.45-5.91-.45-2.28-1.32-1.77-3.52,1.02-4.45l61.59-20.48c1.92-.64,4.34-.45,5.91.45Z"/><path class="cls-11" d="M141.52,571.27c-.77-1.21-.25-2.56,1.32-3.47l1.35-.78c1.57-.91,3.92-1.21,6.01-.76l34.32,7.29c3.5.74,4.49,3.33,1.85,4.85-1.45.83-3.61,1.09-5.51.65l-28-6.46c-.09-.02-.09-.1,0-.11.1-.02.18.06.1.1l-.49.28c-.08.04-.2,0-.17-.06s.16-.06.2,0l11.19,16.16c.76,1.1.31,2.35-1.13,3.18-2.64,1.52-7.12.95-8.41-1.07l-12.62-19.81h-.01Z"/></g><path class="cls-2" d="M101.03,595.44l101.84,58.8c1.67.96,1.67,2.53,0,3.49h0c-1.67.96-4.38.96-6.05,0l-101.84-58.8c-1.67-.96-1.67-2.53,0-3.49h0c1.67-.96,4.38-.96,6.05,0Z"/><path class="cls-2" d="M84.9,604.75l64.53,37.25c1.67.96,1.67,2.53,0,3.49h0c-1.67.96-4.38.96-6.05,0l-64.53-37.25c-1.67-.96-1.67-2.53,0-3.49h0c1.67-.96,4.38-.96,6.05,0Z"/><path class="cls-2" d="M68.76,614.07l84.7,48.9c1.67.96,1.67,2.53,0,3.49h0c-1.67.96-4.38.96-6.05,0l-84.7-48.9c-1.67-.96-1.67-2.53,0-3.49h0c1.67-.96,4.38-.96,6.05,0Z"/></g><path class="cls-6" d="M213.21,508.56l140.14,80.91c1.81,1.05,1.81,2.74,0,3.79l-182.49,105.35c-1.81,1.05-4.75,1.05-6.56,0l-140.14-80.91c-1.81-1.05-1.81-2.74,0-3.79l182.49-105.35c1.81-1.05,4.75-1.05,6.56,0h0Z"/><line class="cls-6" x1="163.71" y1="698.32" x2="163.71" y2="715.97"/><line class="cls-6" x1="171.54" y1="698.32" x2="171.54" y2="716.21"/></g><g id="database"><path class="cls-5" d="M684.35,217.01c0,13,8.27,26.01,24.8,35.93,33.08,19.84,86.69,19.84,119.76,0,16.53-9.93,24.8-22.92,24.8-35.93v-28.7c0-13-8.27-26.01-24.8-35.93-33.08-19.84-86.69-19.84-119.76,0-16.53,9.93-24.8,22.92-24.8,35.93v28.7Z"/><path class="cls-6" d="M714.2,154.95c30.29-17.48,79.39-17.48,109.68,0,30.29,17.48,30.29,45.83,0,63.31-30.29,17.48-79.39,17.48-109.68,0-30.29-17.48-30.29-45.83,0-63.31h0Z"/><path class="cls-5" d="M684.35,181.88c0,13,8.27,26.01,24.8,35.93,33.08,19.84,86.69,19.84,119.76,0,16.53-9.93,24.8-22.92,24.8-35.93v-28.7c0-13-8.27-26.01-24.8-35.93-33.08-19.84-86.69-19.84-119.76,0-16.53,9.93-24.8,22.92-24.8,35.93v28.7h0Z"/><path class="cls-6" d="M714.2,119.8c30.29-17.48,79.39-17.48,109.68,0,30.29,17.48,30.29,45.83,0,63.31s-79.39,17.48-109.68,0-30.29-45.83,0-63.31h0Z"/><path class="cls-5" d="M684.35,145.75c0,13,8.27,26.01,24.8,35.93,33.08,19.84,86.69,19.84,119.76,0,16.53-9.93,24.8-22.92,24.8-35.93v-28.7c0-13-8.27-26.01-24.8-35.93-33.08-19.84-86.69-19.84-119.76,0-16.53,9.93-24.8,22.92-24.8,35.93v28.7Z"/><path class="cls-6" d="M710.13,81.34c32.53-18.78,85.28-18.78,117.81,0,32.53,18.78,32.53,49.23,0,68.01s-85.28,18.78-117.81,0c-32.53-18.78-32.53-49.23,0-68.01Z"/></g><g id="hole"><path class="cls-10" d="M986.33,737.04c-4.12-2.38-9.52-3.58-14.93-3.58-2.45,0-4.92.24-7.26.75l1.1.85c2-.37,4.08-.55,6.16-.55,5.22,0,10.44,1.15,14.4,3.44,3.75,2.17,5.82,5.01,5.82,8.02s-2.07,5.84-5.82,8.01c-7.95,4.58-20.86,4.58-28.8,0-3.76-2.17-5.82-5.01-5.82-8.01,0-1.5.52-2.96,1.5-4.33.98-1.35,2.44-2.61,4.32-3.69.54-.31,1.1-.6,1.69-.87l-.98-.7c-.42.2-.84.42-1.24.66-4.09,2.36-6.35,5.52-6.35,8.93s2.25,6.56,6.35,8.92c4.12,2.38,9.52,3.57,14.92,3.57s10.82-1.18,14.93-3.57c4.09-2.36,6.35-5.52,6.35-8.92s-2.25-6.57-6.35-8.93h0Z"/><path class="cls-10" d="M992.62,732.7c-5.85-3.39-13.52-5.07-21.21-5.07-4.6,0-9.19.6-13.39,1.82l2.08,1.62c10.42-2.6,22.98-1.45,31.48,3.46,5.18,2.99,8.04,6.92,8.04,11.03s-2.86,8.04-8.04,11.03c-11.12,6.41-29.21,6.42-40.32,0-5.18-2.99-8.04-6.92-8.04-11.03s2.86-8.04,8.04-11.03c.72-.41,1.47-.8,2.25-1.16l-1.96-1.4c-.47.23-.91.48-1.35.73-5.87,3.39-9.1,7.96-9.1,12.86s3.23,9.48,9.1,12.86c5.85,3.38,13.53,5.07,21.21,5.07s15.37-1.69,21.22-5.07c5.86-3.39,9.1-7.96,9.1-12.86s-3.24-9.48-9.1-12.86h0Z"/></g><path id="connector5" class="cls-6" d="M794.05,629.38l175.32,110.95c2.71,1.77,4.33,4.79,4.31,8.02l-.05,9.2"/><g id="centerBox"><path class="cls-3" d="M605.16,585.98c1.15-.69,2.59-.72,3.77-.07l119.12,66c1.6.89,3.54.92,5.18.09l125.22-63.74c.28-.14.62,0,.71.29.02.05.03.11.03.16v26.12c0,1.34-.72,2.59-1.88,3.26l-123.95,72.03c-1.17.68-2.62.68-3.79,0l-125.09-72.64c-1.14-.66-1.85-1.87-1.88-3.19l-.48-24.3c-.03-1.35.67-2.62,1.83-3.31l1.2-.72v.02Z"/><path class="cls-3" d="M733.9,514.64l123.64,71.38c1.81,1.04,1.81,2.73,0,3.77l-118.42,68.37-5.21,3.01c-1.81,1.04-4.73,1.04-6.54,0l-123.64-71.38c-1.81-1.04-1.81-2.73,0-3.77l123.64-71.38c1.81-1.04,4.73-1.04,6.54,0h-.01Z"/><line class="cls-6" x1="727.37" y1="661.6" x2="727.37" y2="688.82"/><line class="cls-6" x1="736.14" y1="688.82" x2="736.14" y2="659.77"/><g id="logo"><polygon class="cls-15" points="777.31 580.25 732.96 585.09 718.9 612.15 706.54 605.02 716.04 586.93 710.25 587.56 692.92 597.58 682.83 591.75 705.5 578.65 705.61 578.64 709.15 571.65 720.68 569.9 740.03 558.73 750.19 564.6 730.84 575.78 763.19 572.11 777.31 580.25"/><path class="cls-15" d="M783.33,580.46l-14.29,8.98,4.92,2.84,15.49-8.29-6.12-3.53Z"/></g></g></svg>