<?xml version="1.0" encoding="UTF-8"?><svg id="Capa_1" xmlns="http://www.w3.org/2000/svg" width="23.56in" height="10.94in" xmlns:xlink="http://www.w3.org/1999/xlink" viewBox="0 0 1696.32 787.68"><defs><style>.cls-1{isolation:isolate;opacity:.2;}.cls-1,.cls-2{fill:#d9d9d9;}.cls-3,.cls-4{fill:#f5f5f2;}.cls-3,.cls-5,.cls-6{stroke-miterlimit:4;stroke-width:1.5px;}.cls-3,.cls-5,.cls-6,.cls-7{stroke:#9a9a94;}.cls-8{clip-path:url(#clippath-4);}.cls-5,.cls-9{fill:#fff;}.cls-10,.cls-11,.cls-12{stroke:#2075ff;stroke-width:1.5px;}.cls-10,.cls-13,.cls-6,.cls-7{fill:none;}.cls-11{fill:#71adfc;}.cls-12{fill:#e8f1fd;}.cls-14{clip-path:url(#clippath-1);}.cls-15{fill:#9a9a94;}.cls-16{clip-path:url(#clippath-5);}.cls-17{clip-path:url(#clippath-3);}.cls-18{fill:#f5f5f5;}.cls-19{clip-path:url(#clippath-2);}.cls-7{stroke-linecap:round;stroke-linejoin:round;stroke-width:2px;}.cls-20{clip-path:url(#clippath);}</style><clipPath id="clippath"><path class="cls-13" d="M113.86,335.1L644.52,28.71c1.91-1.1,3.46-.21,3.46,2v376.81c-.01,2.21-1.56,4.9-3.48,6L113.85,719.91c-1.91,1.1-3.46.21-3.46-2v-376.81c0-2.21,1.56-4.9,3.48-6h-.01Z"/></clipPath><clipPath id="clippath-1"><path class="cls-13" d="M151.95,407.05l221.61-127.96c7.65-4.42,13.85-.84,13.85,8v200.92c0,8.84-6.21,19.57-13.85,23.99l-221.61,127.96c-7.65,4.42-13.85.84-13.85-8v-200.92c0-8.84,6.21-19.57,13.85-23.99h0Z"/></clipPath><clipPath id="clippath-2"><path class="cls-13" d="M616.14,323.37l148.01-85.47c1.91-1.1,3.46-.21,3.46,2v169.91c0,2.21-1.56,4.9-3.47,6l-148.01,85.47c-1.91,1.1-3.46.21-3.46-2v-169.91c0-2.21,1.56-4.9,3.47-6Z"/></clipPath><clipPath id="clippath-3"><polygon class="cls-13" points="804.88 403.39 878.85 360.68 878.85 446.1 804.88 488.8 804.88 403.39"/></clipPath><clipPath id="clippath-4"><polygon class="cls-13" points="1533.81 423.51 1558.91 409.01 1584.02 423.51 1558.91 438 1533.81 423.51"/></clipPath><clipPath id="clippath-5"><polygon class="cls-13" points="1441.17 473.99 1471.47 456.49 1501.77 473.99 1471.47 491.48 1441.17 473.99"/></clipPath></defs><line id="connector4" class="cls-6" x1="878.85" y1="600.74" x2="546.76" y2="418.45"/><polygon id="shadow" class="cls-1" points="1122.23 395.33 1251.37 465.81 1378.73 387.14 1261.2 320.07 1122.23 395.33"/><polygon id="shadow-2" class="cls-1" points="658.19 673.13 797.1 751.97 1119.07 562.33 974.4 481.73 658.19 673.13"/><polygon id="shadow-3" class="cls-1" points="999.62 709.87 1123.38 777.74 1675.83 458.75 1560.82 374.31 999.62 709.87"/><polygon id="shadow-4" class="cls-1" points="739.88 512.53 790.45 535 1154.67 324.01 1105.74 295.2 739.88 512.53"/><polygon id="shadow-5" class="cls-1" points="585.02 486.69 626.92 514.25 798.31 414.96 757.67 384.82 585.02 486.69"/><polygon id="shadow-6" class="cls-1" points="70.77 712.48 113.82 740.79 700.28 397.6 645.24 358.12 70.77 712.48"/><polygon id="shadow-7" class="cls-1" points="325.41 688.6 358.64 710.46 494.61 631.69 462.38 607.78 325.41 688.6"/><g id="screen1"><path class="cls-3" d="M625.36,22.77c2.4-1.38,5.33-1.47,7.81-.23l12.48,6.24L145.97,348.49l-.31.2-.03.37-33.88,369.58-11.79-7.5c-2.07-1.32-3.34-3.6-3.36-6.06l-2.9-367.26c-.04-5.13,2.68-9.89,7.13-12.44L625.36,22.77Z"/><g class="cls-20"><path class="cls-9" d="M113.86,335.1L644.52,28.71c1.91-1.1,3.46-.21,3.46,2v376.81c-.01,2.21-1.56,4.9-3.48,6L113.85,719.91c-1.91,1.1-3.46.21-3.46-2v-376.81c0-2.21,1.56-4.9,3.48-6h-.01Z"/><path class="cls-15" d="M647.98,62.69v-1.5L110.39,371.59v1.94L647.98,62.97v-.27Z"/><path class="cls-6" d="M125.98,340.85c2.51-1.45,4.55-.27,4.55,2.62s-2.04,6.43-4.55,7.88-4.55.27-4.55-2.62,2.04-6.43,4.55-7.88Z"/><path class="cls-6" d="M147.62,328.36c2.51-1.45,4.55-.27,4.55,2.62s-2.04,6.43-4.55,7.88-4.55.27-4.55-2.62,2.04-6.43,4.55-7.88Z"/><path class="cls-6" d="M169.26,315.86c2.51-1.45,4.55-.27,4.55,2.62s-2.04,6.43-4.55,7.88-4.55.27-4.55-2.62,2.04-6.43,4.55-7.88Z"/><g class="cls-14"><path class="cls-18" d="M151.95,407.05l221.61-127.96c7.65-4.42,13.85-.84,13.85,8v200.92c0,8.84-6.21,19.57-13.85,23.99l-221.61,127.96c-7.65,4.42-13.85.84-13.85-8v-200.92c0-8.84,6.21-19.57,13.85-23.99h0Z"/><path class="cls-11" d="M165.67,538.81c-3.4,5.67-15.62,25.97-26.71,42.39-10.47,15.51-19.91,29.38-19.91,29.38v40.6l287.39-165.94-18.85-43.89-56.85-39.47s-18.54-7.44-26.19,7.35-58.23,110.05-58.23,110.05c-4.29,8.03-18.38,27.82-23.41,26.08l-31.96-11.05s-18.69-6.51-25.3,4.51h0Z"/><path class="cls-12" d="M173.39,544.73l-54.34,84.35v29.87l287.39-165.94v-38.4l-73.66-51.76c-5.52-3.88-15.13,1.7-20.62,11.98l-65.1,121.92c-4.29,8.03-11.59,12.94-16.61,11.21l-39.47-13.64c-5.17-1.79-12.52,2.58-17.58,10.43h0Z"/><path class="cls-11" d="M228.38,410.6c11.36-8.05,28.48-2.85,28.48,10.96s-10.96,33.54-22.91,40.43c-11.96,6.9-23.5-2.6-23.5-16.4s6.58-26.93,17.94-34.99h0Z"/><path class="cls-12" d="M235.91,411.54c11.96-6.9,21.64-1.31,21.64,12.49s-9.69,30.59-21.64,37.48c-11.96,6.9-21.64,1.31-21.64-12.49s9.69-30.59,21.64-37.48h0Z"/></g><path class="cls-2" d="M412.94,310.33l97.82-56.48c1.67-.97,3.03-.18,3.03,1.75h0c0,1.93-1.36,4.28-3.03,5.25l-97.82,56.48c-1.67.97-3.03.18-3.03-1.75h0c0-1.93,1.36-4.28,3.03-5.25h0Z"/><path class="cls-2" d="M412.94,327.33l169.67-97.97c1.67-.97,3.03-.18,3.03,1.75h0c0,1.93-1.36,4.28-3.03,5.25l-169.67,97.97c-1.67.97-3.03.18-3.03-1.75h0c0-1.93,1.36-4.28,3.03-5.25h0Z"/><path class="cls-2" d="M412.94,344.32l108.21-62.47c1.67-.97,3.03-.18,3.03,1.75h0c0,1.93-1.36,4.28-3.03,5.25l-108.21,62.47c-1.67.97-3.03.18-3.03-1.75h0c0-1.93,1.36-4.28,3.03-5.25h0Z"/><path class="cls-2" d="M412.94,361.31l108.21-62.47c1.67-.97,3.03-.18,3.03,1.75h0c0,1.93-1.36,4.28-3.03,5.25l-108.21,62.47c-1.67.97-3.03.18-3.03-1.75h0c0-1.93,1.36-4.28,3.03-5.25h0Z"/><path class="cls-2" d="M412.94,378.31l62.32-35.99c1.67-.97,3.03-.18,3.03,1.75h0c0,1.93-1.36,4.28-3.03,5.25l-62.32,35.99c-1.67.97-3.03.18-3.03-1.75h0c0-1.93,1.36-4.28,3.03-5.25Z"/><path class="cls-2" d="M418.57,408.04l86.56-49.98c4.78-2.76,8.66-.52,8.66,5v4c0,5.52-3.88,12.24-8.66,14.99l-86.56,49.98c-4.78,2.76-8.66.52-8.66-5v-4c0-5.52,3.88-12.24,8.66-14.99h0Z"/></g><path class="cls-6" d="M113.86,335.85L644.52,29.46c1.55-.9,2.81-.17,2.81,1.62v376.81c-.01,1.79-1.27,3.98-2.83,4.88L113.85,719.16c-1.55.9-2.81.17-2.81-1.62v-376.81c0-1.79,1.27-3.98,2.83-4.88h-.01Z"/><path class="cls-5" d="M111.03,344.23c-.52-.2-17.3-7.18-17.3-7.18"/><line class="cls-6" x1="97.98" y1="327.54" x2="115.98" y2="334.62"/><path class="cls-11" d="M147.68,594.46l.4,41.66c.02,2.79.09,5-1.21,5.6s-4.16-.27-4.16-.27c-3.06-1.84-4.33-4.42-4.33-8.35v-36.73l9.39-12.03-.08,10.13h0Z"/></g><path class="cls-1" d="M585.02,323.01l-.04,124.42,60.68-33.96,1.68-140.7-48.01,26.17c-8.81,4.8-14.29,14.03-14.29,24.06h-.01Z"/><path class="cls-1" d="M326.74,557.65l-.04,38.98,154.42-89.76-.77-30.87c-.3-11.96-13.55-18.97-23.61-12.51l-121.06,77.8c-5.57,3.58-8.94,9.74-8.94,16.35h0Z"/><g id="checklist"><path class="cls-3" d="M751.01,236.84c2.64-1.51,5.8-1.81,8.68-.81l5.78,2.01-144.56,91.41-.22.14v.26l-6.48,171.07-7.98-4.99c-1.9-1.19-3.05-3.27-3.05-5.51v-163.24c0-3.4,1.82-6.55,4.77-8.24l143.07-82.11h-.01Z"/><g class="cls-19"><path class="cls-9" d="M616.14,323.37l148.01-85.47c1.91-1.1,3.46-.21,3.46,2v169.91c0,2.21-1.56,4.9-3.47,6l-148.01,85.47c-1.91,1.1-3.46.21-3.46-2v-169.91c0-2.21,1.56-4.9,3.47-6Z"/><path class="cls-15" d="M767.62,271.9v-1l-154.94,89.46v2l154.94-89.46v-1Z"/><path class="cls-6" d="M628.25,329.12c2.51-1.45,4.55-.27,4.55,2.62s-2.04,6.43-4.55,7.88-4.55.27-4.55-2.62,2.04-6.43,4.55-7.88Z"/><path class="cls-6" d="M649.9,316.62c2.51-1.45,4.55-.27,4.55,2.62s-2.04,6.43-4.55,7.88-4.55.27-4.55-2.62,2.04-6.43,4.55-7.88Z"/><path class="cls-6" d="M671.54,304.13c2.51-1.45,4.55-.27,4.55,2.62s-2.04,6.43-4.55,7.88-4.55.27-4.55-2.62,2.04-6.43,4.55-7.88Z"/><path class="cls-6" d="M639.08,369.85c3.23-1.86,5.85-.35,5.85,3.37s-2.62,8.26-5.85,10.13c-3.23,1.86-5.85.35-5.85-3.37s2.62-8.26,5.85-10.13Z"/><path class="cls-2" d="M654.22,364.85l80.51-46.48c1.43-.83,2.6-.16,2.6,1.5h0c0,1.66-1.16,3.67-2.6,4.5l-80.51,46.48c-1.43.83-2.6.16-2.6-1.5h0c0-1.66,1.16-3.67,2.6-4.5Z"/><path class="cls-6" d="M639.08,396.84c3.23-1.86,5.85-.35,5.85,3.37s-2.62,8.26-5.85,10.13c-3.23,1.86-5.85.35-5.85-3.37s2.62-8.26,5.85-10.13Z"/><path class="cls-2" d="M654.22,391.84l60.6-34.99c1.43-.83,2.6-.16,2.6,1.5h0c0,1.66-1.16,3.67-2.6,4.5l-60.6,34.99c-1.43.83-2.6.16-2.6-1.5h0c0-1.66,1.16-3.67,2.6-4.5Z"/><path class="cls-6" d="M639.08,423.83c3.23-1.86,5.85-.35,5.85,3.37s-2.62,8.26-5.85,10.13-5.85.35-5.85-3.37,2.62-8.26,5.85-10.13Z"/><path class="cls-2" d="M654.22,418.83l71.85-41.48c1.43-.83,2.6-.16,2.6,1.5h0c0,1.66-1.16,3.67-2.6,4.5l-71.85,41.48c-1.43.83-2.6.16-2.6-1.5h0c0-1.66,1.16-3.67,2.6-4.5Z"/><path class="cls-6" d="M639.07,450.82c3.23-1.86,5.85-.35,5.85,3.37s-2.62,8.26-5.85,10.13-5.85.35-5.85-3.37,2.62-8.26,5.85-10.13Z"/><path class="cls-2" d="M654.22,445.82l87.43-50.48c1.43-.83,2.6-.16,2.6,1.5h0c0,1.66-1.16,3.67-2.6,4.5l-87.43,50.48c-1.43.83-2.6.16-2.6-1.5h0c0-1.66,1.16-3.67,2.6-4.5h0Z"/></g><path class="cls-6" d="M616.14,323.88l148.01-85.47c1.67-.97,3.03-.18,3.03,1.75v169.91c0,1.93-1.36,4.28-3.04,5.25l-148.01,85.47c-1.67.97-3.03.18-3.03-1.75v-169.91c0-1.93,1.36-4.28,3.04-5.25Z"/><line class="cls-6" x1="616.86" y1="323.37" x2="607.34" y2="319.71"/><line class="cls-6" x1="613.3" y1="330.18" x2="603.22" y2="326.24"/></g><path class="cls-1" d="M742.05,388.09v39.52l25.88-13.47-.31-53.47-13.01,6.75c-7.72,4-12.55,11.98-12.55,20.66h0Z"/><g id="toolbox"><path id="toolbox-2" class="cls-5" d="M1660.79,444.68c0,4.02-2.14,7.73-5.62,9.74l-520.16,300.34c-9.06,5.23-20.2,5.22-29.26,0l-79.81-46.14c-3.79-2.19-6.12-6.23-6.12-10.6v-15.05l114.04,25.78.27.06.25-.13,526.4-277.81v13.82h0Z"/><path class="cls-5" d="M1023.76,677.37l526.34-303.86c4.9-2.83,12.84-2.83,17.74,0l89.15,51.47c4.9,2.83,4.9,7.42,0,10.25l-526.34,303.86c-4.9,2.83-12.84,2.83-17.74,0l-89.15-51.47c-4.9-2.83-4.9-7.42,0-10.25h0Z"/><line class="cls-6" x1="1112.93" y1="739.09" x2="1112.93" y2="757.39"/><line class="cls-6" x1="1130.67" y1="739.09" x2="1130.67" y2="756.54"/></g><g id="user-ui"><path class="cls-5" d="M1119.62,172c2.55-1.47,5.7-1.47,8.25,0l8.22,4.76-346.8,216.25-.3.19-.05.35-17.86,132.95-11.17-4.99c-2.6-1.16-4.28-3.73-4.3-6.57l-.86-118.73c-.06-8.74,4.58-16.82,12.15-21.18l352.72-203.05h.01Z"/><path class="cls-9" d="M773.63,384.4l358.34-206.91c3.47-2,6.28-.38,6.28,3.62v126.94c0,4-2.82,8.87-6.28,10.88l-358.34,206.91c-3.47,2-6.28.38-6.28-3.62v-126.94c0-4,2.82-8.87,6.28-10.88h0Z"/><path class="cls-6" d="M773.63,384.4l358.34-206.91c3.47-2,6.28-.38,6.28,3.62v126.94c0,4-2.82,8.87-6.28,10.88l-358.34,206.91c-3.47,2-6.28.38-6.28-3.62v-126.94c0-4,2.82-8.87,6.28-10.88h0Z"/><path class="cls-11" d="M832.82,362.32c23.05-13.5,50.34-8.29,53.85,20.99,0,29.63-18.56,68.73-44.23,83.55s-52.42,3.87-52.41-25.76c0-29.63,19.74-65.27,42.79-78.78Z"/><path class="cls-12" d="M842.45,363.9c24.62-14.21,44.58-2.69,44.58,25.74s-19.96,63-44.58,77.22-44.58,2.69-44.58-25.74,19.96-63,44.58-77.22Z"/><path class="cls-2" d="M907.36,341.41l97.82-56.48c1.67-.97,3.03-.18,3.03,1.75h0c0,1.93-1.36,4.28-3.03,5.25l-97.82,56.48c-1.67.97-3.03.18-3.03-1.75h0c0-1.93,1.36-4.28,3.03-5.25Z"/><path class="cls-2" d="M907.36,358.4l169.67-97.97c1.67-.97,3.03-.18,3.03,1.75h0c0,1.93-1.36,4.28-3.03,5.25l-169.67,97.97c-1.67.97-3.03.18-3.03-1.75h0c0-1.93,1.36-4.28,3.03-5.25h0Z"/><path class="cls-2" d="M907.36,375.4l197.37-113.96c1.67-.97,3.03-.18,3.03,1.75h0c0,1.93-1.36,4.28-3.03,5.25l-197.37,113.96c-1.67.97-3.03.18-3.03-1.75h0c0-1.93,1.36-4.28,3.03-5.25Z"/><path class="cls-2" d="M912.17,394.54c.26-1.07,1.39-1.72,1.65-.95l.93,2.76c.12.35.45.43.82.22l3-1.73c.84-.48,1.19.55.51,1.52l-2.42,3.43c-.3.43-.43.95-.32,1.3l.93,2.76c.26.77-.65,2.07-1.33,1.89l-2.42-.63c-.3-.08-.72.16-1.02.59l-2.42,3.43c-.68.96-1.59.72-1.33-.35l.93-3.83c.12-.48-.01-.86-.32-.94l-2.42-.64c-.68-.18-.33-1.62.51-2.1l3-1.73c.38-.22.71-.69.82-1.17l.93-3.83h-.03Z"/><path class="cls-2" d="M937.27,380.05c.26-1.07,1.39-1.72,1.65-.95l.93,2.76c.12.35.45.43.82.21l3-1.73c.84-.48,1.19.55.51,1.51l-2.42,3.43c-.3.43-.43.96-.31,1.3l.93,2.76c.26.77-.65,2.07-1.33,1.89l-2.42-.63c-.3-.08-.71.16-1.02.59l-2.42,3.43c-.68.96-1.59.72-1.33-.35l.93-3.83c.12-.48-.01-.86-.32-.94l-2.42-.63c-.68-.18-.33-1.62.51-2.1l3-1.73c.38-.22.71-.69.82-1.17l.93-3.83h-.04Z"/><path class="cls-2" d="M962.38,365.55c.26-1.07,1.39-1.72,1.65-.95l.93,2.76c.11.35.45.43.82.21l3-1.73c.84-.48,1.19.55.51,1.51l-2.43,3.44c-.3.43-.43.95-.31,1.3l.93,2.76c.26.77-.65,2.07-1.33,1.89l-2.42-.63c-.3-.08-.71.16-1.02.59l-2.43,3.43c-.68.96-1.59.72-1.33-.35l.93-3.83c.12-.48-.01-.86-.31-.94l-2.42-.63c-.68-.18-.33-1.62.51-2.1l3-1.73c.38-.22.71-.69.82-1.17l.93-3.83h-.03Z"/><path class="cls-2" d="M987.48,351.06c.26-1.07,1.39-1.72,1.65-.95l.93,2.76c.12.35.45.43.82.22l3-1.73c.84-.49,1.19.55.51,1.51l-2.42,3.43c-.3.43-.43.95-.32,1.3l.93,2.76c.26.77-.65,2.06-1.33,1.89l-2.42-.64c-.3-.08-.72.16-1.02.59l-2.42,3.44c-.68.96-1.59.72-1.33-.35l.93-3.83c.12-.48-.01-.86-.31-.94l-2.42-.63c-.68-.18-.33-1.62.51-2.1l3-1.73c.38-.22.71-.69.82-1.17l.93-3.83h-.04Z"/><path class="cls-2" d="M1012.59,336.56c.26-1.07,1.39-1.72,1.65-.95l.93,2.76c.12.35.45.43.82.22l3-1.73c.84-.48,1.19.55.51,1.52l-2.42,3.43c-.3.43-.43.95-.32,1.3l.93,2.76c.26.77-.65,2.07-1.33,1.89l-2.42-.64c-.3-.08-.72.16-1.02.59l-2.43,3.43c-.68.96-1.59.72-1.33-.35l.93-3.83c.12-.48-.01-.86-.32-.94l-2.43-.63c-.68-.18-.33-1.62.51-2.1l3-1.73c.38-.22.71-.69.82-1.17l.93-3.83h-.01Z"/><g class="cls-17"><path class="cls-10" d="M841.87,428.31c8.51-4.92,15.41-16.86,15.41-26.69s-6.9-13.81-15.41-8.9c-8.51,4.92-15.41,16.86-15.41,26.69s6.9,13.81,15.41,8.9Z"/><path class="cls-10" d="M866.53,442.54c0-7.55-2.6-13.29-7.22-15.96-4.63-2.67-10.9-2.05-17.43,1.73s-12.81,10.4-17.43,18.4c-4.63,8.01-7.22,16.75-7.22,24.3"/></g><line class="cls-6" x1="773.45" y1="384.82" x2="761.78" y2="378.96"/><line class="cls-6" x1="767.18" y1="396.02" x2="755.52" y2="390.9"/></g><g id="grafica"><path class="cls-3" d="M451.24,478.41c5.93-3.56,13.27-3.84,19.45-.74l4.78,2.39-94.74,97.23-.15.16-.04.22-24.33,119.14-9.53-2.93c-5.14-1.58-8.65-6.33-8.65-11.71v-115.38c0-12.73,6.69-24.54,17.61-31.09l95.6-57.28v-.02Z"/><path class="cls-9" d="M364.59,540.06l100.4-57.98c9.21-5.32,16.66-1.01,16.66,9.62v115.94c0,10.63-7.47,23.55-16.66,28.87l-100.4,57.98c-9.21,5.32-16.66,1.01-16.66-9.62v-115.94c0-10.63,7.47-23.55,16.66-28.87Z"/><path class="cls-6" d="M364.59,540.06l100.4-57.98c9.21-5.32,16.66-1.01,16.66,9.62v115.94c0,10.63-7.47,23.55-16.66,28.87l-100.4,57.98c-9.21,5.32-16.66,1.01-16.66-9.62v-115.94c0-10.63,7.47-23.55,16.66-28.87Z"/><path class="cls-4" d="M446.24,523.14c12.16,3.85,19.98,16.33,19.97,35.46,0,32.8-23.03,72.68-51.43,89.07v-21.59c18.07-10.44,32.73-35.82,32.73-56.69,0-13.16-5.83-21.39-14.67-23.05l13.39-23.2h.01Z"/><path class="cls-2" d="M388.81,580.31c-4.23,8.81-6.75,18.22-6.75,26.87,0,19.83,13.22,28.46,30.06,20.31v21.64c-27.16,14.07-48.75.61-48.75-31.16,0-13.8,4.08-28.87,10.93-42.9l14.51,5.24h0Z"/><path class="cls-12" d="M413.44,528.91c10.88-6.28,20.97-8.21,29.28-6.35l-13.57,23.5c-4.66-.26-10.02,1.15-15.7,4.44-9.66,5.58-18.32,15.4-24.32,26.54l-14.52-5.25c9.43-17.98,23.34-33.94,38.84-42.89h0Z"/><line class="cls-6" x1="347.49" y1="541.5" x2="357.87" y2="545.57"/><line class="cls-6" x1="338.82" y1="559.23" x2="348.69" y2="562.71"/></g><g id="code"><path class="cls-5" d="M1498.07,436.19l-.8-10.86,61.58,27.95,61.68-29.79v11.38l-51.21,31.07c-6.43,3.9-14.49,3.84-20.86-.14l-50.4-29.61h0Z"/><path class="cls-5" d="M1499.82,419.88l52.81-30.49c3.47-2,9.09-2,12.55,0l52.81,30.49c3.47,2,3.47,5.25,0,7.25l-52.81,30.49c-3.47,2-9.09,2-12.55,0l-52.81-30.49c-3.47-2-3.47-5.25,0-7.25Z"/><g class="cls-8"><path class="cls-7" d="M1569.37,422.3v-4.83h-8.38"/><path class="cls-7" d="M1548.45,424.72v4.83h8.37"/><path class="cls-7" d="M1553.16,417.17l11.51,12.68"/></g></g><g id="paint"><path class="cls-5" d="M1410.64,486.67l-.8-10.86,61.58,27.95,61.68-29.79v11.38l-51.21,31.07c-6.43,3.9-14.49,3.84-20.86-.14l-50.4-29.61h0Z"/><path class="cls-5" d="M1412.39,470.36l52.81-30.49c3.47-2,9.09-2,12.55,0l52.81,30.49c3.47,2,3.47,5.25,0,7.25l-52.81,30.49c-3.47,2-9.09,2-12.55,0l-52.81-30.49c-3.47-2-3.47-5.25,0-7.25Z"/><g class="cls-16"><path class="cls-7" d="M1487.89,478.06c0,.27-.19.53-.52.73-.34.19-.79.3-1.27.3h-4c-.48,0-.93-.11-1.27-.3-.33-.19-.52-.46-.52-.73v-8.15c0-.27.19-.54.52-.73.34-.19.79-.3,1.27-.3h4c.48,0,.93.11,1.27.3.33.19.52.45.52.73v8.15Z"/><path class="cls-7" d="M1480.31,470.34l-10.42-4.01c-.28-.11-.61-.17-.95-.17s-.68.05-.97.15l-20.15,6.8c-.26.09-.48.22-.63.38-.15.15-.23.33-.23.51s.08.35.23.5.37.28.63.38l20.15,6.8c.29.1.63.15.97.15s.67-.06.95-.17l10.42-4.01"/><path class="cls-7" d="M1446.98,473.99h18.39"/><path class="cls-7" d="M1471.47,475.44c1.4-.8,1.4-2.11,0-2.92-1.39-.8-3.66-.8-5.05,0-1.4.81-1.4,2.11,0,2.92,1.39.81,3.66.81,5.05,0Z"/></g></g><g id="text"><path class="cls-5" d="M1323.2,537.14l-.8-10.86,61.58,27.95,61.68-29.79v11.38l-51.21,31.07c-6.43,3.9-14.49,3.84-20.86-.14l-50.4-29.61h0Z"/><path class="cls-5" d="M1324.95,520.84l52.81-30.49c3.47-2,9.09-2,12.55,0l52.81,30.49c3.47,2,3.47,5.25,0,7.25l-52.81,30.49c-3.47,2-9.09,2-12.55,0l-52.81-30.49c-3.47-2-3.47-5.25,0-7.25Z"/><path class="cls-15" d="M1381.16,510.63l6.58,3.47-.72.42c-1.25-.56-2.24-.91-2.95-1.04-1.16-.22-2.25-.24-3.26-.06-1.02.16-2.06.55-3.13,1.16l-3.63,2.1,20.5,11.84c1.65.95,2.85,1.45,3.6,1.49,1.04.04,2.06-.23,3.06-.81l.9-.52.73.42-10.94,6.32-.73-.42.91-.53c1.09-.63,1.52-1.28,1.29-1.93-.14-.4-.97-1.04-2.47-1.91l-20.5-11.84-3.1,1.79c-1.21.7-1.97,1.24-2.3,1.64-.4.53-.49,1.13-.24,1.81.24.68.92,1.4,2.05,2.15l-.72.42-5.99-3.81,21.05-12.16h0Z"/></g><g id="shape"><path class="cls-5" d="M1235.77,587.62l-.8-10.86,61.58,27.95,61.68-29.79v11.38l-51.21,31.07c-6.43,3.9-14.49,3.84-20.86-.14l-50.4-29.61h0Z"/><path class="cls-5" d="M1237.52,571.32l52.81-30.49c3.47-2,9.09-2,12.55,0l52.81,30.49c3.47,2,3.47,5.25,0,7.25l-52.81,30.49c-3.47,2-9.09,2-12.55,0l-52.81-30.49c-3.47-2-3.47-5.25,0-7.25Z"/><path class="cls-6" d="M1273.87,572.32l18.18-10.5c2.51-1.45,6.58-1.45,9.09,0l18.18,10.5c2.51,1.45,2.51,3.8,0,5.25l-18.18,10.5c-2.51,1.45-6.58,1.45-9.09,0l-18.18-10.5c-2.51-1.45-2.51-3.8,0-5.25Z"/></g><g id="crop"><path class="cls-5" d="M1148.33,638.1l-.8-10.86,61.58,27.95,61.68-29.79v11.38l-51.21,31.07c-6.43,3.9-14.49,3.84-20.86-.14l-50.4-29.61h0Z"/><path class="cls-5" d="M1150.08,621.79l52.81-30.49c3.47-2,9.09-2,12.55,0l52.81,30.49c3.47,2,3.47,5.25,0,7.25l-52.81,30.49c-3.47,2-9.09,2-12.55,0l-52.81-30.49c-3.47-2-3.47-5.25,0-7.25Z"/><path class="cls-6" d="M1186.95,621.75l28.57,16.49"/><path class="cls-6" d="M1202.82,612.59l28.57,16.49"/><path class="cls-6" d="M1215.52,612.59l-28.57,16.49"/><path class="cls-6" d="M1231.39,621.75l-28.57,16.49"/></g><g id="slect"><path class="cls-5" d="M1060.94,688.03l-.8-10.86,61.58,27.95,61.68-29.79v11.38l-51.21,31.07c-6.43,3.9-14.49,3.84-20.86-.14l-50.4-29.61h0Z"/><path class="cls-5" d="M1180.81,679.51l-52.8,30.48c-3.47,2.01-9.09,2.01-12.55,0l-52.81-30.48c-3.47-2.01-3.47-5.25,0-7.25l52.81-30.49c3.47-2,9.09-2,12.55,0l52.8,30.49c3.47,2,3.47,5.24,0,7.25Z"/><path class="cls-11" d="M1138.91,682.35s3.24,8.56-6.75,8.56l-33.44-10.21c-4.35-1.23-2.92-7.11-2.92-7.11l38.03-11.05c5.36-1.52,8.24,6.27,4.88,9.11l-7.08,5.93c-.92.78,3.01.89,3.01.89l4.27,3.88h-.01Z"/><path class="cls-12" d="M1138.14,681.45c3.36,2.85-2,6.42-7.36,4.9l-31.87-9c-4.35-1.23-4.35-4.81,0-6.04l31.87-9c5.36-1.52,10.72,2.06,7.36,4.9l-6.87,5.83c-.92.78-.92,1.8,0,2.58l6.87,5.83h0Z"/></g><line id="connector1" class="cls-6" x1="1269.02" y1="535" x2="1136.09" y2="465.81"/><line id="connector3" class="cls-6" x1="993.4" y1="544.83" x2="1131.87" y2="463.59"/><line id="connector2" class="cls-6" x1="1140.23" y1="459.41" x2="1229.69" y2="406.93"/><g id="interface2"><path class="cls-5" d="M1104.51,551.4c-.1,2.49-1.47,4.76-3.64,6.01l-303.33,174.07c-3.17,1.82-7.07,1.81-10.23-.01l-117.01-67.59c-2.18-1.26-3.55-3.56-3.62-6.08l-.34-12.4,125.83,45.11.3.11.28-.14,312.32-153.88-.58,14.81h.01Z"/><path class="cls-9" d="M667.69,642.66l309.02-178.4c1.55-.9,4.07-.9,5.63,0l122.05,70.46c1.55.9,1.55,2.35,0,3.25l-309.02,178.4c-1.55.9-4.07.9-5.63,0l-122.05-70.46c-1.55-.9-1.55-2.35,0-3.25h0Z"/><path class="cls-6" d="M667.69,642.66l309.02-178.4c1.55-.9,4.07-.9,5.63,0l122.05,70.46c1.55.9,1.55,2.35,0,3.25l-309.02,178.4c-1.55.9-4.07.9-5.63,0l-122.05-70.46c-1.55-.9-1.55-2.35,0-3.25h0Z"/><polygon class="cls-6" points="706.4 644.29 767.44 609.05 828.46 644.29 767.44 679.52 706.4 644.29"/><path class="cls-2" d="M769.28,610.59l-.54,32.18,56.96.7,1.44.83-3.03,1.75-55.26-.18,1.18,31.41-2.6,1.5-2.07-.97-.78-32-54.75-.25-2.16-1.25,2.12-1.22,54.7-.38,1.13-31.86,1.79-1.03,1.87.77h0Z"/><path class="cls-2" d="M777.82,683.27l38.95-22.49c1.43-.83,3.76-.83,5.2,0h0c1.43.83,1.43,2.17,0,3l-38.95,22.49c-1.43.83-3.76.83-5.2,0h0c-1.43-.83-1.43-2.17,0-3h0Z"/><path class="cls-2" d="M789.94,690.27l57.14-32.99c1.43-.83,3.76-.83,5.2,0h0c1.43.83,1.43,2.17,0,3l-57.14,32.99c-1.43.83-3.76.83-5.2,0h0c-1.43-.83-1.43-2.17,0-3Z"/><path class="cls-2" d="M806.82,595.56l177.47-102.45c2.15-1.24,5.64-1.24,7.79,0h0c2.15,1.24,2.15,3.26,0,4.5l-177.47,102.45c-2.15,1.24-5.64,1.24-7.79,0h0c-2.15-1.24-2.15-3.26,0-4.5Z"/><path class="cls-2" d="M827.6,607.55l122.93-70.97c2.15-1.24,5.64-1.24,7.79,0h0c2.15,1.24,2.15,3.26,0,4.5l-122.93,70.97c-2.15,1.24-5.64,1.24-7.79,0h0c-2.15-1.24-2.15-3.26,0-4.5Z"/><path class="cls-2" d="M848.37,619.55l149.77-86.46c2.15-1.24,5.64-1.24,7.79,0h0c2.15,1.24,2.15,3.26,0,4.5l-149.77,86.46c-2.15,1.24-5.64,1.24-7.79,0h0c-2.15-1.24-2.15-3.26,0-4.5Z"/><path class="cls-2" d="M869.16,631.54l80.51-46.48c2.15-1.24,5.64-1.24,7.79,0h0c2.15,1.24,2.15,3.26,0,4.5l-80.51,46.48c-2.15,1.24-5.64,1.24-7.79,0h0c-2.15-1.24-2.15-3.26,0-4.5Z"/><line class="cls-6" x1="785.55" y1="713.96" x2="785.55" y2="730.43"/><line class="cls-6" x1="797.59" y1="715.09" x2="797.59" y2="731.14"/></g><g id="type"><path class="cls-5" d="M1367.53,364.98l.13,16.42-107.79,64.99c-4.99,3.01-11.21,3.12-16.29.28l-105.46-58.74v-19.97l107.04,24.28.18.04.18-.05,115.17-30.91,6.84,3.65h0Z"/><path class="cls-9" d="M1139.5,365.39l112.3-64.83c1.55-.9,4.07-.9,5.63,0l109.04,62.94c1.55.9,1.55,2.35,0,3.25l-112.3,64.83c-1.55.9-4.07.9-5.63,0l-109.04-62.94c-1.55-.9-1.55-2.35,0-3.25Z"/><path class="cls-6" d="M1139.5,365.39l112.3-64.83c1.55-.9,4.07-.9,5.63,0l109.04,62.94c1.55.9,1.55,2.35,0,3.25l-112.3,64.83c-1.55.9-4.07.9-5.63,0l-109.04-62.94c-1.55-.9-1.55-2.35,0-3.25Z"/><path class="cls-2" d="M1293.4,365.3c-2.25,1.3-4.72,2.24-7.41,2.81-2.7.56-5.4.69-8.1.37-2.71-.32-5.23-1.15-7.55-2.49-2.03-1.18-3.29-2.36-3.74-3.56-.49-1.2-.42-2.4.2-3.6.62-1.19,1.55-2.36,2.82-3.5,1.27-1.16,2.62-2.28,4.05-3.36,1.89-1.41,3.43-2.54,4.64-3.4,1.21-.87,1.94-1.59,2.2-2.15.27-.57-.02-1.11-.91-1.62l-.18-.11c-2.28-1.32-4.68-1.98-7.21-1.99-2.5-.02-5.01.7-7.52,2.15-2.62,1.51-4.09,3.02-4.42,4.53-.35,1.52-.17,2.82.53,3.92l-7.04,1.93c-1.23-1.78-1.69-3.47-1.34-5.05.33-1.6,1.18-3.07,2.55-4.41,1.36-1.35,2.93-2.55,4.72-3.58,1.15-.66,2.59-1.34,4.35-2.03,1.77-.71,3.75-1.23,5.98-1.55,2.25-.33,4.66-.28,7.28.16,2.61.44,5.32,1.47,8.15,3.1l23.41,13.52-5.46,3.16-4.82-2.78-.27.16c.39.66.61,1.49.62,2.5.02,1.01-.38,2.1-1.21,3.29-.81,1.19-2.26,2.38-4.33,3.57h0ZM1289.34,361.98c2.16-1.25,3.56-2.54,4.19-3.89.65-1.35.68-2.64.1-3.85-.57-1.22-1.6-2.26-3.08-3.12l-5.01-2.89c.05.29-.2.74-.76,1.32-.55.57-1.25,1.2-2.1,1.88-.85.67-1.69,1.31-2.52,1.94-.84.61-1.51,1.1-2.02,1.48-1.23.93-2.26,1.87-3.07,2.82-.82.94-1.2,1.86-1.14,2.77.06.89.79,1.74,2.18,2.54,1.9,1.1,4.04,1.52,6.42,1.27,2.38-.27,4.65-1.03,6.82-2.29v.02Z"/><path class="cls-2" d="M1210.66,357.37l-5.94,3.42,30.01,37.41,6.01-3.48-8.65-10.5,19.17-11.07,18.18,5,6.02-3.48-64.8-17.31h0ZM1228.81,380.26l-13.79-16.73.37-.22,28.98,7.97-15.55,8.99h0Z"/><line class="cls-6" x1="1245.2" y1="429.99" x2="1245.2" y2="447.55"/><line class="cls-6" x1="1256.8" y1="429.99" x2="1256.8" y2="447.55"/></g><ellipse class="cls-5" cx="1131.87" cy="463.59" rx="15.04" ry="8.74"/></svg>